<?xml version="1.0" encoding="utf-8" standalone="no"?>
<!DOCTYPE svg PUBLIC "-//W3C//DTD SVG 1.1//EN"
  "http://www.w3.org/Graphics/SVG/1.1/DTD/svg11.dtd">
<svg xmlns:xlink="http://www.w3.org/1999/xlink" width="487.8625pt" height="309.354375pt" viewBox="0 0 487.8625 309.354375" xmlns="http://www.w3.org/2000/svg" version="1.1">
 <metadata>
  <rdf:RDF xmlns:dc="http://purl.org/dc/elements/1.1/" xmlns:cc="http://creativecommons.org/ns#" xmlns:rdf="http://www.w3.org/1999/02/22-rdf-syntax-ns#">
   <cc:Work>
    <dc:type rdf:resource="http://purl.org/dc/dcmitype/StillImage"/>
    <dc:date>2026-02-07T16:12:45.845965</dc:date>
    <dc:format>image/svg+xml</dc:format>
    <dc:creator>
     <cc:Agent>
      <dc:title>Matplotlib v3.10.8, https://matplotlib.org/</dc:title>
     </cc:Agent>
    </dc:creator>
   </cc:Work>
  </rdf:RDF>
 </metadata>
 <defs>
  <style type="text/css">*{stroke-linejoin: round; stroke-linecap: butt}</style>
 </defs>
 <g id="figure_1">
  <g id="patch_1">
   <path d="M 0 309.354375 
L 487.8625 309.354375 
L 487.8625 0 
L 0 0 
z
" style="fill: #ffffff"/>
  </g>
  <g id="axes_1">
   <g id="patch_2">
    <path d="M 34.2625 271.798125 
L 480.6625 271.798125 
L 480.6625 22.318125 
L 34.2625 22.318125 
z
" style="fill: #ffffff"/>
   </g>
   <g id="matplotlib.axis_1">
    <g id="xtick_1">
     <g id="line2d_1">
      <defs>
       <path id="m62ab63617b" d="M 0 0 
L 0 3.5 
" style="stroke: #000000; stroke-width: 0.8"/>
      </defs>
      <g>
       <use xlink:href="#m62ab63617b" x="54.147185" y="271.798125" style="stroke: #000000; stroke-width: 0.8"/>
      </g>
     </g>
     <g id="text_1">
      <!-- 0 -->
      <g transform="translate(50.965935 286.396562) scale(0.1 -0.1)">
       <defs>
        <path id="DejaVuSans-30" d="M 2034 4250 
Q 1547 4250 1301 3770 
Q 1056 3291 1056 2328 
Q 1056 1369 1301 889 
Q 1547 409 2034 409 
Q 2525 409 2770 889 
Q 3016 1369 3016 2328 
Q 3016 3291 2770 3770 
Q 2525 4250 2034 4250 
z
M 2034 4750 
Q 2819 4750 3233 4129 
Q 3647 3509 3647 2328 
Q 3647 1150 3233 529 
Q 2819 -91 2034 -91 
Q 1250 -91 836 529 
Q 422 1150 422 2328 
Q 422 3509 836 4129 
Q 1250 4750 2034 4750 
z
" transform="scale(0.015625)"/>
       </defs>
       <use xlink:href="#DejaVuSans-30"/>
      </g>
     </g>
    </g>
    <g id="xtick_2">
     <g id="line2d_2">
      <g>
       <use xlink:href="#m62ab63617b" x="135.392066" y="271.798125" style="stroke: #000000; stroke-width: 0.8"/>
      </g>
     </g>
     <g id="text_2">
      <!-- 20 -->
      <g transform="translate(129.029566 286.396562) scale(0.1 -0.1)">
       <defs>
        <path id="DejaVuSans-32" d="M 1228 531 
L 3431 531 
L 3431 0 
L 469 0 
L 469 531 
Q 828 903 1448 1529 
Q 2069 2156 2228 2338 
Q 2531 2678 2651 2914 
Q 2772 3150 2772 3378 
Q 2772 3750 2511 3984 
Q 2250 4219 1831 4219 
Q 1534 4219 1204 4116 
Q 875 4013 500 3803 
L 500 4441 
Q 881 4594 1212 4672 
Q 1544 4750 1819 4750 
Q 2544 4750 2975 4387 
Q 3406 4025 3406 3419 
Q 3406 3131 3298 2873 
Q 3191 2616 2906 2266 
Q 2828 2175 2409 1742 
Q 1991 1309 1228 531 
z
" transform="scale(0.015625)"/>
       </defs>
       <use xlink:href="#DejaVuSans-32"/>
       <use xlink:href="#DejaVuSans-30" transform="translate(63.623047 0)"/>
      </g>
     </g>
    </g>
    <g id="xtick_3">
     <g id="line2d_3">
      <g>
       <use xlink:href="#m62ab63617b" x="216.636947" y="271.798125" style="stroke: #000000; stroke-width: 0.8"/>
      </g>
     </g>
     <g id="text_3">
      <!-- 40 -->
      <g transform="translate(210.274447 286.396562) scale(0.1 -0.1)">
       <defs>
        <path id="DejaVuSans-34" d="M 2419 4116 
L 825 1625 
L 2419 1625 
L 2419 4116 
z
M 2253 4666 
L 3047 4666 
L 3047 1625 
L 3713 1625 
L 3713 1100 
L 3047 1100 
L 3047 0 
L 2419 0 
L 2419 1100 
L 313 1100 
L 313 1709 
L 2253 4666 
z
" transform="scale(0.015625)"/>
       </defs>
       <use xlink:href="#DejaVuSans-34"/>
       <use xlink:href="#DejaVuSans-30" transform="translate(63.623047 0)"/>
      </g>
     </g>
    </g>
    <g id="xtick_4">
     <g id="line2d_4">
      <g>
       <use xlink:href="#m62ab63617b" x="297.881828" y="271.798125" style="stroke: #000000; stroke-width: 0.8"/>
      </g>
     </g>
     <g id="text_4">
      <!-- 60 -->
      <g transform="translate(291.519328 286.396562) scale(0.1 -0.1)">
       <defs>
        <path id="DejaVuSans-36" d="M 2113 2584 
Q 1688 2584 1439 2293 
Q 1191 2003 1191 1497 
Q 1191 994 1439 701 
Q 1688 409 2113 409 
Q 2538 409 2786 701 
Q 3034 994 3034 1497 
Q 3034 2003 2786 2293 
Q 2538 2584 2113 2584 
z
M 3366 4563 
L 3366 3988 
Q 3128 4100 2886 4159 
Q 2644 4219 2406 4219 
Q 1781 4219 1451 3797 
Q 1122 3375 1075 2522 
Q 1259 2794 1537 2939 
Q 1816 3084 2150 3084 
Q 2853 3084 3261 2657 
Q 3669 2231 3669 1497 
Q 3669 778 3244 343 
Q 2819 -91 2113 -91 
Q 1303 -91 875 529 
Q 447 1150 447 2328 
Q 447 3434 972 4092 
Q 1497 4750 2381 4750 
Q 2619 4750 2861 4703 
Q 3103 4656 3366 4563 
z
" transform="scale(0.015625)"/>
       </defs>
       <use xlink:href="#DejaVuSans-36"/>
       <use xlink:href="#DejaVuSans-30" transform="translate(63.623047 0)"/>
      </g>
     </g>
    </g>
    <g id="xtick_5">
     <g id="line2d_5">
      <g>
       <use xlink:href="#m62ab63617b" x="379.12671" y="271.798125" style="stroke: #000000; stroke-width: 0.8"/>
      </g>
     </g>
     <g id="text_5">
      <!-- 80 -->
      <g transform="translate(372.76421 286.396562) scale(0.1 -0.1)">
       <defs>
        <path id="DejaVuSans-38" d="M 2034 2216 
Q 1584 2216 1326 1975 
Q 1069 1734 1069 1313 
Q 1069 891 1326 650 
Q 1584 409 2034 409 
Q 2484 409 2743 651 
Q 3003 894 3003 1313 
Q 3003 1734 2745 1975 
Q 2488 2216 2034 2216 
z
M 1403 2484 
Q 997 2584 770 2862 
Q 544 3141 544 3541 
Q 544 4100 942 4425 
Q 1341 4750 2034 4750 
Q 2731 4750 3128 4425 
Q 3525 4100 3525 3541 
Q 3525 3141 3298 2862 
Q 3072 2584 2669 2484 
Q 3125 2378 3379 2068 
Q 3634 1759 3634 1313 
Q 3634 634 3220 271 
Q 2806 -91 2034 -91 
Q 1263 -91 848 271 
Q 434 634 434 1313 
Q 434 1759 690 2068 
Q 947 2378 1403 2484 
z
M 1172 3481 
Q 1172 3119 1398 2916 
Q 1625 2713 2034 2713 
Q 2441 2713 2670 2916 
Q 2900 3119 2900 3481 
Q 2900 3844 2670 4047 
Q 2441 4250 2034 4250 
Q 1625 4250 1398 4047 
Q 1172 3844 1172 3481 
z
" transform="scale(0.015625)"/>
       </defs>
       <use xlink:href="#DejaVuSans-38"/>
       <use xlink:href="#DejaVuSans-30" transform="translate(63.623047 0)"/>
      </g>
     </g>
    </g>
    <g id="xtick_6">
     <g id="line2d_6">
      <g>
       <use xlink:href="#m62ab63617b" x="460.371591" y="271.798125" style="stroke: #000000; stroke-width: 0.8"/>
      </g>
     </g>
     <g id="text_6">
      <!-- 100 -->
      <g transform="translate(450.827841 286.396562) scale(0.1 -0.1)">
       <defs>
        <path id="DejaVuSans-31" d="M 794 531 
L 1825 531 
L 1825 4091 
L 703 3866 
L 703 4441 
L 1819 4666 
L 2450 4666 
L 2450 531 
L 3481 531 
L 3481 0 
L 794 0 
L 794 531 
z
" transform="scale(0.015625)"/>
       </defs>
       <use xlink:href="#DejaVuSans-31"/>
       <use xlink:href="#DejaVuSans-30" transform="translate(63.623047 0)"/>
       <use xlink:href="#DejaVuSans-30" transform="translate(127.246094 0)"/>
      </g>
     </g>
    </g>
    <g id="text_7">
     <!-- Size Parameter $x=\pi d/\lambda$    [—] -->
     <g transform="translate(182.5625 300.074687) scale(0.1 -0.1)">
      <defs>
       <path id="DejaVuSans-53" d="M 3425 4513 
L 3425 3897 
Q 3066 4069 2747 4153 
Q 2428 4238 2131 4238 
Q 1616 4238 1336 4038 
Q 1056 3838 1056 3469 
Q 1056 3159 1242 3001 
Q 1428 2844 1947 2747 
L 2328 2669 
Q 3034 2534 3370 2195 
Q 3706 1856 3706 1288 
Q 3706 609 3251 259 
Q 2797 -91 1919 -91 
Q 1588 -91 1214 -16 
Q 841 59 441 206 
L 441 856 
Q 825 641 1194 531 
Q 1563 422 1919 422 
Q 2459 422 2753 634 
Q 3047 847 3047 1241 
Q 3047 1584 2836 1778 
Q 2625 1972 2144 2069 
L 1759 2144 
Q 1053 2284 737 2584 
Q 422 2884 422 3419 
Q 422 4038 858 4394 
Q 1294 4750 2059 4750 
Q 2388 4750 2728 4690 
Q 3069 4631 3425 4513 
z
" transform="scale(0.015625)"/>
       <path id="DejaVuSans-69" d="M 603 3500 
L 1178 3500 
L 1178 0 
L 603 0 
L 603 3500 
z
M 603 4863 
L 1178 4863 
L 1178 4134 
L 603 4134 
L 603 4863 
z
" transform="scale(0.015625)"/>
       <path id="DejaVuSans-7a" d="M 353 3500 
L 3084 3500 
L 3084 2975 
L 922 459 
L 3084 459 
L 3084 0 
L 275 0 
L 275 525 
L 2438 3041 
L 353 3041 
L 353 3500 
z
" transform="scale(0.015625)"/>
       <path id="DejaVuSans-65" d="M 3597 1894 
L 3597 1613 
L 953 1613 
Q 991 1019 1311 708 
Q 1631 397 2203 397 
Q 2534 397 2845 478 
Q 3156 559 3463 722 
L 3463 178 
Q 3153 47 2828 -22 
Q 2503 -91 2169 -91 
Q 1331 -91 842 396 
Q 353 884 353 1716 
Q 353 2575 817 3079 
Q 1281 3584 2069 3584 
Q 2775 3584 3186 3129 
Q 3597 2675 3597 1894 
z
M 3022 2063 
Q 3016 2534 2758 2815 
Q 2500 3097 2075 3097 
Q 1594 3097 1305 2825 
Q 1016 2553 972 2059 
L 3022 2063 
z
" transform="scale(0.015625)"/>
       <path id="DejaVuSans-20" transform="scale(0.015625)"/>
       <path id="DejaVuSans-50" d="M 1259 4147 
L 1259 2394 
L 2053 2394 
Q 2494 2394 2734 2622 
Q 2975 2850 2975 3272 
Q 2975 3691 2734 3919 
Q 2494 4147 2053 4147 
L 1259 4147 
z
M 628 4666 
L 2053 4666 
Q 2838 4666 3239 4311 
Q 3641 3956 3641 3272 
Q 3641 2581 3239 2228 
Q 2838 1875 2053 1875 
L 1259 1875 
L 1259 0 
L 628 0 
L 628 4666 
z
" transform="scale(0.015625)"/>
       <path id="DejaVuSans-61" d="M 2194 1759 
Q 1497 1759 1228 1600 
Q 959 1441 959 1056 
Q 959 750 1161 570 
Q 1363 391 1709 391 
Q 2188 391 2477 730 
Q 2766 1069 2766 1631 
L 2766 1759 
L 2194 1759 
z
M 3341 1997 
L 3341 0 
L 2766 0 
L 2766 531 
Q 2569 213 2275 61 
Q 1981 -91 1556 -91 
Q 1019 -91 701 211 
Q 384 513 384 1019 
Q 384 1609 779 1909 
Q 1175 2209 1959 2209 
L 2766 2209 
L 2766 2266 
Q 2766 2663 2505 2880 
Q 2244 3097 1772 3097 
Q 1472 3097 1187 3025 
Q 903 2953 641 2809 
L 641 3341 
Q 956 3463 1253 3523 
Q 1550 3584 1831 3584 
Q 2591 3584 2966 3190 
Q 3341 2797 3341 1997 
z
" transform="scale(0.015625)"/>
       <path id="DejaVuSans-72" d="M 2631 2963 
Q 2534 3019 2420 3045 
Q 2306 3072 2169 3072 
Q 1681 3072 1420 2755 
Q 1159 2438 1159 1844 
L 1159 0 
L 581 0 
L 581 3500 
L 1159 3500 
L 1159 2956 
Q 1341 3275 1631 3429 
Q 1922 3584 2338 3584 
Q 2397 3584 2469 3576 
Q 2541 3569 2628 3553 
L 2631 2963 
z
" transform="scale(0.015625)"/>
       <path id="DejaVuSans-6d" d="M 3328 2828 
Q 3544 3216 3844 3400 
Q 4144 3584 4550 3584 
Q 5097 3584 5394 3201 
Q 5691 2819 5691 2113 
L 5691 0 
L 5113 0 
L 5113 2094 
Q 5113 2597 4934 2840 
Q 4756 3084 4391 3084 
Q 3944 3084 3684 2787 
Q 3425 2491 3425 1978 
L 3425 0 
L 2847 0 
L 2847 2094 
Q 2847 2600 2669 2842 
Q 2491 3084 2119 3084 
Q 1678 3084 1418 2786 
Q 1159 2488 1159 1978 
L 1159 0 
L 581 0 
L 581 3500 
L 1159 3500 
L 1159 2956 
Q 1356 3278 1631 3431 
Q 1906 3584 2284 3584 
Q 2666 3584 2933 3390 
Q 3200 3197 3328 2828 
z
" transform="scale(0.015625)"/>
       <path id="DejaVuSans-74" d="M 1172 4494 
L 1172 3500 
L 2356 3500 
L 2356 3053 
L 1172 3053 
L 1172 1153 
Q 1172 725 1289 603 
Q 1406 481 1766 481 
L 2356 481 
L 2356 0 
L 1766 0 
Q 1100 0 847 248 
Q 594 497 594 1153 
L 594 3053 
L 172 3053 
L 172 3500 
L 594 3500 
L 594 4494 
L 1172 4494 
z
" transform="scale(0.015625)"/>
       <path id="DejaVuSans-Oblique-78" d="M 3841 3500 
L 2234 1784 
L 3219 0 
L 2559 0 
L 1819 1388 
L 531 0 
L -166 0 
L 1556 1844 
L 641 3500 
L 1300 3500 
L 1972 2234 
L 3144 3500 
L 3841 3500 
z
" transform="scale(0.015625)"/>
       <path id="DejaVuSans-3d" d="M 678 2906 
L 4684 2906 
L 4684 2381 
L 678 2381 
L 678 2906 
z
M 678 1631 
L 4684 1631 
L 4684 1100 
L 678 1100 
L 678 1631 
z
" transform="scale(0.015625)"/>
       <path id="DejaVuSans-Oblique-3c0" d="M 584 3500 
L 3938 3500 
L 3825 2925 
L 3384 2925 
L 2966 775 
Q 2922 550 2981 450 
Q 3038 353 3209 353 
Q 3256 353 3325 363 
Q 3397 369 3419 372 
L 3338 -44 
Q 3222 -84 3103 -103 
Q 2981 -122 2866 -122 
Q 2491 -122 2388 81 
Q 2284 288 2391 838 
L 2797 2925 
L 1506 2925 
L 938 0 
L 350 0 
L 919 2925 
L 472 2925 
L 584 3500 
z
" transform="scale(0.015625)"/>
       <path id="DejaVuSans-Oblique-64" d="M 2675 525 
Q 2444 222 2128 65 
Q 1813 -91 1428 -91 
Q 903 -91 598 267 
Q 294 625 294 1247 
Q 294 1766 478 2236 
Q 663 2706 1013 3078 
Q 1244 3325 1534 3454 
Q 1825 3584 2144 3584 
Q 2481 3584 2739 3421 
Q 2997 3259 3138 2956 
L 3513 4863 
L 4091 4863 
L 3144 0 
L 2566 0 
L 2675 525 
z
M 891 1350 
Q 891 897 1095 644 
Q 1300 391 1663 391 
Q 1931 391 2161 520 
Q 2391 650 2566 903 
Q 2750 1166 2856 1509 
Q 2963 1853 2963 2188 
Q 2963 2622 2758 2865 
Q 2553 3109 2194 3109 
Q 1922 3109 1687 2981 
Q 1453 2853 1288 2613 
Q 1106 2353 998 2009 
Q 891 1666 891 1350 
z
" transform="scale(0.015625)"/>
       <path id="DejaVuSans-2f" d="M 1625 4666 
L 2156 4666 
L 531 -594 
L 0 -594 
L 1625 4666 
z
" transform="scale(0.015625)"/>
       <path id="DejaVuSans-Oblique-3bb" d="M 2350 4316 
L 3125 0 
L 2516 0 
L 2038 2588 
L 328 0 
L -281 0 
L 1903 3356 
L 1794 3975 
Q 1725 4369 1391 4369 
L 1091 4369 
L 1184 4863 
L 1550 4856 
Q 2253 4847 2350 4316 
z
" transform="scale(0.015625)"/>
       <path id="DejaVuSans-5b" d="M 550 4863 
L 1875 4863 
L 1875 4416 
L 1125 4416 
L 1125 -397 
L 1875 -397 
L 1875 -844 
L 550 -844 
L 550 4863 
z
" transform="scale(0.015625)"/>
       <path id="DejaVuSansDisplay-2014" d="M 313 1978 
L 6088 1978 
L 6088 1528 
L 313 1528 
L 313 1978 
z
" transform="scale(0.015625)"/>
       <path id="DejaVuSans-5d" d="M 1947 4863 
L 1947 -844 
L 622 -844 
L 622 -397 
L 1369 -397 
L 1369 4416 
L 622 4416 
L 622 4863 
L 1947 4863 
z
" transform="scale(0.015625)"/>
      </defs>
      <use xlink:href="#DejaVuSans-53" transform="translate(0 0.015625)"/>
      <use xlink:href="#DejaVuSans-69" transform="translate(63.476562 0.015625)"/>
      <use xlink:href="#DejaVuSans-7a" transform="translate(91.259766 0.015625)"/>
      <use xlink:href="#DejaVuSans-65" transform="translate(143.75 0.015625)"/>
      <use xlink:href="#DejaVuSans-20" transform="translate(205.273438 0.015625)"/>
      <use xlink:href="#DejaVuSans-50" transform="translate(237.060547 0.015625)"/>
      <use xlink:href="#DejaVuSans-61" transform="translate(297.363281 0.015625)"/>
      <use xlink:href="#DejaVuSans-72" transform="translate(358.642578 0.015625)"/>
      <use xlink:href="#DejaVuSans-61" transform="translate(399.755859 0.015625)"/>
      <use xlink:href="#DejaVuSans-6d" transform="translate(461.035156 0.015625)"/>
      <use xlink:href="#DejaVuSans-65" transform="translate(558.447266 0.015625)"/>
      <use xlink:href="#DejaVuSans-74" transform="translate(619.970703 0.015625)"/>
      <use xlink:href="#DejaVuSans-65" transform="translate(659.179688 0.015625)"/>
      <use xlink:href="#DejaVuSans-72" transform="translate(720.703125 0.015625)"/>
      <use xlink:href="#DejaVuSans-20" transform="translate(761.816406 0.015625)"/>
      <use xlink:href="#DejaVuSans-Oblique-78" transform="translate(793.603516 0.015625)"/>
      <use xlink:href="#DejaVuSans-3d" transform="translate(872.265625 0.015625)"/>
      <use xlink:href="#DejaVuSans-Oblique-3c0" transform="translate(975.537109 0.015625)"/>
      <use xlink:href="#DejaVuSans-Oblique-64" transform="translate(1035.742188 0.015625)"/>
      <use xlink:href="#DejaVuSans-2f" transform="translate(1099.21875 0.015625)"/>
      <use xlink:href="#DejaVuSans-Oblique-3bb" transform="translate(1132.910156 0.015625)"/>
      <use xlink:href="#DejaVuSans-20" transform="translate(1192.089844 0.015625)"/>
      <use xlink:href="#DejaVuSans-20" transform="translate(1223.876953 0.015625)"/>
      <use xlink:href="#DejaVuSans-20" transform="translate(1255.664062 0.015625)"/>
      <use xlink:href="#DejaVuSans-20" transform="translate(1287.451172 0.015625)"/>
      <use xlink:href="#DejaVuSans-5b" transform="translate(1319.238281 0.015625)"/>
      <use xlink:href="#DejaVuSansDisplay-2014" transform="translate(1358.251953 0.015625)"/>
      <use xlink:href="#DejaVuSans-5d" transform="translate(1458.251953 0.015625)"/>
     </g>
    </g>
   </g>
   <g id="matplotlib.axis_2">
    <g id="ytick_1">
     <g id="line2d_7">
      <defs>
       <path id="m09a7984bcb" d="M 0 0 
L -3.5 0 
" style="stroke: #000000; stroke-width: 0.8"/>
      </defs>
      <g>
       <use xlink:href="#m09a7984bcb" x="34.2625" y="260.459347" style="stroke: #000000; stroke-width: 0.8"/>
      </g>
     </g>
     <g id="text_8">
      <!-- 0 -->
      <g transform="translate(20.9 264.258566) scale(0.1 -0.1)">
       <use xlink:href="#DejaVuSans-30"/>
      </g>
     </g>
    </g>
    <g id="ytick_2">
     <g id="line2d_8">
      <g>
       <use xlink:href="#m09a7984bcb" x="34.2625" y="207.520458" style="stroke: #000000; stroke-width: 0.8"/>
      </g>
     </g>
     <g id="text_9">
      <!-- 1 -->
      <g transform="translate(20.9 211.319676) scale(0.1 -0.1)">
       <use xlink:href="#DejaVuSans-31"/>
      </g>
     </g>
    </g>
    <g id="ytick_3">
     <g id="line2d_9">
      <g>
       <use xlink:href="#m09a7984bcb" x="34.2625" y="154.581568" style="stroke: #000000; stroke-width: 0.8"/>
      </g>
     </g>
     <g id="text_10">
      <!-- 2 -->
      <g transform="translate(20.9 158.380787) scale(0.1 -0.1)">
       <use xlink:href="#DejaVuSans-32"/>
      </g>
     </g>
    </g>
    <g id="ytick_4">
     <g id="line2d_10">
      <g>
       <use xlink:href="#m09a7984bcb" x="34.2625" y="101.642679" style="stroke: #000000; stroke-width: 0.8"/>
      </g>
     </g>
     <g id="text_11">
      <!-- 3 -->
      <g transform="translate(20.9 105.441897) scale(0.1 -0.1)">
       <defs>
        <path id="DejaVuSans-33" d="M 2597 2516 
Q 3050 2419 3304 2112 
Q 3559 1806 3559 1356 
Q 3559 666 3084 287 
Q 2609 -91 1734 -91 
Q 1441 -91 1130 -33 
Q 819 25 488 141 
L 488 750 
Q 750 597 1062 519 
Q 1375 441 1716 441 
Q 2309 441 2620 675 
Q 2931 909 2931 1356 
Q 2931 1769 2642 2001 
Q 2353 2234 1838 2234 
L 1294 2234 
L 1294 2753 
L 1863 2753 
Q 2328 2753 2575 2939 
Q 2822 3125 2822 3475 
Q 2822 3834 2567 4026 
Q 2313 4219 1838 4219 
Q 1578 4219 1281 4162 
Q 984 4106 628 3988 
L 628 4550 
Q 988 4650 1302 4700 
Q 1616 4750 1894 4750 
Q 2613 4750 3031 4423 
Q 3450 4097 3450 3541 
Q 3450 3153 3228 2886 
Q 3006 2619 2597 2516 
z
" transform="scale(0.015625)"/>
       </defs>
       <use xlink:href="#DejaVuSans-33"/>
      </g>
     </g>
    </g>
    <g id="ytick_5">
     <g id="line2d_11">
      <g>
       <use xlink:href="#m09a7984bcb" x="34.2625" y="48.703789" style="stroke: #000000; stroke-width: 0.8"/>
      </g>
     </g>
     <g id="text_12">
      <!-- 4 -->
      <g transform="translate(20.9 52.503008) scale(0.1 -0.1)">
       <use xlink:href="#DejaVuSans-34"/>
      </g>
     </g>
    </g>
    <g id="text_13">
     <!-- Extinction Efficiency $Q_{ext}$    [—] -->
     <g transform="translate(14.8 224.308125) rotate(-90) scale(0.1 -0.1)">
      <defs>
       <path id="DejaVuSans-45" d="M 628 4666 
L 3578 4666 
L 3578 4134 
L 1259 4134 
L 1259 2753 
L 3481 2753 
L 3481 2222 
L 1259 2222 
L 1259 531 
L 3634 531 
L 3634 0 
L 628 0 
L 628 4666 
z
" transform="scale(0.015625)"/>
       <path id="DejaVuSans-78" d="M 3513 3500 
L 2247 1797 
L 3578 0 
L 2900 0 
L 1881 1375 
L 863 0 
L 184 0 
L 1544 1831 
L 300 3500 
L 978 3500 
L 1906 2253 
L 2834 3500 
L 3513 3500 
z
" transform="scale(0.015625)"/>
       <path id="DejaVuSans-6e" d="M 3513 2113 
L 3513 0 
L 2938 0 
L 2938 2094 
Q 2938 2591 2744 2837 
Q 2550 3084 2163 3084 
Q 1697 3084 1428 2787 
Q 1159 2491 1159 1978 
L 1159 0 
L 581 0 
L 581 3500 
L 1159 3500 
L 1159 2956 
Q 1366 3272 1645 3428 
Q 1925 3584 2291 3584 
Q 2894 3584 3203 3211 
Q 3513 2838 3513 2113 
z
" transform="scale(0.015625)"/>
       <path id="DejaVuSans-63" d="M 3122 3366 
L 3122 2828 
Q 2878 2963 2633 3030 
Q 2388 3097 2138 3097 
Q 1578 3097 1268 2742 
Q 959 2388 959 1747 
Q 959 1106 1268 751 
Q 1578 397 2138 397 
Q 2388 397 2633 464 
Q 2878 531 3122 666 
L 3122 134 
Q 2881 22 2623 -34 
Q 2366 -91 2075 -91 
Q 1284 -91 818 406 
Q 353 903 353 1747 
Q 353 2603 823 3093 
Q 1294 3584 2113 3584 
Q 2378 3584 2631 3529 
Q 2884 3475 3122 3366 
z
" transform="scale(0.015625)"/>
       <path id="DejaVuSans-6f" d="M 1959 3097 
Q 1497 3097 1228 2736 
Q 959 2375 959 1747 
Q 959 1119 1226 758 
Q 1494 397 1959 397 
Q 2419 397 2687 759 
Q 2956 1122 2956 1747 
Q 2956 2369 2687 2733 
Q 2419 3097 1959 3097 
z
M 1959 3584 
Q 2709 3584 3137 3096 
Q 3566 2609 3566 1747 
Q 3566 888 3137 398 
Q 2709 -91 1959 -91 
Q 1206 -91 779 398 
Q 353 888 353 1747 
Q 353 2609 779 3096 
Q 1206 3584 1959 3584 
z
" transform="scale(0.015625)"/>
       <path id="DejaVuSans-66" d="M 2375 4863 
L 2375 4384 
L 1825 4384 
Q 1516 4384 1395 4259 
Q 1275 4134 1275 3809 
L 1275 3500 
L 2222 3500 
L 2222 3053 
L 1275 3053 
L 1275 0 
L 697 0 
L 697 3053 
L 147 3053 
L 147 3500 
L 697 3500 
L 697 3744 
Q 697 4328 969 4595 
Q 1241 4863 1831 4863 
L 2375 4863 
z
" transform="scale(0.015625)"/>
       <path id="DejaVuSans-79" d="M 2059 -325 
Q 1816 -950 1584 -1140 
Q 1353 -1331 966 -1331 
L 506 -1331 
L 506 -850 
L 844 -850 
Q 1081 -850 1212 -737 
Q 1344 -625 1503 -206 
L 1606 56 
L 191 3500 
L 800 3500 
L 1894 763 
L 2988 3500 
L 3597 3500 
L 2059 -325 
z
" transform="scale(0.015625)"/>
       <path id="DejaVuSans-Oblique-51" d="M 2309 -84 
Q 2275 -88 2237 -89 
Q 2200 -91 2125 -91 
Q 1250 -91 756 411 
Q 263 913 263 1797 
Q 263 2319 452 2844 
Q 641 3369 978 3788 
Q 1369 4269 1858 4509 
Q 2347 4750 2938 4750 
Q 3794 4750 4287 4245 
Q 4781 3741 4781 2869 
Q 4781 1928 4265 1147 
Q 3750 366 2919 44 
L 3553 -825 
L 2847 -825 
L 2309 -84 
z
M 2919 4238 
Q 2400 4238 2003 3986 
Q 1606 3734 1313 3219 
Q 1125 2891 1026 2522 
Q 928 2153 928 1778 
Q 928 1128 1239 775 
Q 1550 422 2119 422 
Q 2631 422 3032 676 
Q 3434 931 3719 1434 
Q 3909 1772 4009 2142 
Q 4109 2513 4109 2881 
Q 4109 3528 3796 3883 
Q 3484 4238 2919 4238 
z
" transform="scale(0.015625)"/>
       <path id="DejaVuSans-Oblique-65" d="M 3078 2063 
Q 3088 2113 3092 2166 
Q 3097 2219 3097 2272 
Q 3097 2653 2873 2875 
Q 2650 3097 2266 3097 
Q 1838 3097 1509 2826 
Q 1181 2556 1013 2059 
L 3078 2063 
z
M 3578 1613 
L 903 1613 
Q 884 1494 878 1425 
Q 872 1356 872 1306 
Q 872 872 1139 634 
Q 1406 397 1894 397 
Q 2269 397 2603 481 
Q 2938 566 3225 728 
L 3116 159 
Q 2806 34 2476 -28 
Q 2147 -91 1806 -91 
Q 1078 -91 686 257 
Q 294 606 294 1247 
Q 294 1794 489 2264 
Q 684 2734 1063 3103 
Q 1306 3334 1642 3459 
Q 1978 3584 2356 3584 
Q 2950 3584 3301 3228 
Q 3653 2872 3653 2272 
Q 3653 2128 3634 1964 
Q 3616 1800 3578 1613 
z
" transform="scale(0.015625)"/>
       <path id="DejaVuSans-Oblique-74" d="M 2706 3500 
L 2619 3053 
L 1472 3053 
L 1100 1153 
Q 1081 1047 1072 975 
Q 1063 903 1063 863 
Q 1063 663 1183 572 
Q 1303 481 1569 481 
L 2150 481 
L 2053 0 
L 1503 0 
Q 991 0 739 200 
Q 488 400 488 806 
Q 488 878 497 964 
Q 506 1050 525 1153 
L 897 3053 
L 409 3053 
L 500 3500 
L 978 3500 
L 1172 4494 
L 1747 4494 
L 1556 3500 
L 2706 3500 
z
" transform="scale(0.015625)"/>
      </defs>
      <use xlink:href="#DejaVuSans-45" transform="translate(0 0.015625)"/>
      <use xlink:href="#DejaVuSans-78" transform="translate(63.183594 0.015625)"/>
      <use xlink:href="#DejaVuSans-74" transform="translate(122.363281 0.015625)"/>
      <use xlink:href="#DejaVuSans-69" transform="translate(161.572266 0.015625)"/>
      <use xlink:href="#DejaVuSans-6e" transform="translate(189.355469 0.015625)"/>
      <use xlink:href="#DejaVuSans-63" transform="translate(252.734375 0.015625)"/>
      <use xlink:href="#DejaVuSans-74" transform="translate(307.714844 0.015625)"/>
      <use xlink:href="#DejaVuSans-69" transform="translate(346.923828 0.015625)"/>
      <use xlink:href="#DejaVuSans-6f" transform="translate(374.707031 0.015625)"/>
      <use xlink:href="#DejaVuSans-6e" transform="translate(435.888672 0.015625)"/>
      <use xlink:href="#DejaVuSans-20" transform="translate(499.267578 0.015625)"/>
      <use xlink:href="#DejaVuSans-45" transform="translate(531.054688 0.015625)"/>
      <use xlink:href="#DejaVuSans-66" transform="translate(594.238281 0.015625)"/>
      <use xlink:href="#DejaVuSans-66" transform="translate(629.443359 0.015625)"/>
      <use xlink:href="#DejaVuSans-69" transform="translate(664.648438 0.015625)"/>
      <use xlink:href="#DejaVuSans-63" transform="translate(692.431641 0.015625)"/>
      <use xlink:href="#DejaVuSans-69" transform="translate(747.412109 0.015625)"/>
      <use xlink:href="#DejaVuSans-65" transform="translate(775.195312 0.015625)"/>
      <use xlink:href="#DejaVuSans-6e" transform="translate(836.71875 0.015625)"/>
      <use xlink:href="#DejaVuSans-63" transform="translate(900.097656 0.015625)"/>
      <use xlink:href="#DejaVuSans-79" transform="translate(955.078125 0.015625)"/>
      <use xlink:href="#DejaVuSans-20" transform="translate(1014.257812 0.015625)"/>
      <use xlink:href="#DejaVuSans-Oblique-51" transform="translate(1046.044922 0.015625)"/>
      <use xlink:href="#DejaVuSans-Oblique-65" transform="translate(1124.755859 -16.390625) scale(0.7)"/>
      <use xlink:href="#DejaVuSans-Oblique-78" transform="translate(1167.822266 -16.390625) scale(0.7)"/>
      <use xlink:href="#DejaVuSans-Oblique-74" transform="translate(1209.248047 -16.390625) scale(0.7)"/>
      <use xlink:href="#DejaVuSans-20" transform="translate(1239.428711 0.015625)"/>
      <use xlink:href="#DejaVuSans-20" transform="translate(1271.21582 0.015625)"/>
      <use xlink:href="#DejaVuSans-20" transform="translate(1303.00293 0.015625)"/>
      <use xlink:href="#DejaVuSans-20" transform="translate(1334.790039 0.015625)"/>
      <use xlink:href="#DejaVuSans-5b" transform="translate(1366.577148 0.015625)"/>
      <use xlink:href="#DejaVuSansDisplay-2014" transform="translate(1405.59082 0.015625)"/>
      <use xlink:href="#DejaVuSans-5d" transform="translate(1505.59082 0.015625)"/>
     </g>
    </g>
   </g>
   <g id="line2d_12">
    <path d="M 54.553409 260.458125 
L 55.910661 260.02162 
L 57.267912 256.222462 
L 58.625163 244.534707 
L 59.982415 225.235965 
L 61.339666 192.832803 
L 62.696918 156.620845 
L 64.054169 132.917702 
L 65.411421 90.772968 
L 66.768672 77.201668 
L 68.125924 50.426166 
L 69.483175 41.146246 
L 70.840426 41.854471 
L 72.197678 33.658125 
L 73.554929 57.726878 
L 74.912181 52.836005 
L 76.269432 87.350451 
L 77.626684 92.026989 
L 78.983935 119.866265 
L 80.341187 138.732898 
L 81.698438 145.370082 
L 83.055689 168.443073 
L 84.412941 157.96187 
L 85.770192 171.246207 
L 87.127444 152.850175 
L 88.484695 154.069303 
L 89.841947 145.191709 
L 91.199198 133.062854 
L 92.55645 133.072858 
L 93.913701 121.235435 
L 95.270952 113.919583 
L 96.628204 110.684667 
L 97.985455 101.932958 
L 99.342707 99.424841 
L 100.699958 100.352335 
L 103.414461 125.602838 
L 104.771713 136.678633 
L 106.128964 148.744977 
L 107.486215 150.014327 
L 108.843467 160.763362 
L 110.200718 155.989567 
L 111.55797 161.935298 
L 112.915221 148.295008 
L 114.272473 148.398046 
L 115.629724 149.025717 
L 116.986976 138.222812 
L 118.344227 140.358675 
L 119.701478 126.10416 
L 121.05873 128.600228 
L 122.415981 120.658688 
L 125.130484 124.570475 
L 126.487736 124.10222 
L 127.844987 132.339594 
L 129.202239 131.221972 
L 130.55949 142.446176 
L 131.916741 140.165971 
L 133.273993 151.725972 
L 134.631244 151.95082 
L 135.988496 154.621585 
L 137.345747 158.500608 
L 138.702999 153.08133 
L 140.06025 154.131643 
L 141.417502 147.471389 
L 142.774753 144.434578 
L 144.132004 134.433881 
L 145.489256 133.903282 
L 148.203759 127.276085 
L 149.56101 129.937946 
L 150.918262 132.135008 
L 152.275513 132.491972 
L 153.632765 137.981296 
L 154.990016 139.535931 
L 156.347267 141.695719 
L 157.704519 145.607551 
L 160.419022 151.863003 
L 161.776273 153.103698 
L 163.133525 157.912811 
L 164.490776 151.304402 
L 165.848028 153.823175 
L 167.205279 148.112895 
L 169.919782 142.174455 
L 171.277033 130.627939 
L 172.634285 135.003375 
L 173.991536 131.355099 
L 175.348788 136.329742 
L 176.706039 131.722463 
L 178.063291 138.133534 
L 179.420542 139.353316 
L 180.777793 142.278391 
L 182.135045 147.29036 
L 183.492296 147.507185 
L 184.849548 152.320998 
L 186.206799 150.536572 
L 187.564051 155.608903 
L 188.921302 150.312978 
L 190.278554 152.955588 
L 191.635805 150.931405 
L 192.993056 146.917314 
L 194.350308 145.66953 
L 195.707559 143.266867 
L 197.064811 140.456688 
L 198.422062 138.465448 
L 199.779314 138.098703 
L 201.136565 132.388975 
L 202.493817 137.217368 
L 203.851068 138.256261 
L 205.208319 141.050058 
L 206.565571 143.256358 
L 207.922822 149.358027 
L 209.280074 149.147589 
L 210.637325 153.226672 
L 211.994577 153.925552 
L 213.351828 149.631742 
L 214.70908 152.552848 
L 216.066331 150.595751 
L 217.423582 151.705499 
L 218.780834 145.745774 
L 220.138085 148.117735 
L 221.495337 142.369229 
L 222.852588 142.507787 
L 224.20984 140.970396 
L 225.567091 138.643704 
L 226.924343 139.945108 
L 228.281594 138.105629 
L 229.638845 142.65498 
L 230.996097 140.852233 
L 232.353348 147.616079 
L 233.7106 146.906967 
L 235.067851 150.771925 
L 236.425103 152.34013 
L 237.782354 152.4184 
L 239.139606 154.01792 
L 240.496857 152.984406 
L 241.854108 148.68132 
L 243.21136 148.050975 
L 244.568611 149.403998 
L 245.925863 145.146393 
L 247.283114 143.716224 
L 248.640366 141.812144 
L 249.997617 141.737781 
L 251.354869 140.127681 
L 252.71212 142.458068 
L 254.069371 142.392353 
L 255.426623 142.068133 
L 256.783874 145.175936 
L 258.141126 145.714669 
L 260.855629 149.36971 
L 262.21288 153.828819 
L 263.570131 151.387331 
L 264.927383 155.048763 
L 266.284634 152.929077 
L 268.999137 151.167711 
L 270.356389 146.400689 
L 271.71364 144.380851 
L 273.070892 142.997066 
L 274.428143 145.139905 
L 275.785394 140.436884 
L 277.142646 143.409715 
L 278.499897 142.343271 
L 279.857149 143.359239 
L 281.2144 144.825546 
L 282.571652 145.201522 
L 283.928903 147.528629 
L 285.286155 148.57885 
L 286.643406 152.697873 
L 288.000657 150.135387 
L 289.357909 153.949518 
L 290.71516 152.748826 
L 292.072412 152.131182 
L 293.429663 151.089439 
L 294.786915 150.803527 
L 296.144166 148.605314 
L 297.501418 143.750623 
L 298.858669 146.225316 
L 300.21592 141.768162 
L 301.573172 143.976139 
L 302.930423 142.195386 
L 304.287675 142.86237 
L 305.644926 142.81813 
L 307.002178 147.079685 
L 308.359429 146.742443 
L 309.716681 149.543844 
L 311.073932 150.998462 
L 312.431183 148.305529 
L 313.788435 152.827532 
L 315.145686 151.893381 
L 316.502938 153.151049 
L 317.860189 150.32707 
L 319.217441 153.172193 
L 320.574692 149.517253 
L 321.931944 149.515241 
L 323.289195 147.507326 
L 324.646446 144.749031 
L 326.003698 145.06602 
L 327.360949 143.338103 
L 328.718201 144.549101 
L 330.075452 142.32197 
L 331.432704 146.635234 
L 332.789955 145.831211 
L 334.147207 148.449649 
L 335.504458 148.919199 
L 336.861709 150.556096 
L 338.218961 151.764244 
L 339.576212 152.677584 
L 340.933464 152.917574 
L 342.290715 150.81414 
L 343.647967 153.353549 
L 345.005218 150.688371 
L 346.36247 150.008405 
L 347.719721 147.610183 
L 349.076972 147.843494 
L 350.434224 145.338462 
L 351.791475 146.448136 
L 353.148727 145.233478 
L 354.505978 143.231964 
L 355.86323 146.027459 
L 357.220481 145.28863 
L 358.577733 146.428834 
L 359.934984 146.982185 
L 361.292235 151.090522 
L 362.649487 150.013104 
L 364.006738 153.44432 
L 365.36399 152.8986 
L 366.721241 152.919259 
L 368.078493 151.919865 
L 369.435744 151.48016 
L 370.792996 149.889083 
L 372.150247 148.505693 
L 373.507498 150.203274 
L 374.86475 146.441106 
L 376.222001 147.590333 
L 377.579253 145.566368 
L 378.936504 145.481581 
L 380.293756 145.205331 
L 383.008259 145.886964 
L 384.36551 146.943109 
L 385.722761 150.229829 
L 387.080013 149.334996 
L 388.437264 152.257054 
L 389.794516 151.569508 
L 391.151767 152.607483 
L 392.509019 152.142078 
L 393.86627 153.415394 
L 396.580773 151.046902 
L 397.938024 150.727684 
L 399.295276 148.115585 
L 400.652527 148.133559 
L 402.009779 145.739704 
L 403.36703 146.037378 
L 404.724282 144.530681 
L 406.081533 147.419287 
L 407.438785 146.49504 
L 408.796036 147.305964 
L 410.153287 148.616963 
L 411.510539 148.810842 
L 412.86779 150.810776 
L 414.225042 150.745458 
L 415.582293 152.906387 
L 416.939545 151.364081 
L 418.296796 154.323982 
L 419.654048 152.299189 
L 421.011299 152.633496 
L 422.36855 150.867327 
L 423.725802 148.510377 
L 425.083053 148.974633 
L 426.440305 147.408764 
L 427.797556 147.806592 
L 429.154808 145.093227 
L 430.512059 147.408964 
L 431.869311 146.112412 
L 433.226562 147.457861 
L 434.583813 147.106016 
L 435.941065 148.963282 
L 437.298316 149.81197 
L 438.655568 151.364342 
L 440.012819 152.44173 
L 441.370071 151.061465 
L 442.727322 153.673098 
L 444.084574 152.307673 
L 445.441825 152.416116 
L 446.799076 150.726316 
L 448.156328 151.841482 
L 449.513579 149.568533 
L 450.870831 149.842431 
L 452.228082 146.717671 
L 453.585334 145.677543 
L 454.942585 147.310124 
L 456.299837 146.153165 
L 457.657088 146.413902 
L 459.014339 146.175588 
L 460.371591 149.584782 
L 460.371591 149.584782 
" clip-path="url(#p4c852fa3e0)" style="fill: none; stroke: #ff0000; stroke-width: 1.5; stroke-linecap: square"/>
   </g>
   <g id="line2d_13">
    <path d="M 54.553409 259.397392 
L 55.910661 254.979921 
L 57.267912 245.955677 
L 58.625163 228.869723 
L 59.982415 205.510906 
L 61.339666 175.778002 
L 62.696918 151.098572 
L 65.411421 107.877817 
L 66.768672 96.952626 
L 68.125924 84.675065 
L 70.840426 81.089969 
L 72.197678 84.255578 
L 73.554929 90.908608 
L 74.912181 95.971074 
L 76.269432 105.982996 
L 77.626684 111.752424 
L 78.983935 120.020716 
L 80.341187 125.715422 
L 83.055689 134.141863 
L 84.412941 134.990457 
L 85.770192 136.625091 
L 88.484695 135.215077 
L 89.841947 134.246054 
L 91.199198 132.566128 
L 92.55645 131.788889 
L 93.913701 130.586225 
L 95.270952 130.21914 
L 96.628204 130.087211 
L 97.985455 130.298277 
L 100.699958 131.828904 
L 104.771713 135.165374 
L 106.128964 136.168845 
L 107.486215 136.985048 
L 108.843467 137.666781 
L 110.200718 138.109254 
L 111.55797 138.414753 
L 114.272473 138.580135 
L 121.05873 138.45224 
L 123.773233 138.735411 
L 126.487736 139.245385 
L 133.273993 140.72303 
L 137.345747 141.276664 
L 142.774753 141.643494 
L 149.56101 142.105342 
L 165.848028 143.489846 
L 197.064811 145.128829 
L 222.852588 146.11156 
L 251.354869 146.939433 
L 286.643406 147.723564 
L 330.075452 148.452945 
L 384.36551 149.13431 
L 453.585334 149.773651 
L 460.371591 149.826499 
L 460.371591 149.826499 
" clip-path="url(#p4c852fa3e0)" style="fill: none; stroke: #0000ff; stroke-width: 1.5; stroke-linecap: square"/>
   </g>
   <g id="patch_3">
    <path d="M 34.2625 271.798125 
L 34.2625 22.318125 
" style="fill: none; stroke: #000000; stroke-width: 0.8; stroke-linejoin: miter; stroke-linecap: square"/>
   </g>
   <g id="patch_4">
    <path d="M 480.6625 271.798125 
L 480.6625 22.318125 
" style="fill: none; stroke: #000000; stroke-width: 0.8; stroke-linejoin: miter; stroke-linecap: square"/>
   </g>
   <g id="patch_5">
    <path d="M 34.2625 271.798125 
L 480.6625 271.798125 
" style="fill: none; stroke: #000000; stroke-width: 0.8; stroke-linejoin: miter; stroke-linecap: square"/>
   </g>
   <g id="patch_6">
    <path d="M 34.2625 22.318125 
L 480.6625 22.318125 
" style="fill: none; stroke: #000000; stroke-width: 0.8; stroke-linejoin: miter; stroke-linecap: square"/>
   </g>
   <g id="text_14">
    <!-- Extinction by absorbing and non-absorbing spheres -->
    <g transform="translate(102.630625 16.318125) scale(0.12 -0.12)">
     <defs>
      <path id="DejaVuSans-62" d="M 3116 1747 
Q 3116 2381 2855 2742 
Q 2594 3103 2138 3103 
Q 1681 3103 1420 2742 
Q 1159 2381 1159 1747 
Q 1159 1113 1420 752 
Q 1681 391 2138 391 
Q 2594 391 2855 752 
Q 3116 1113 3116 1747 
z
M 1159 2969 
Q 1341 3281 1617 3432 
Q 1894 3584 2278 3584 
Q 2916 3584 3314 3078 
Q 3713 2572 3713 1747 
Q 3713 922 3314 415 
Q 2916 -91 2278 -91 
Q 1894 -91 1617 61 
Q 1341 213 1159 525 
L 1159 0 
L 581 0 
L 581 4863 
L 1159 4863 
L 1159 2969 
z
" transform="scale(0.015625)"/>
      <path id="DejaVuSans-73" d="M 2834 3397 
L 2834 2853 
Q 2591 2978 2328 3040 
Q 2066 3103 1784 3103 
Q 1356 3103 1142 2972 
Q 928 2841 928 2578 
Q 928 2378 1081 2264 
Q 1234 2150 1697 2047 
L 1894 2003 
Q 2506 1872 2764 1633 
Q 3022 1394 3022 966 
Q 3022 478 2636 193 
Q 2250 -91 1575 -91 
Q 1294 -91 989 -36 
Q 684 19 347 128 
L 347 722 
Q 666 556 975 473 
Q 1284 391 1588 391 
Q 1994 391 2212 530 
Q 2431 669 2431 922 
Q 2431 1156 2273 1281 
Q 2116 1406 1581 1522 
L 1381 1569 
Q 847 1681 609 1914 
Q 372 2147 372 2553 
Q 372 3047 722 3315 
Q 1072 3584 1716 3584 
Q 2034 3584 2315 3537 
Q 2597 3491 2834 3397 
z
" transform="scale(0.015625)"/>
      <path id="DejaVuSans-67" d="M 2906 1791 
Q 2906 2416 2648 2759 
Q 2391 3103 1925 3103 
Q 1463 3103 1205 2759 
Q 947 2416 947 1791 
Q 947 1169 1205 825 
Q 1463 481 1925 481 
Q 2391 481 2648 825 
Q 2906 1169 2906 1791 
z
M 3481 434 
Q 3481 -459 3084 -895 
Q 2688 -1331 1869 -1331 
Q 1566 -1331 1297 -1286 
Q 1028 -1241 775 -1147 
L 775 -588 
Q 1028 -725 1275 -790 
Q 1522 -856 1778 -856 
Q 2344 -856 2625 -561 
Q 2906 -266 2906 331 
L 2906 616 
Q 2728 306 2450 153 
Q 2172 0 1784 0 
Q 1141 0 747 490 
Q 353 981 353 1791 
Q 353 2603 747 3093 
Q 1141 3584 1784 3584 
Q 2172 3584 2450 3431 
Q 2728 3278 2906 2969 
L 2906 3500 
L 3481 3500 
L 3481 434 
z
" transform="scale(0.015625)"/>
      <path id="DejaVuSans-64" d="M 2906 2969 
L 2906 4863 
L 3481 4863 
L 3481 0 
L 2906 0 
L 2906 525 
Q 2725 213 2448 61 
Q 2172 -91 1784 -91 
Q 1150 -91 751 415 
Q 353 922 353 1747 
Q 353 2572 751 3078 
Q 1150 3584 1784 3584 
Q 2172 3584 2448 3432 
Q 2725 3281 2906 2969 
z
M 947 1747 
Q 947 1113 1208 752 
Q 1469 391 1925 391 
Q 2381 391 2643 752 
Q 2906 1113 2906 1747 
Q 2906 2381 2643 2742 
Q 2381 3103 1925 3103 
Q 1469 3103 1208 2742 
Q 947 2381 947 1747 
z
" transform="scale(0.015625)"/>
      <path id="DejaVuSans-2d" d="M 313 2009 
L 1997 2009 
L 1997 1497 
L 313 1497 
L 313 2009 
z
" transform="scale(0.015625)"/>
      <path id="DejaVuSans-70" d="M 1159 525 
L 1159 -1331 
L 581 -1331 
L 581 3500 
L 1159 3500 
L 1159 2969 
Q 1341 3281 1617 3432 
Q 1894 3584 2278 3584 
Q 2916 3584 3314 3078 
Q 3713 2572 3713 1747 
Q 3713 922 3314 415 
Q 2916 -91 2278 -91 
Q 1894 -91 1617 61 
Q 1341 213 1159 525 
z
M 3116 1747 
Q 3116 2381 2855 2742 
Q 2594 3103 2138 3103 
Q 1681 3103 1420 2742 
Q 1159 2381 1159 1747 
Q 1159 1113 1420 752 
Q 1681 391 2138 391 
Q 2594 391 2855 752 
Q 3116 1113 3116 1747 
z
" transform="scale(0.015625)"/>
      <path id="DejaVuSans-68" d="M 3513 2113 
L 3513 0 
L 2938 0 
L 2938 2094 
Q 2938 2591 2744 2837 
Q 2550 3084 2163 3084 
Q 1697 3084 1428 2787 
Q 1159 2491 1159 1978 
L 1159 0 
L 581 0 
L 581 4863 
L 1159 4863 
L 1159 2956 
Q 1366 3272 1645 3428 
Q 1925 3584 2291 3584 
Q 2894 3584 3203 3211 
Q 3513 2838 3513 2113 
z
" transform="scale(0.015625)"/>
     </defs>
     <use xlink:href="#DejaVuSans-45"/>
     <use xlink:href="#DejaVuSans-78" transform="translate(63.183594 0)"/>
     <use xlink:href="#DejaVuSans-74" transform="translate(122.363281 0)"/>
     <use xlink:href="#DejaVuSans-69" transform="translate(161.572266 0)"/>
     <use xlink:href="#DejaVuSans-6e" transform="translate(189.355469 0)"/>
     <use xlink:href="#DejaVuSans-63" transform="translate(252.734375 0)"/>
     <use xlink:href="#DejaVuSans-74" transform="translate(307.714844 0)"/>
     <use xlink:href="#DejaVuSans-69" transform="translate(346.923828 0)"/>
     <use xlink:href="#DejaVuSans-6f" transform="translate(374.707031 0)"/>
     <use xlink:href="#DejaVuSans-6e" transform="translate(435.888672 0)"/>
     <use xlink:href="#DejaVuSans-20" transform="translate(499.267578 0)"/>
     <use xlink:href="#DejaVuSans-62" transform="translate(531.054688 0)"/>
     <use xlink:href="#DejaVuSans-79" transform="translate(594.53125 0)"/>
     <use xlink:href="#DejaVuSans-20" transform="translate(653.710938 0)"/>
     <use xlink:href="#DejaVuSans-61" transform="translate(685.498047 0)"/>
     <use xlink:href="#DejaVuSans-62" transform="translate(746.777344 0)"/>
     <use xlink:href="#DejaVuSans-73" transform="translate(810.253906 0)"/>
     <use xlink:href="#DejaVuSans-6f" transform="translate(862.353516 0)"/>
     <use xlink:href="#DejaVuSans-72" transform="translate(923.535156 0)"/>
     <use xlink:href="#DejaVuSans-62" transform="translate(964.648438 0)"/>
     <use xlink:href="#DejaVuSans-69" transform="translate(1028.125 0)"/>
     <use xlink:href="#DejaVuSans-6e" transform="translate(1055.908203 0)"/>
     <use xlink:href="#DejaVuSans-67" transform="translate(1119.287109 0)"/>
     <use xlink:href="#DejaVuSans-20" transform="translate(1182.763672 0)"/>
     <use xlink:href="#DejaVuSans-61" transform="translate(1214.550781 0)"/>
     <use xlink:href="#DejaVuSans-6e" transform="translate(1275.830078 0)"/>
     <use xlink:href="#DejaVuSans-64" transform="translate(1339.208984 0)"/>
     <use xlink:href="#DejaVuSans-20" transform="translate(1402.685547 0)"/>
     <use xlink:href="#DejaVuSans-6e" transform="translate(1434.472656 0)"/>
     <use xlink:href="#DejaVuSans-6f" transform="translate(1497.851562 0)"/>
     <use xlink:href="#DejaVuSans-6e" transform="translate(1559.033203 0)"/>
     <use xlink:href="#DejaVuSans-2d" transform="translate(1622.412109 0)"/>
     <use xlink:href="#DejaVuSans-61" transform="translate(1658.496094 0)"/>
     <use xlink:href="#DejaVuSans-62" transform="translate(1719.775391 0)"/>
     <use xlink:href="#DejaVuSans-73" transform="translate(1783.251953 0)"/>
     <use xlink:href="#DejaVuSans-6f" transform="translate(1835.351562 0)"/>
     <use xlink:href="#DejaVuSans-72" transform="translate(1896.533203 0)"/>
     <use xlink:href="#DejaVuSans-62" transform="translate(1937.646484 0)"/>
     <use xlink:href="#DejaVuSans-69" transform="translate(2001.123047 0)"/>
     <use xlink:href="#DejaVuSans-6e" transform="translate(2028.90625 0)"/>
     <use xlink:href="#DejaVuSans-67" transform="translate(2092.285156 0)"/>
     <use xlink:href="#DejaVuSans-20" transform="translate(2155.761719 0)"/>
     <use xlink:href="#DejaVuSans-73" transform="translate(2187.548828 0)"/>
     <use xlink:href="#DejaVuSans-70" transform="translate(2239.648438 0)"/>
     <use xlink:href="#DejaVuSans-68" transform="translate(2303.125 0)"/>
     <use xlink:href="#DejaVuSans-65" transform="translate(2366.503906 0)"/>
     <use xlink:href="#DejaVuSans-72" transform="translate(2428.027344 0)"/>
     <use xlink:href="#DejaVuSans-65" transform="translate(2466.890625 0)"/>
     <use xlink:href="#DejaVuSans-73" transform="translate(2528.414062 0)"/>
    </g>
   </g>
   <g id="legend_1">
    <g id="patch_7">
     <path d="M 403.470312 59.674375 
L 473.6625 59.674375 
Q 475.6625 59.674375 475.6625 57.674375 
L 475.6625 29.318125 
Q 475.6625 27.318125 473.6625 27.318125 
L 403.470312 27.318125 
Q 401.470312 27.318125 401.470312 29.318125 
L 401.470312 57.674375 
Q 401.470312 59.674375 403.470312 59.674375 
z
" style="fill: #ffffff; opacity: 0.8; stroke: #cccccc; stroke-linejoin: miter"/>
    </g>
    <g id="line2d_14">
     <path d="M 405.470312 35.416562 
L 415.470312 35.416562 
L 425.470312 35.416562 
" style="fill: none; stroke: #ff0000; stroke-width: 1.5; stroke-linecap: square"/>
    </g>
    <g id="text_15">
     <!-- 1.5 -->
     <g transform="translate(433.470312 38.916562) scale(0.1 -0.1)">
      <defs>
       <path id="DejaVuSans-2e" d="M 684 794 
L 1344 794 
L 1344 0 
L 684 0 
L 684 794 
z
" transform="scale(0.015625)"/>
       <path id="DejaVuSans-35" d="M 691 4666 
L 3169 4666 
L 3169 4134 
L 1269 4134 
L 1269 2991 
Q 1406 3038 1543 3061 
Q 1681 3084 1819 3084 
Q 2600 3084 3056 2656 
Q 3513 2228 3513 1497 
Q 3513 744 3044 326 
Q 2575 -91 1722 -91 
Q 1428 -91 1123 -41 
Q 819 9 494 109 
L 494 744 
Q 775 591 1075 516 
Q 1375 441 1709 441 
Q 2250 441 2565 725 
Q 2881 1009 2881 1497 
Q 2881 1984 2565 2268 
Q 2250 2553 1709 2553 
Q 1456 2553 1204 2497 
Q 953 2441 691 2322 
L 691 4666 
z
" transform="scale(0.015625)"/>
      </defs>
      <use xlink:href="#DejaVuSans-31"/>
      <use xlink:href="#DejaVuSans-2e" transform="translate(63.623047 0)"/>
      <use xlink:href="#DejaVuSans-35" transform="translate(95.410156 0)"/>
     </g>
    </g>
    <g id="line2d_15">
     <path d="M 405.470312 50.094687 
L 415.470312 50.094687 
L 425.470312 50.094687 
" style="fill: none; stroke: #0000ff; stroke-width: 1.5; stroke-linecap: square"/>
    </g>
    <g id="text_16">
     <!-- 1.5-0.1j -->
     <g transform="translate(433.470312 53.594687) scale(0.1 -0.1)">
      <defs>
       <path id="DejaVuSans-6a" d="M 603 3500 
L 1178 3500 
L 1178 -63 
Q 1178 -731 923 -1031 
Q 669 -1331 103 -1331 
L -116 -1331 
L -116 -844 
L 38 -844 
Q 366 -844 484 -692 
Q 603 -541 603 -63 
L 603 3500 
z
M 603 4863 
L 1178 4863 
L 1178 4134 
L 603 4134 
L 603 4863 
z
" transform="scale(0.015625)"/>
      </defs>
      <use xlink:href="#DejaVuSans-31"/>
      <use xlink:href="#DejaVuSans-2e" transform="translate(63.623047 0)"/>
      <use xlink:href="#DejaVuSans-35" transform="translate(95.410156 0)"/>
      <use xlink:href="#DejaVuSans-2d" transform="translate(159.033203 0)"/>
      <use xlink:href="#DejaVuSans-30" transform="translate(195.117188 0)"/>
      <use xlink:href="#DejaVuSans-2e" transform="translate(258.740234 0)"/>
      <use xlink:href="#DejaVuSans-31" transform="translate(290.527344 0)"/>
      <use xlink:href="#DejaVuSans-6a" transform="translate(354.150391 0)"/>
     </g>
    </g>
   </g>
  </g>
 </g>
 <defs>
  <clipPath id="p4c852fa3e0">
   <rect x="34.2625" y="22.318125" width="446.4" height="249.48"/>
  </clipPath>
 </defs>
</svg>
