<?xml version="1.0" encoding="utf-8" standalone="no"?>
<!DOCTYPE svg PUBLIC "-//W3C//DTD SVG 1.1//EN"
  "http://www.w3.org/Graphics/SVG/1.1/DTD/svg11.dtd">
<svg xmlns:xlink="http://www.w3.org/1999/xlink" width="576pt" height="324pt" viewBox="0 0 576 324" xmlns="http://www.w3.org/2000/svg" version="1.1">
 <metadata>
  <rdf:RDF xmlns:dc="http://purl.org/dc/elements/1.1/" xmlns:cc="http://creativecommons.org/ns#" xmlns:rdf="http://www.w3.org/1999/02/22-rdf-syntax-ns#">
   <cc:Work>
    <dc:type rdf:resource="http://purl.org/dc/dcmitype/StillImage"/>
    <dc:date>2024-05-05T16:16:05.444590</dc:date>
    <dc:format>image/svg+xml</dc:format>
    <dc:creator>
     <cc:Agent>
      <dc:title>Matplotlib v3.8.3, https://matplotlib.org/</dc:title>
     </cc:Agent>
    </dc:creator>
   </cc:Work>
  </rdf:RDF>
 </metadata>
 <defs>
  <style type="text/css">*{stroke-linejoin: round; stroke-linecap: butt}</style>
 </defs>
 <g id="figure_1">
  <g id="patch_1">
   <path d="M 0 324 
L 576 324 
L 576 0 
L 0 0 
z
" style="fill: #ffffff"/>
  </g>
  <g id="axes_1">
   <g id="patch_2">
    <path d="M 72 288.36 
L 518.4 288.36 
L 518.4 38.88 
L 72 38.88 
z
" style="fill: #ffffff"/>
   </g>
   <g id="matplotlib.axis_1">
    <g id="xtick_1">
     <g id="line2d_1">
      <defs>
       <path id="mbf794ec3bd" d="M 0 0 
L 0 3.5 
" style="stroke: #000000; stroke-width: 0.8"/>
      </defs>
      <g>
       <use xlink:href="#mbf794ec3bd" x="91.884685" y="288.36" style="stroke: #000000; stroke-width: 0.8"/>
      </g>
     </g>
     <g id="text_1">
      <!-- 0 -->
      <g transform="translate(88.703435 302.958438) scale(0.1 -0.1)">
       <defs>
        <path id="DejaVuSans-30" d="M 2034 4250 
Q 1547 4250 1301 3770 
Q 1056 3291 1056 2328 
Q 1056 1369 1301 889 
Q 1547 409 2034 409 
Q 2525 409 2770 889 
Q 3016 1369 3016 2328 
Q 3016 3291 2770 3770 
Q 2525 4250 2034 4250 
z
M 2034 4750 
Q 2819 4750 3233 4129 
Q 3647 3509 3647 2328 
Q 3647 1150 3233 529 
Q 2819 -91 2034 -91 
Q 1250 -91 836 529 
Q 422 1150 422 2328 
Q 422 3509 836 4129 
Q 1250 4750 2034 4750 
z
" transform="scale(0.015625)"/>
       </defs>
       <use xlink:href="#DejaVuSans-30"/>
      </g>
     </g>
    </g>
    <g id="xtick_2">
     <g id="line2d_2">
      <g>
       <use xlink:href="#mbf794ec3bd" x="173.129566" y="288.36" style="stroke: #000000; stroke-width: 0.8"/>
      </g>
     </g>
     <g id="text_2">
      <!-- 20 -->
      <g transform="translate(166.767066 302.958438) scale(0.1 -0.1)">
       <defs>
        <path id="DejaVuSans-32" d="M 1228 531 
L 3431 531 
L 3431 0 
L 469 0 
L 469 531 
Q 828 903 1448 1529 
Q 2069 2156 2228 2338 
Q 2531 2678 2651 2914 
Q 2772 3150 2772 3378 
Q 2772 3750 2511 3984 
Q 2250 4219 1831 4219 
Q 1534 4219 1204 4116 
Q 875 4013 500 3803 
L 500 4441 
Q 881 4594 1212 4672 
Q 1544 4750 1819 4750 
Q 2544 4750 2975 4387 
Q 3406 4025 3406 3419 
Q 3406 3131 3298 2873 
Q 3191 2616 2906 2266 
Q 2828 2175 2409 1742 
Q 1991 1309 1228 531 
z
" transform="scale(0.015625)"/>
       </defs>
       <use xlink:href="#DejaVuSans-32"/>
       <use xlink:href="#DejaVuSans-30" x="63.623047"/>
      </g>
     </g>
    </g>
    <g id="xtick_3">
     <g id="line2d_3">
      <g>
       <use xlink:href="#mbf794ec3bd" x="254.374447" y="288.36" style="stroke: #000000; stroke-width: 0.8"/>
      </g>
     </g>
     <g id="text_3">
      <!-- 40 -->
      <g transform="translate(248.011947 302.958438) scale(0.1 -0.1)">
       <defs>
        <path id="DejaVuSans-34" d="M 2419 4116 
L 825 1625 
L 2419 1625 
L 2419 4116 
z
M 2253 4666 
L 3047 4666 
L 3047 1625 
L 3713 1625 
L 3713 1100 
L 3047 1100 
L 3047 0 
L 2419 0 
L 2419 1100 
L 313 1100 
L 313 1709 
L 2253 4666 
z
" transform="scale(0.015625)"/>
       </defs>
       <use xlink:href="#DejaVuSans-34"/>
       <use xlink:href="#DejaVuSans-30" x="63.623047"/>
      </g>
     </g>
    </g>
    <g id="xtick_4">
     <g id="line2d_4">
      <g>
       <use xlink:href="#mbf794ec3bd" x="335.619328" y="288.36" style="stroke: #000000; stroke-width: 0.8"/>
      </g>
     </g>
     <g id="text_4">
      <!-- 60 -->
      <g transform="translate(329.256828 302.958438) scale(0.1 -0.1)">
       <defs>
        <path id="DejaVuSans-36" d="M 2113 2584 
Q 1688 2584 1439 2293 
Q 1191 2003 1191 1497 
Q 1191 994 1439 701 
Q 1688 409 2113 409 
Q 2538 409 2786 701 
Q 3034 994 3034 1497 
Q 3034 2003 2786 2293 
Q 2538 2584 2113 2584 
z
M 3366 4563 
L 3366 3988 
Q 3128 4100 2886 4159 
Q 2644 4219 2406 4219 
Q 1781 4219 1451 3797 
Q 1122 3375 1075 2522 
Q 1259 2794 1537 2939 
Q 1816 3084 2150 3084 
Q 2853 3084 3261 2657 
Q 3669 2231 3669 1497 
Q 3669 778 3244 343 
Q 2819 -91 2113 -91 
Q 1303 -91 875 529 
Q 447 1150 447 2328 
Q 447 3434 972 4092 
Q 1497 4750 2381 4750 
Q 2619 4750 2861 4703 
Q 3103 4656 3366 4563 
z
" transform="scale(0.015625)"/>
       </defs>
       <use xlink:href="#DejaVuSans-36"/>
       <use xlink:href="#DejaVuSans-30" x="63.623047"/>
      </g>
     </g>
    </g>
    <g id="xtick_5">
     <g id="line2d_5">
      <g>
       <use xlink:href="#mbf794ec3bd" x="416.86421" y="288.36" style="stroke: #000000; stroke-width: 0.8"/>
      </g>
     </g>
     <g id="text_5">
      <!-- 80 -->
      <g transform="translate(410.50171 302.958438) scale(0.1 -0.1)">
       <defs>
        <path id="DejaVuSans-38" d="M 2034 2216 
Q 1584 2216 1326 1975 
Q 1069 1734 1069 1313 
Q 1069 891 1326 650 
Q 1584 409 2034 409 
Q 2484 409 2743 651 
Q 3003 894 3003 1313 
Q 3003 1734 2745 1975 
Q 2488 2216 2034 2216 
z
M 1403 2484 
Q 997 2584 770 2862 
Q 544 3141 544 3541 
Q 544 4100 942 4425 
Q 1341 4750 2034 4750 
Q 2731 4750 3128 4425 
Q 3525 4100 3525 3541 
Q 3525 3141 3298 2862 
Q 3072 2584 2669 2484 
Q 3125 2378 3379 2068 
Q 3634 1759 3634 1313 
Q 3634 634 3220 271 
Q 2806 -91 2034 -91 
Q 1263 -91 848 271 
Q 434 634 434 1313 
Q 434 1759 690 2068 
Q 947 2378 1403 2484 
z
M 1172 3481 
Q 1172 3119 1398 2916 
Q 1625 2713 2034 2713 
Q 2441 2713 2670 2916 
Q 2900 3119 2900 3481 
Q 2900 3844 2670 4047 
Q 2441 4250 2034 4250 
Q 1625 4250 1398 4047 
Q 1172 3844 1172 3481 
z
" transform="scale(0.015625)"/>
       </defs>
       <use xlink:href="#DejaVuSans-38"/>
       <use xlink:href="#DejaVuSans-30" x="63.623047"/>
      </g>
     </g>
    </g>
    <g id="xtick_6">
     <g id="line2d_6">
      <g>
       <use xlink:href="#mbf794ec3bd" x="498.109091" y="288.36" style="stroke: #000000; stroke-width: 0.8"/>
      </g>
     </g>
     <g id="text_6">
      <!-- 100 -->
      <g transform="translate(488.565341 302.958438) scale(0.1 -0.1)">
       <defs>
        <path id="DejaVuSans-31" d="M 794 531 
L 1825 531 
L 1825 4091 
L 703 3866 
L 703 4441 
L 1819 4666 
L 2450 4666 
L 2450 531 
L 3481 531 
L 3481 0 
L 794 0 
L 794 531 
z
" transform="scale(0.015625)"/>
       </defs>
       <use xlink:href="#DejaVuSans-31"/>
       <use xlink:href="#DejaVuSans-30" x="63.623047"/>
       <use xlink:href="#DejaVuSans-30" x="127.246094"/>
      </g>
     </g>
    </g>
    <g id="text_7">
     <!-- Size Parameter [–] -->
     <g transform="translate(249.34375 316.636563) scale(0.1 -0.1)">
      <defs>
       <path id="DejaVuSans-53" d="M 3425 4513 
L 3425 3897 
Q 3066 4069 2747 4153 
Q 2428 4238 2131 4238 
Q 1616 4238 1336 4038 
Q 1056 3838 1056 3469 
Q 1056 3159 1242 3001 
Q 1428 2844 1947 2747 
L 2328 2669 
Q 3034 2534 3370 2195 
Q 3706 1856 3706 1288 
Q 3706 609 3251 259 
Q 2797 -91 1919 -91 
Q 1588 -91 1214 -16 
Q 841 59 441 206 
L 441 856 
Q 825 641 1194 531 
Q 1563 422 1919 422 
Q 2459 422 2753 634 
Q 3047 847 3047 1241 
Q 3047 1584 2836 1778 
Q 2625 1972 2144 2069 
L 1759 2144 
Q 1053 2284 737 2584 
Q 422 2884 422 3419 
Q 422 4038 858 4394 
Q 1294 4750 2059 4750 
Q 2388 4750 2728 4690 
Q 3069 4631 3425 4513 
z
" transform="scale(0.015625)"/>
       <path id="DejaVuSans-69" d="M 603 3500 
L 1178 3500 
L 1178 0 
L 603 0 
L 603 3500 
z
M 603 4863 
L 1178 4863 
L 1178 4134 
L 603 4134 
L 603 4863 
z
" transform="scale(0.015625)"/>
       <path id="DejaVuSans-7a" d="M 353 3500 
L 3084 3500 
L 3084 2975 
L 922 459 
L 3084 459 
L 3084 0 
L 275 0 
L 275 525 
L 2438 3041 
L 353 3041 
L 353 3500 
z
" transform="scale(0.015625)"/>
       <path id="DejaVuSans-65" d="M 3597 1894 
L 3597 1613 
L 953 1613 
Q 991 1019 1311 708 
Q 1631 397 2203 397 
Q 2534 397 2845 478 
Q 3156 559 3463 722 
L 3463 178 
Q 3153 47 2828 -22 
Q 2503 -91 2169 -91 
Q 1331 -91 842 396 
Q 353 884 353 1716 
Q 353 2575 817 3079 
Q 1281 3584 2069 3584 
Q 2775 3584 3186 3129 
Q 3597 2675 3597 1894 
z
M 3022 2063 
Q 3016 2534 2758 2815 
Q 2500 3097 2075 3097 
Q 1594 3097 1305 2825 
Q 1016 2553 972 2059 
L 3022 2063 
z
" transform="scale(0.015625)"/>
       <path id="DejaVuSans-20" transform="scale(0.015625)"/>
       <path id="DejaVuSans-50" d="M 1259 4147 
L 1259 2394 
L 2053 2394 
Q 2494 2394 2734 2622 
Q 2975 2850 2975 3272 
Q 2975 3691 2734 3919 
Q 2494 4147 2053 4147 
L 1259 4147 
z
M 628 4666 
L 2053 4666 
Q 2838 4666 3239 4311 
Q 3641 3956 3641 3272 
Q 3641 2581 3239 2228 
Q 2838 1875 2053 1875 
L 1259 1875 
L 1259 0 
L 628 0 
L 628 4666 
z
" transform="scale(0.015625)"/>
       <path id="DejaVuSans-61" d="M 2194 1759 
Q 1497 1759 1228 1600 
Q 959 1441 959 1056 
Q 959 750 1161 570 
Q 1363 391 1709 391 
Q 2188 391 2477 730 
Q 2766 1069 2766 1631 
L 2766 1759 
L 2194 1759 
z
M 3341 1997 
L 3341 0 
L 2766 0 
L 2766 531 
Q 2569 213 2275 61 
Q 1981 -91 1556 -91 
Q 1019 -91 701 211 
Q 384 513 384 1019 
Q 384 1609 779 1909 
Q 1175 2209 1959 2209 
L 2766 2209 
L 2766 2266 
Q 2766 2663 2505 2880 
Q 2244 3097 1772 3097 
Q 1472 3097 1187 3025 
Q 903 2953 641 2809 
L 641 3341 
Q 956 3463 1253 3523 
Q 1550 3584 1831 3584 
Q 2591 3584 2966 3190 
Q 3341 2797 3341 1997 
z
" transform="scale(0.015625)"/>
       <path id="DejaVuSans-72" d="M 2631 2963 
Q 2534 3019 2420 3045 
Q 2306 3072 2169 3072 
Q 1681 3072 1420 2755 
Q 1159 2438 1159 1844 
L 1159 0 
L 581 0 
L 581 3500 
L 1159 3500 
L 1159 2956 
Q 1341 3275 1631 3429 
Q 1922 3584 2338 3584 
Q 2397 3584 2469 3576 
Q 2541 3569 2628 3553 
L 2631 2963 
z
" transform="scale(0.015625)"/>
       <path id="DejaVuSans-6d" d="M 3328 2828 
Q 3544 3216 3844 3400 
Q 4144 3584 4550 3584 
Q 5097 3584 5394 3201 
Q 5691 2819 5691 2113 
L 5691 0 
L 5113 0 
L 5113 2094 
Q 5113 2597 4934 2840 
Q 4756 3084 4391 3084 
Q 3944 3084 3684 2787 
Q 3425 2491 3425 1978 
L 3425 0 
L 2847 0 
L 2847 2094 
Q 2847 2600 2669 2842 
Q 2491 3084 2119 3084 
Q 1678 3084 1418 2786 
Q 1159 2488 1159 1978 
L 1159 0 
L 581 0 
L 581 3500 
L 1159 3500 
L 1159 2956 
Q 1356 3278 1631 3431 
Q 1906 3584 2284 3584 
Q 2666 3584 2933 3390 
Q 3200 3197 3328 2828 
z
" transform="scale(0.015625)"/>
       <path id="DejaVuSans-74" d="M 1172 4494 
L 1172 3500 
L 2356 3500 
L 2356 3053 
L 1172 3053 
L 1172 1153 
Q 1172 725 1289 603 
Q 1406 481 1766 481 
L 2356 481 
L 2356 0 
L 1766 0 
Q 1100 0 847 248 
Q 594 497 594 1153 
L 594 3053 
L 172 3053 
L 172 3500 
L 594 3500 
L 594 4494 
L 1172 4494 
z
" transform="scale(0.015625)"/>
       <path id="DejaVuSans-5b" d="M 550 4863 
L 1875 4863 
L 1875 4416 
L 1125 4416 
L 1125 -397 
L 1875 -397 
L 1875 -844 
L 550 -844 
L 550 4863 
z
" transform="scale(0.015625)"/>
       <path id="DejaVuSans-2013" d="M 313 1978 
L 2888 1978 
L 2888 1528 
L 313 1528 
L 313 1978 
z
" transform="scale(0.015625)"/>
       <path id="DejaVuSans-5d" d="M 1947 4863 
L 1947 -844 
L 622 -844 
L 622 -397 
L 1369 -397 
L 1369 4416 
L 622 4416 
L 622 4863 
L 1947 4863 
z
" transform="scale(0.015625)"/>
      </defs>
      <use xlink:href="#DejaVuSans-53"/>
      <use xlink:href="#DejaVuSans-69" x="63.476562"/>
      <use xlink:href="#DejaVuSans-7a" x="91.259766"/>
      <use xlink:href="#DejaVuSans-65" x="143.75"/>
      <use xlink:href="#DejaVuSans-20" x="205.273438"/>
      <use xlink:href="#DejaVuSans-50" x="237.060547"/>
      <use xlink:href="#DejaVuSans-61" x="292.863281"/>
      <use xlink:href="#DejaVuSans-72" x="354.142578"/>
      <use xlink:href="#DejaVuSans-61" x="395.255859"/>
      <use xlink:href="#DejaVuSans-6d" x="456.535156"/>
      <use xlink:href="#DejaVuSans-65" x="553.947266"/>
      <use xlink:href="#DejaVuSans-74" x="615.470703"/>
      <use xlink:href="#DejaVuSans-65" x="654.679688"/>
      <use xlink:href="#DejaVuSans-72" x="716.203125"/>
      <use xlink:href="#DejaVuSans-20" x="757.316406"/>
      <use xlink:href="#DejaVuSans-5b" x="789.103516"/>
      <use xlink:href="#DejaVuSans-2013" x="828.117188"/>
      <use xlink:href="#DejaVuSans-5d" x="878.117188"/>
     </g>
    </g>
   </g>
   <g id="matplotlib.axis_2">
    <g id="ytick_1">
     <g id="line2d_7">
      <defs>
       <path id="m35132b60c8" d="M 0 0 
L -3.5 0 
" style="stroke: #000000; stroke-width: 0.8"/>
      </defs>
      <g>
       <use xlink:href="#m35132b60c8" x="72" y="277.021201" style="stroke: #000000; stroke-width: 0.8"/>
      </g>
     </g>
     <g id="text_8">
      <!-- 0 -->
      <g transform="translate(58.6375 280.82042) scale(0.1 -0.1)">
       <use xlink:href="#DejaVuSans-30"/>
      </g>
     </g>
    </g>
    <g id="ytick_2">
     <g id="line2d_8">
      <g>
       <use xlink:href="#m35132b60c8" x="72" y="224.993733" style="stroke: #000000; stroke-width: 0.8"/>
      </g>
     </g>
     <g id="text_9">
      <!-- 1 -->
      <g transform="translate(58.6375 228.792952) scale(0.1 -0.1)">
       <use xlink:href="#DejaVuSans-31"/>
      </g>
     </g>
    </g>
    <g id="ytick_3">
     <g id="line2d_9">
      <g>
       <use xlink:href="#m35132b60c8" x="72" y="172.966266" style="stroke: #000000; stroke-width: 0.8"/>
      </g>
     </g>
     <g id="text_10">
      <!-- 2 -->
      <g transform="translate(58.6375 176.765485) scale(0.1 -0.1)">
       <use xlink:href="#DejaVuSans-32"/>
      </g>
     </g>
    </g>
    <g id="ytick_4">
     <g id="line2d_10">
      <g>
       <use xlink:href="#m35132b60c8" x="72" y="120.938798" style="stroke: #000000; stroke-width: 0.8"/>
      </g>
     </g>
     <g id="text_11">
      <!-- 3 -->
      <g transform="translate(58.6375 124.738017) scale(0.1 -0.1)">
       <defs>
        <path id="DejaVuSans-33" d="M 2597 2516 
Q 3050 2419 3304 2112 
Q 3559 1806 3559 1356 
Q 3559 666 3084 287 
Q 2609 -91 1734 -91 
Q 1441 -91 1130 -33 
Q 819 25 488 141 
L 488 750 
Q 750 597 1062 519 
Q 1375 441 1716 441 
Q 2309 441 2620 675 
Q 2931 909 2931 1356 
Q 2931 1769 2642 2001 
Q 2353 2234 1838 2234 
L 1294 2234 
L 1294 2753 
L 1863 2753 
Q 2328 2753 2575 2939 
Q 2822 3125 2822 3475 
Q 2822 3834 2567 4026 
Q 2313 4219 1838 4219 
Q 1578 4219 1281 4162 
Q 984 4106 628 3988 
L 628 4550 
Q 988 4650 1302 4700 
Q 1616 4750 1894 4750 
Q 2613 4750 3031 4423 
Q 3450 4097 3450 3541 
Q 3450 3153 3228 2886 
Q 3006 2619 2597 2516 
z
" transform="scale(0.015625)"/>
       </defs>
       <use xlink:href="#DejaVuSans-33"/>
      </g>
     </g>
    </g>
    <g id="ytick_5">
     <g id="line2d_11">
      <g>
       <use xlink:href="#m35132b60c8" x="72" y="68.911331" style="stroke: #000000; stroke-width: 0.8"/>
      </g>
     </g>
     <g id="text_12">
      <!-- 4 -->
      <g transform="translate(58.6375 72.71055) scale(0.1 -0.1)">
       <use xlink:href="#DejaVuSans-34"/>
      </g>
     </g>
    </g>
    <g id="text_13">
     <!-- Extinction Efficiency $Q_{ext}$ [–] -->
     <g transform="translate(52.5375 233.62) rotate(-90) scale(0.1 -0.1)">
      <defs>
       <path id="DejaVuSans-45" d="M 628 4666 
L 3578 4666 
L 3578 4134 
L 1259 4134 
L 1259 2753 
L 3481 2753 
L 3481 2222 
L 1259 2222 
L 1259 531 
L 3634 531 
L 3634 0 
L 628 0 
L 628 4666 
z
" transform="scale(0.015625)"/>
       <path id="DejaVuSans-78" d="M 3513 3500 
L 2247 1797 
L 3578 0 
L 2900 0 
L 1881 1375 
L 863 0 
L 184 0 
L 1544 1831 
L 300 3500 
L 978 3500 
L 1906 2253 
L 2834 3500 
L 3513 3500 
z
" transform="scale(0.015625)"/>
       <path id="DejaVuSans-6e" d="M 3513 2113 
L 3513 0 
L 2938 0 
L 2938 2094 
Q 2938 2591 2744 2837 
Q 2550 3084 2163 3084 
Q 1697 3084 1428 2787 
Q 1159 2491 1159 1978 
L 1159 0 
L 581 0 
L 581 3500 
L 1159 3500 
L 1159 2956 
Q 1366 3272 1645 3428 
Q 1925 3584 2291 3584 
Q 2894 3584 3203 3211 
Q 3513 2838 3513 2113 
z
" transform="scale(0.015625)"/>
       <path id="DejaVuSans-63" d="M 3122 3366 
L 3122 2828 
Q 2878 2963 2633 3030 
Q 2388 3097 2138 3097 
Q 1578 3097 1268 2742 
Q 959 2388 959 1747 
Q 959 1106 1268 751 
Q 1578 397 2138 397 
Q 2388 397 2633 464 
Q 2878 531 3122 666 
L 3122 134 
Q 2881 22 2623 -34 
Q 2366 -91 2075 -91 
Q 1284 -91 818 406 
Q 353 903 353 1747 
Q 353 2603 823 3093 
Q 1294 3584 2113 3584 
Q 2378 3584 2631 3529 
Q 2884 3475 3122 3366 
z
" transform="scale(0.015625)"/>
       <path id="DejaVuSans-6f" d="M 1959 3097 
Q 1497 3097 1228 2736 
Q 959 2375 959 1747 
Q 959 1119 1226 758 
Q 1494 397 1959 397 
Q 2419 397 2687 759 
Q 2956 1122 2956 1747 
Q 2956 2369 2687 2733 
Q 2419 3097 1959 3097 
z
M 1959 3584 
Q 2709 3584 3137 3096 
Q 3566 2609 3566 1747 
Q 3566 888 3137 398 
Q 2709 -91 1959 -91 
Q 1206 -91 779 398 
Q 353 888 353 1747 
Q 353 2609 779 3096 
Q 1206 3584 1959 3584 
z
" transform="scale(0.015625)"/>
       <path id="DejaVuSans-66" d="M 2375 4863 
L 2375 4384 
L 1825 4384 
Q 1516 4384 1395 4259 
Q 1275 4134 1275 3809 
L 1275 3500 
L 2222 3500 
L 2222 3053 
L 1275 3053 
L 1275 0 
L 697 0 
L 697 3053 
L 147 3053 
L 147 3500 
L 697 3500 
L 697 3744 
Q 697 4328 969 4595 
Q 1241 4863 1831 4863 
L 2375 4863 
z
" transform="scale(0.015625)"/>
       <path id="DejaVuSans-79" d="M 2059 -325 
Q 1816 -950 1584 -1140 
Q 1353 -1331 966 -1331 
L 506 -1331 
L 506 -850 
L 844 -850 
Q 1081 -850 1212 -737 
Q 1344 -625 1503 -206 
L 1606 56 
L 191 3500 
L 800 3500 
L 1894 763 
L 2988 3500 
L 3597 3500 
L 2059 -325 
z
" transform="scale(0.015625)"/>
       <path id="DejaVuSans-Oblique-51" d="M 2309 -84 
Q 2275 -88 2237 -89 
Q 2200 -91 2125 -91 
Q 1250 -91 756 411 
Q 263 913 263 1797 
Q 263 2319 452 2844 
Q 641 3369 978 3788 
Q 1369 4269 1858 4509 
Q 2347 4750 2938 4750 
Q 3794 4750 4287 4245 
Q 4781 3741 4781 2869 
Q 4781 1928 4265 1147 
Q 3750 366 2919 44 
L 3553 -825 
L 2847 -825 
L 2309 -84 
z
M 2919 4238 
Q 2400 4238 2003 3986 
Q 1606 3734 1313 3219 
Q 1125 2891 1026 2522 
Q 928 2153 928 1778 
Q 928 1128 1239 775 
Q 1550 422 2119 422 
Q 2631 422 3032 676 
Q 3434 931 3719 1434 
Q 3909 1772 4009 2142 
Q 4109 2513 4109 2881 
Q 4109 3528 3796 3883 
Q 3484 4238 2919 4238 
z
" transform="scale(0.015625)"/>
       <path id="DejaVuSans-Oblique-65" d="M 3078 2063 
Q 3088 2113 3092 2166 
Q 3097 2219 3097 2272 
Q 3097 2653 2873 2875 
Q 2650 3097 2266 3097 
Q 1838 3097 1509 2826 
Q 1181 2556 1013 2059 
L 3078 2063 
z
M 3578 1613 
L 903 1613 
Q 884 1494 878 1425 
Q 872 1356 872 1306 
Q 872 872 1139 634 
Q 1406 397 1894 397 
Q 2269 397 2603 481 
Q 2938 566 3225 728 
L 3116 159 
Q 2806 34 2476 -28 
Q 2147 -91 1806 -91 
Q 1078 -91 686 257 
Q 294 606 294 1247 
Q 294 1794 489 2264 
Q 684 2734 1063 3103 
Q 1306 3334 1642 3459 
Q 1978 3584 2356 3584 
Q 2950 3584 3301 3228 
Q 3653 2872 3653 2272 
Q 3653 2128 3634 1964 
Q 3616 1800 3578 1613 
z
" transform="scale(0.015625)"/>
       <path id="DejaVuSans-Oblique-78" d="M 3841 3500 
L 2234 1784 
L 3219 0 
L 2559 0 
L 1819 1388 
L 531 0 
L -166 0 
L 1556 1844 
L 641 3500 
L 1300 3500 
L 1972 2234 
L 3144 3500 
L 3841 3500 
z
" transform="scale(0.015625)"/>
       <path id="DejaVuSans-Oblique-74" d="M 2706 3500 
L 2619 3053 
L 1472 3053 
L 1100 1153 
Q 1081 1047 1072 975 
Q 1063 903 1063 863 
Q 1063 663 1183 572 
Q 1303 481 1569 481 
L 2150 481 
L 2053 0 
L 1503 0 
Q 991 0 739 200 
Q 488 400 488 806 
Q 488 878 497 964 
Q 506 1050 525 1153 
L 897 3053 
L 409 3053 
L 500 3500 
L 978 3500 
L 1172 4494 
L 1747 4494 
L 1556 3500 
L 2706 3500 
z
" transform="scale(0.015625)"/>
       <path id="DejaVuSansDisplay-2013" d="M 313 1978 
L 2888 1978 
L 2888 1528 
L 313 1528 
L 313 1978 
z
" transform="scale(0.015625)"/>
      </defs>
      <use xlink:href="#DejaVuSans-45" transform="translate(0 0.015625)"/>
      <use xlink:href="#DejaVuSans-78" transform="translate(63.183594 0.015625)"/>
      <use xlink:href="#DejaVuSans-74" transform="translate(122.363281 0.015625)"/>
      <use xlink:href="#DejaVuSans-69" transform="translate(161.572266 0.015625)"/>
      <use xlink:href="#DejaVuSans-6e" transform="translate(189.355469 0.015625)"/>
      <use xlink:href="#DejaVuSans-63" transform="translate(252.734375 0.015625)"/>
      <use xlink:href="#DejaVuSans-74" transform="translate(307.714844 0.015625)"/>
      <use xlink:href="#DejaVuSans-69" transform="translate(346.923828 0.015625)"/>
      <use xlink:href="#DejaVuSans-6f" transform="translate(374.707031 0.015625)"/>
      <use xlink:href="#DejaVuSans-6e" transform="translate(435.888672 0.015625)"/>
      <use xlink:href="#DejaVuSans-20" transform="translate(499.267578 0.015625)"/>
      <use xlink:href="#DejaVuSans-45" transform="translate(531.054688 0.015625)"/>
      <use xlink:href="#DejaVuSans-66" transform="translate(594.238281 0.015625)"/>
      <use xlink:href="#DejaVuSans-66" transform="translate(629.443359 0.015625)"/>
      <use xlink:href="#DejaVuSans-69" transform="translate(664.648438 0.015625)"/>
      <use xlink:href="#DejaVuSans-63" transform="translate(692.431641 0.015625)"/>
      <use xlink:href="#DejaVuSans-69" transform="translate(747.412109 0.015625)"/>
      <use xlink:href="#DejaVuSans-65" transform="translate(775.195312 0.015625)"/>
      <use xlink:href="#DejaVuSans-6e" transform="translate(836.71875 0.015625)"/>
      <use xlink:href="#DejaVuSans-63" transform="translate(900.097656 0.015625)"/>
      <use xlink:href="#DejaVuSans-79" transform="translate(955.078125 0.015625)"/>
      <use xlink:href="#DejaVuSans-20" transform="translate(1014.257812 0.015625)"/>
      <use xlink:href="#DejaVuSans-Oblique-51" transform="translate(1046.044922 0.015625)"/>
      <use xlink:href="#DejaVuSans-Oblique-65" transform="translate(1124.755859 -16.390625) scale(0.7)"/>
      <use xlink:href="#DejaVuSans-Oblique-78" transform="translate(1167.822266 -16.390625) scale(0.7)"/>
      <use xlink:href="#DejaVuSans-Oblique-74" transform="translate(1209.248047 -16.390625) scale(0.7)"/>
      <use xlink:href="#DejaVuSans-20" transform="translate(1239.428711 0.015625)"/>
      <use xlink:href="#DejaVuSans-5b" transform="translate(1271.21582 0.015625)"/>
      <use xlink:href="#DejaVuSansDisplay-2013" transform="translate(1310.229492 0.015625)"/>
      <use xlink:href="#DejaVuSans-5d" transform="translate(1360.229492 0.015625)"/>
     </g>
    </g>
   </g>
   <g id="line2d_12">
    <path d="M 92.290909 277.02 
L 93.103358 276.923455 
L 93.509582 276.711371 
L 93.915807 276.263336 
L 94.322031 275.450848 
L 94.728256 274.128021 
L 95.13448 272.149628 
L 95.540704 269.400284 
L 96.353153 261.481004 
L 97.165602 250.924557 
L 97.978051 237.853998 
L 98.7905 219.050636 
L 100.009173 183.454058 
L 100.821622 169.046879 
L 101.63407 155.364755 
L 102.446519 131.740045 
L 103.258968 107.880473 
L 103.665192 101.958519 
L 104.883866 93.273439 
L 105.29009 85.910842 
L 106.102539 64.824585 
L 106.508763 59.293171 
L 106.914988 59.330443 
L 107.727437 65.420574 
L 108.133661 66.182375 
L 108.539885 62.737153 
L 109.352334 50.22 
L 109.758559 51.607526 
L 110.571007 66.764851 
L 110.977232 74.131107 
L 111.383456 78.325435 
L 111.789681 77.336151 
L 112.195905 72.666323 
L 112.602129 72.421862 
L 113.008354 80.19147 
L 114.227027 111.493157 
L 114.633251 116.594498 
L 115.039476 115.208934 
L 115.4457 111.027917 
L 115.851925 115.129756 
L 117.476822 155.797356 
L 117.883047 158.848901 
L 118.695495 149.660162 
L 119.507944 165.362396 
L 120.320393 180.860186 
L 120.726618 186.204169 
L 121.132842 184.829805 
L 121.539066 174.413749 
L 121.945291 172.91559 
L 122.351515 178.957296 
L 123.163964 185.236644 
L 123.570188 190.013957 
L 123.976413 191.869188 
L 124.382637 184.530991 
L 124.788862 171.495427 
L 125.195086 175.469595 
L 125.60131 175.629321 
L 126.007535 172.306656 
L 126.413759 173.751715 
L 126.819984 176.802338 
L 127.226208 175.210528 
L 127.632432 161.188108 
L 128.038657 156.109528 
L 128.444881 160.56163 
L 129.25733 148.239199 
L 130.069779 153.109033 
L 130.476003 148.038457 
L 130.882228 131.421431 
L 131.288452 140.718319 
L 131.694676 139.386576 
L 132.100901 128.395697 
L 132.507125 127.078094 
L 132.91335 132.232317 
L 133.319574 133.555743 
L 133.725799 122.909532 
L 134.132023 122.606252 
L 134.538247 131.271059 
L 134.944472 125.316753 
L 135.350696 115.134903 
L 136.163145 127.535988 
L 136.569369 127.373614 
L 136.975594 113.172365 
L 137.381818 131.405635 
L 137.788043 133.898275 
L 138.194267 124.381481 
L 138.600491 123.341952 
L 139.006716 133.443137 
L 139.41294 137.840389 
L 139.819165 130.759487 
L 140.631613 148.201141 
L 141.037838 147.218992 
L 141.444062 134.646001 
L 141.850287 146.61122 
L 142.256511 153.241828 
L 142.662735 155.301037 
L 143.06896 149.129462 
L 143.475184 164.416149 
L 143.881409 167.237591 
L 144.287633 160.4511 
L 144.693857 158.32387 
L 145.100082 167.305301 
L 145.506306 170.555318 
L 145.912531 158.565674 
L 146.318755 176.301266 
L 146.72498 179.793316 
L 147.131204 178.754799 
L 147.537428 162.14949 
L 147.943653 174.396182 
L 148.349877 176.032138 
L 148.756102 175.472929 
L 149.162326 178.05625 
L 149.56855 181.890353 
L 149.974775 181.916219 
L 150.380999 173.918028 
L 150.787224 171.89828 
L 151.193448 171.902983 
L 151.599672 171.07454 
L 152.005897 166.540724 
L 152.412121 173.503991 
L 152.818346 173.761928 
L 153.22457 171.187846 
L 153.630794 157.566159 
L 154.037019 161.849795 
L 154.443243 158.586699 
L 154.849468 145.452157 
L 155.255692 159.029405 
L 155.661916 159.732085 
L 156.068141 159.051414 
L 156.474365 147.733504 
L 156.88059 151.118196 
L 157.286814 146.098614 
L 157.693038 143.591914 
L 158.505487 146.81903 
L 158.911712 147.557078 
L 159.317936 146.320448 
L 159.724161 143.912122 
L 160.536609 136.685042 
L 160.942834 137.787611 
L 161.755283 142.734646 
L 162.161507 144.162983 
L 162.567731 141.086322 
L 162.973956 142.607333 
L 163.38018 138.359877 
L 163.786405 138.097769 
L 164.598853 146.101542 
L 165.005078 149.017513 
L 165.411302 143.571705 
L 165.817527 151.98776 
L 166.223751 149.0935 
L 166.629975 135.803956 
L 167.0362 151.022966 
L 167.848649 158.568793 
L 168.661097 163.7543 
L 169.067322 163.505053 
L 169.473546 158.985073 
L 169.879771 161.006287 
L 170.692219 167.630564 
L 171.504668 173.115777 
L 171.910893 174.230087 
L 172.723342 167.671515 
L 173.129566 171.101759 
L 173.53579 172.306298 
L 174.348239 176.011323 
L 174.754464 177.302125 
L 175.160688 176.333819 
L 175.566912 169.978169 
L 176.379361 171.713139 
L 176.785586 170.661448 
L 177.19181 168.686976 
L 177.598034 172.568656 
L 178.004259 172.165298 
L 178.410483 168.666209 
L 178.816708 162.768018 
L 179.222932 166.091304 
L 179.629156 163.511982 
L 180.035381 161.904006 
L 180.441605 162.976994 
L 180.84783 162.633999 
L 181.254054 161.30825 
L 181.660278 154.516223 
L 182.066503 156.235796 
L 182.472727 156.68703 
L 182.878952 152.359083 
L 183.6914 153.346575 
L 184.097625 152.687486 
L 184.503849 150.759348 
L 184.910074 145.286124 
L 185.316298 151.27793 
L 186.128747 145.990442 
L 186.534971 148.453743 
L 186.941196 148.523973 
L 187.34742 148.725516 
L 187.753645 143.848808 
L 188.159869 148.872452 
L 188.566093 151.294477 
L 188.972318 147.086278 
L 189.378542 148.780528 
L 189.784767 150.990233 
L 190.190991 151.577106 
L 190.597215 151.916131 
L 191.00344 149.10408 
L 191.409664 156.9446 
L 191.815889 156.965662 
L 192.222113 152.776348 
L 192.628337 157.836258 
L 193.034562 158.760918 
L 193.440786 159.972322 
L 193.847011 156.339034 
L 194.253235 164.098705 
L 194.659459 166.927071 
L 195.065684 163.821171 
L 195.471908 164.669484 
L 195.878133 166.990173 
L 196.284357 167.225831 
L 196.690581 168.226249 
L 197.096806 168.295217 
L 197.50303 173.691041 
L 197.909255 174.048528 
L 198.315479 167.2764 
L 198.721704 172.515351 
L 199.127928 171.409446 
L 199.534152 171.5603 
L 199.940377 165.707899 
L 200.346601 175.089581 
L 200.752826 176.363903 
L 201.15905 173.434035 
L 201.565274 171.921099 
L 201.971499 171.490178 
L 202.377723 169.255394 
L 202.783948 168.960304 
L 203.190172 170.102565 
L 203.596396 172.236971 
L 204.002621 171.750195 
L 204.408845 163.005274 
L 204.81507 167.646615 
L 205.221294 163.823508 
L 205.627518 162.311466 
L 206.033743 157.914338 
L 206.439967 164.242254 
L 206.846192 164.627598 
L 207.252416 162.21436 
L 207.65864 160.781546 
L 208.064865 158.401441 
L 208.471089 154.884186 
L 208.877314 153.781293 
L 209.283538 156.147384 
L 209.689762 157.394956 
L 210.095987 157.383157 
L 210.502211 150.106781 
L 210.908436 154.968717 
L 211.31466 151.070034 
L 211.720885 150.126635 
L 212.127109 151.234505 
L 212.533333 153.518238 
L 212.939558 154.85715 
L 213.345782 153.906804 
L 213.752007 154.613228 
L 214.158231 152.918469 
L 214.564455 150.269011 
L 214.97068 144.684265 
L 215.376904 154.369227 
L 215.783129 156.71217 
L 216.189353 158.100925 
L 216.595577 156.97897 
L 217.001802 158.700136 
L 217.408026 155.90095 
L 217.814251 156.296526 
L 219.032924 164.057138 
L 219.439148 162.933858 
L 219.845373 165.771108 
L 220.251597 164.888672 
L 220.657821 162.315641 
L 221.064046 165.136431 
L 221.47027 167.025674 
L 221.876495 169.476931 
L 222.282719 171.141048 
L 222.688943 171.563651 
L 223.095168 171.696814 
L 223.907617 166.503536 
L 224.313841 170.870125 
L 224.720066 171.724304 
L 225.12629 173.657597 
L 225.532514 172.243777 
L 225.938739 173.754707 
L 226.344963 172.502832 
L 226.751188 168.462477 
L 227.157412 171.319258 
L 227.563636 170.517088 
L 228.376085 171.731135 
L 228.78231 171.169003 
L 229.188534 170.194588 
L 229.594758 166.772927 
L 230.000983 166.735471 
L 230.407207 167.304794 
L 230.813432 165.298632 
L 231.219656 166.298899 
L 231.62588 165.733659 
L 232.438329 163.03566 
L 232.844554 158.395257 
L 233.250778 162.266067 
L 233.657002 160.198717 
L 234.063227 159.300441 
L 234.469451 159.849572 
L 235.2819 157.780346 
L 235.688124 155.060516 
L 236.500573 157.838906 
L 236.906798 154.713214 
L 237.313022 156.277644 
L 237.719247 156.380614 
L 238.125471 155.23 
L 238.531695 155.057013 
L 238.93792 151.393017 
L 239.344144 157.398602 
L 239.750369 156.706889 
L 240.156593 155.191829 
L 240.562817 157.812955 
L 240.969042 157.091333 
L 241.375266 157.009274 
L 241.781491 156.351596 
L 242.593939 161.712082 
L 243.000164 159.045198 
L 243.406388 161.471936 
L 243.812613 162.435418 
L 244.218837 161.748589 
L 244.625061 162.670176 
L 245.031286 160.324351 
L 245.43751 167.049872 
L 245.843735 167.527725 
L 246.249959 163.626518 
L 246.656183 168.369589 
L 247.062408 167.479626 
L 247.468632 165.901946 
L 247.874857 167.398495 
L 248.281081 170.828117 
L 248.687305 172.928268 
L 249.09353 170.554356 
L 249.499754 171.569943 
L 249.905979 171.79676 
L 250.312203 170.046083 
L 250.718428 170.591207 
L 251.124652 169.576038 
L 251.530876 174.059884 
L 251.937101 174.234282 
L 252.343325 169.224798 
L 252.74955 172.529646 
L 253.155774 170.09127 
L 253.968223 167.696366 
L 254.374447 170.881558 
L 254.780672 171.880316 
L 255.186896 169.719067 
L 255.59312 168.999119 
L 255.999345 167.850809 
L 256.405569 164.596094 
L 256.811794 164.370301 
L 257.218018 164.508938 
L 257.624242 166.404823 
L 258.030467 166.348613 
L 258.436691 160.552429 
L 258.842916 163.849154 
L 259.24914 160.805331 
L 259.655364 158.956448 
L 260.061589 155.659742 
L 260.467813 160.724973 
L 260.874038 161.635813 
L 261.280262 160.397286 
L 261.686486 159.864847 
L 262.092711 158.731518 
L 262.498935 155.718011 
L 262.90516 156.201774 
L 263.311384 157.339289 
L 263.717609 158.990362 
L 264.123833 159.729071 
L 264.530057 155.417728 
L 264.936282 158.951672 
L 265.342506 157.041962 
L 265.748731 156.112931 
L 266.154955 156.139355 
L 266.561179 159.510613 
L 266.967404 161.337248 
L 267.373628 161.271543 
L 267.779853 161.62302 
L 268.186077 161.476033 
L 268.592301 159.161657 
L 270.217199 166.415594 
L 270.623423 165.16868 
L 271.029648 166.58667 
L 271.435872 165.514638 
L 271.842097 164.990075 
L 272.248321 167.183312 
L 272.654545 168.423665 
L 273.06077 170.519374 
L 273.466994 170.512301 
L 273.873219 170.850677 
L 274.279443 170.619503 
L 275.091892 165.211734 
L 275.498116 170.847243 
L 276.310565 173.256797 
L 276.71679 172.561992 
L 277.123014 172.09046 
L 277.935463 169.548911 
L 278.341687 171.38035 
L 278.747912 170.448293 
L 279.154136 171.700527 
L 279.56036 168.472921 
L 279.966585 170.203828 
L 280.372809 169.408552 
L 280.779034 166.126689 
L 281.185258 168.602281 
L 281.591482 167.72572 
L 281.997707 167.124698 
L 282.403931 167.812425 
L 283.622604 164.026122 
L 284.028829 160.916372 
L 284.435053 164.63756 
L 284.841278 162.224668 
L 285.247502 163.151323 
L 285.653726 162.598905 
L 286.059951 160.988015 
L 286.466175 160.366404 
L 286.8724 157.525445 
L 287.278624 161.107813 
L 287.684848 160.726286 
L 288.091073 159.177341 
L 288.497297 160.577955 
L 289.309746 158.414459 
L 289.715971 158.43543 
L 290.122195 158.203267 
L 290.528419 161.204975 
L 290.934644 159.191305 
L 291.340868 160.587053 
L 291.747093 161.145815 
L 292.153317 159.803808 
L 292.559541 160.051677 
L 292.965766 157.245988 
L 293.37199 163.058138 
L 293.778215 163.938081 
L 294.184439 161.834254 
L 294.590663 164.578357 
L 295.403112 163.432245 
L 296.215561 165.403244 
L 296.621785 168.419233 
L 297.02801 167.261763 
L 297.840459 168.970438 
L 298.246683 167.538611 
L 298.652907 168.044877 
L 299.059132 166.121106 
L 299.465356 171.473455 
L 299.871581 172.442374 
L 300.277805 169.069353 
L 300.684029 172.047708 
L 301.496478 169.599905 
L 301.902703 170.494639 
L 302.308927 171.66794 
L 302.715152 173.532283 
L 303.5276 171.736083 
L 303.933825 171.75396 
L 304.340049 169.259427 
L 304.746274 169.014221 
L 305.152498 165.919347 
L 305.558722 171.186014 
L 305.964947 171.59999 
L 306.371171 167.046282 
L 306.777396 169.559507 
L 307.589844 165.337679 
L 307.996069 165.740882 
L 308.808518 167.619226 
L 309.214742 166.815126 
L 309.620966 165.375296 
L 310.027191 164.88302 
L 310.433415 162.073987 
L 310.83964 161.653963 
L 311.245864 160.325383 
L 311.652088 163.327503 
L 312.058313 163.847655 
L 312.464537 159.372683 
L 312.870762 162.19217 
L 313.276986 160.869527 
L 313.68321 158.689989 
L 314.495659 160.782219 
L 314.901884 162.038149 
L 315.308108 160.997859 
L 315.714333 161.233775 
L 316.120557 161.183798 
L 316.526781 159.330742 
L 316.933006 159.886049 
L 317.33923 160.845322 
L 318.151679 163.794469 
L 318.557903 159.779181 
L 318.964128 163.380265 
L 319.370352 163.110921 
L 319.776577 161.573392 
L 320.99525 166.773575 
L 321.401474 167.379775 
L 321.807699 166.993245 
L 322.213923 167.117443 
L 322.620147 165.982778 
L 323.838821 169.521284 
L 324.245045 171.026338 
L 324.651269 168.278317 
L 325.057494 170.311424 
L 325.463718 170.217048 
L 325.869943 168.378492 
L 326.276167 169.962564 
L 326.682391 170.944097 
L 327.088616 172.342325 
L 327.49484 172.660353 
L 327.901065 171.711055 
L 328.307289 171.231917 
L 328.713514 170.035689 
L 329.525962 171.250802 
L 329.932187 170.816689 
L 330.338411 171.829748 
L 331.15086 169.563758 
L 331.557084 169.177102 
L 331.963309 166.708228 
L 332.369533 169.474934 
L 332.775758 167.958203 
L 333.181982 168.432852 
L 333.588206 168.163271 
L 333.994431 166.573667 
L 334.80688 164.703349 
L 335.213104 164.720947 
L 335.619328 165.823833 
L 336.025553 164.027614 
L 336.431777 165.073434 
L 336.838002 163.930127 
L 337.244226 162.232889 
L 337.65045 162.179132 
L 338.056675 159.95365 
L 338.462899 163.556232 
L 338.869124 162.208205 
L 339.275348 162.392647 
L 339.681572 160.643273 
L 340.087797 161.119499 
L 340.494021 160.50398 
L 340.900246 160.580725 
L 341.712695 163.301045 
L 342.118919 161.203837 
L 342.525143 163.266271 
L 342.931368 162.817346 
L 343.337592 161.422553 
L 343.743817 162.176472 
L 344.150041 160.762565 
L 344.556265 165.201899 
L 344.96249 164.937046 
L 345.368714 164.857958 
L 345.774939 166.001174 
L 346.181163 164.917053 
L 346.587387 164.695622 
L 346.993612 165.598735 
L 347.806061 169.192942 
L 348.212285 166.842694 
L 348.618509 169.247112 
L 349.024734 169.115252 
L 349.430958 167.686193 
L 349.837183 168.702453 
L 350.243407 168.014588 
L 350.649631 171.829481 
L 351.055856 171.89397 
L 351.46208 170.757722 
L 351.868305 171.725739 
L 352.274529 170.348751 
L 352.680753 169.684576 
L 353.086978 170.435802 
L 353.493202 172.202226 
L 353.899427 173.188008 
L 354.305651 170.448334 
L 354.711876 171.855022 
L 355.1181 171.12748 
L 355.524324 168.909468 
L 355.930549 169.464329 
L 356.336773 169.299054 
L 356.742998 171.406283 
L 357.149222 171.2165 
L 357.555446 169.130976 
L 357.961671 169.409528 
L 358.77412 166.218936 
L 359.180344 166.451405 
L 359.586568 167.785473 
L 359.992793 168.353214 
L 360.399017 165.923066 
L 360.805242 166.391583 
L 361.211466 165.504098 
L 361.61769 163.043096 
L 362.023915 163.538481 
L 362.430139 163.830872 
L 362.836364 165.048939 
L 363.242588 165.06689 
L 363.648812 163.173755 
L 364.055037 163.374397 
L 364.867486 161.094365 
L 365.27371 161.192278 
L 365.679934 163.015645 
L 366.086159 163.970597 
L 366.492383 162.503208 
L 366.898608 162.819862 
L 367.304832 162.652762 
L 367.711057 160.990623 
L 368.117281 162.482241 
L 368.523505 163.144655 
L 368.92973 164.561801 
L 369.335954 165.23422 
L 369.742179 164.17479 
L 370.148403 164.387402 
L 370.554627 164.288475 
L 370.960852 163.82441 
L 371.367076 162.548807 
L 371.773301 166.469252 
L 372.179525 167.962786 
L 372.585749 167.121378 
L 373.398198 167.563105 
L 373.804423 166.424076 
L 374.210647 168.563482 
L 374.616871 169.018669 
L 375.023096 170.30912 
L 375.42932 171.172242 
L 375.835545 170.338378 
L 376.241769 169.976164 
L 376.647993 170.125069 
L 377.054218 169.528909 
L 377.460442 171.253282 
L 377.866667 171.148602 
L 378.272891 172.474752 
L 378.679115 171.03891 
L 379.491564 170.835704 
L 379.897789 169.544126 
L 380.304013 171.410202 
L 380.710238 171.030367 
L 381.116462 171.236101 
L 381.522686 171.684053 
L 382.335135 169.197156 
L 382.74136 166.433019 
L 383.553808 169.905463 
L 383.960033 168.220999 
L 384.366257 169.11965 
L 384.772482 165.485994 
L 385.178706 166.615006 
L 385.58493 166.182562 
L 386.397379 164.059703 
L 386.803604 166.415225 
L 387.209828 165.574265 
L 387.616052 166.015592 
L 388.428501 163.173712 
L 388.834726 163.537281 
L 389.24095 163.097761 
L 389.647174 165.089351 
L 390.053399 163.116173 
L 390.459623 164.211722 
L 390.865848 163.77244 
L 391.272072 162.215126 
L 391.678296 162.120351 
L 392.084521 161.748446 
L 392.490745 164.272712 
L 392.89697 164.570108 
L 393.303194 163.391171 
L 393.709419 164.586023 
L 394.115643 163.862731 
L 394.521867 162.715575 
L 394.928092 163.777122 
L 395.334316 164.246018 
L 395.740541 166.584435 
L 396.146765 165.251381 
L 396.552989 166.464649 
L 396.959214 166.743455 
L 397.365438 165.530049 
L 397.771663 165.836705 
L 398.177887 165.993923 
L 398.584111 168.855891 
L 398.990336 169.61931 
L 399.39656 167.927234 
L 399.802785 169.188853 
L 400.209009 169.189088 
L 400.615233 168.035378 
L 401.833907 172.048705 
L 402.240131 171.070148 
L 402.646355 171.317266 
L 403.05258 171.371333 
L 403.458804 170.041533 
L 403.865029 170.056682 
L 404.271253 169.758738 
L 404.677477 172.43097 
L 405.083702 172.891334 
L 405.489926 170.183128 
L 405.896151 171.44002 
L 406.302375 170.739373 
L 406.7086 168.992713 
L 407.927273 171.543225 
L 408.739722 169.737679 
L 409.145946 169.192656 
L 409.55217 167.634399 
L 409.958395 167.203071 
L 410.364619 165.617969 
L 410.770844 168.529646 
L 411.177068 168.785043 
L 411.583292 165.570002 
L 411.989517 166.650269 
L 412.395741 165.962772 
L 412.801966 164.052802 
L 413.20819 164.99822 
L 413.614414 165.328397 
L 414.020639 166.17127 
L 414.426863 165.662643 
L 414.833088 164.596867 
L 415.239312 164.152218 
L 415.645536 163.221138 
L 416.051761 163.14707 
L 416.457985 161.59645 
L 416.86421 164.552844 
L 417.270434 165.180573 
L 417.676658 162.379134 
L 418.082883 163.70571 
L 418.489107 163.756606 
L 418.895332 162.459554 
L 419.301556 164.288363 
L 419.707781 164.640666 
L 420.114005 165.892738 
L 420.520229 166.009218 
L 420.926454 165.253122 
L 421.332678 165.149504 
L 421.738903 165.184678 
L 422.551351 166.486396 
L 423.3638 168.64885 
L 423.770025 166.776826 
L 424.176249 167.546828 
L 424.582473 168.008622 
L 424.988698 167.037832 
L 425.394922 169.519958 
L 425.801147 169.462694 
L 426.207371 170.778506 
L 426.613595 171.072807 
L 427.01982 170.20952 
L 427.426044 169.846478 
L 427.832269 170.134302 
L 428.238493 170.712984 
L 428.644717 171.509363 
L 429.050942 171.399512 
L 429.457166 172.351803 
L 430.269615 170.525293 
L 430.675839 170.704711 
L 431.082064 169.367194 
L 431.488288 171.541457 
L 431.894513 170.827073 
L 432.300737 171.434391 
L 432.706962 171.326794 
L 433.51941 169.125478 
L 434.331859 169.59723 
L 434.738084 170.126636 
L 435.144308 168.689684 
L 435.550532 169.328189 
L 435.956757 168.393546 
L 436.362981 166.747509 
L 436.769206 166.773922 
L 437.17543 165.285598 
L 437.581654 167.823447 
L 437.987879 166.687322 
L 438.394103 166.637476 
L 438.800328 166.386391 
L 439.612776 164.079467 
L 440.425225 165.243407 
L 440.83145 166.081398 
L 441.237674 164.137608 
L 441.643898 165.170898 
L 442.050123 164.643027 
L 442.456347 163.102293 
L 442.862572 163.494658 
L 443.268796 162.36973 
L 443.67502 165.697904 
L 444.081245 165.272608 
L 445.299918 164.62454 
L 445.706143 163.913172 
L 446.518591 166.133443 
L 446.924816 167.508772 
L 447.33104 165.58385 
L 447.737265 167.175431 
L 448.143489 167.199217 
L 448.549713 166.100712 
L 448.955938 166.887251 
L 449.362162 165.885505 
L 449.768387 169.594269 
L 450.174611 169.77512 
L 450.580835 169.154097 
L 450.98706 169.525301 
L 451.393284 169.261729 
L 451.799509 168.621463 
L 453.018182 172.117058 
L 453.424406 170.016931 
L 453.830631 171.212886 
L 454.236855 171.07641 
L 454.643079 169.907939 
L 455.049304 170.571477 
L 455.455528 169.363467 
L 455.861753 172.481818 
L 456.267977 172.518353 
L 456.674201 171.189847 
L 457.080426 171.025089 
L 457.48665 170.485002 
L 457.892875 169.393447 
L 458.705324 170.935418 
L 459.111548 171.522745 
L 459.517772 169.421826 
L 459.923997 169.604541 
L 460.330221 169.077739 
L 460.736446 167.700591 
L 461.14267 168.103079 
L 461.548894 167.367958 
L 461.955119 169.016178 
L 462.361343 168.94002 
L 462.767568 167.390421 
L 463.580016 166.379111 
L 463.986241 165.170894 
L 464.392465 165.992865 
L 464.79869 166.311593 
L 465.204914 166.883049 
L 465.611138 165.404048 
L 466.423587 164.8074 
L 466.829812 163.970602 
L 467.236036 164.780164 
L 467.64226 164.654421 
L 468.048485 165.63538 
L 468.454709 165.914887 
L 468.860934 164.878452 
L 469.267158 164.388029 
L 469.673382 164.665131 
L 470.079607 163.996849 
L 470.485831 165.500639 
L 470.892056 165.758256 
L 471.29828 166.725451 
L 471.704505 165.998883 
L 472.110729 165.801263 
L 472.923178 165.823328 
L 473.329402 167.259957 
L 473.735627 167.490516 
L 474.141851 168.358156 
L 474.548075 168.957861 
L 475.360524 167.807943 
L 475.766749 168.48043 
L 476.172973 168.04743 
L 476.579197 169.850486 
L 476.985422 169.88355 
L 477.391646 170.984592 
L 477.797871 170.397016 
L 478.204095 170.030379 
L 478.610319 169.956967 
L 479.016544 170.130674 
L 479.422768 171.472148 
L 480.235217 171.670673 
L 480.641441 172.079945 
L 481.047666 171.400511 
L 481.45389 170.310281 
L 481.860115 170.784961 
L 482.266339 170.004463 
L 482.672563 171.408709 
L 483.078788 170.723325 
L 483.485012 171.437583 
L 483.891237 170.140562 
L 484.703686 169.280354 
L 485.10991 169.36957 
L 485.516134 170.333692 
L 485.922359 170.142731 
L 486.328583 169.225544 
L 486.734808 169.303382 
L 487.141032 168.456467 
L 487.547256 166.992187 
L 487.953481 167.376966 
L 488.359705 166.51759 
L 488.76593 168.510022 
L 489.172154 166.795511 
L 489.578378 167.221409 
L 489.984603 164.777695 
L 490.390827 165.491082 
L 490.797052 165.001148 
L 491.203276 165.387848 
L 491.6095 166.47223 
L 492.015725 166.694353 
L 492.421949 165.375259 
L 492.828174 165.696955 
L 493.234398 165.187404 
L 493.640622 163.92456 
L 494.046847 164.704291 
L 494.453071 164.382586 
L 494.859296 166.623173 
L 495.26552 165.531827 
L 495.671744 165.985347 
L 496.077969 165.785333 
L 496.484193 165.198951 
L 496.890418 165.063066 
L 497.702867 166.834946 
L 498.109091 168.055507 
L 498.109091 168.055507 
" clip-path="url(#pea9f1ae056)" style="fill: none; stroke: #ff0000; stroke-width: 1.5; stroke-linecap: square"/>
   </g>
   <g id="line2d_13">
    <path d="M 92.290909 275.977529 
L 93.103358 273.659485 
L 93.915807 270.398533 
L 94.728256 265.176011 
L 95.540704 257.095232 
L 96.353153 246.117913 
L 97.571826 225.811137 
L 98.7905 200.198466 
L 99.602948 183.046808 
L 100.821622 163.851432 
L 102.040295 143.161291 
L 102.852744 130.383807 
L 103.665192 122.722828 
L 104.477641 116.576313 
L 105.696314 105.357966 
L 106.102539 103.113861 
L 106.508763 102.235002 
L 106.914988 102.272597 
L 107.321212 102.517887 
L 107.727437 102.384773 
L 108.94611 100.426016 
L 109.352334 101.103284 
L 109.758559 102.859524 
L 110.977232 109.400112 
L 112.195905 112.942513 
L 112.602129 115.063181 
L 114.227027 126.403151 
L 115.851925 133.376211 
L 117.070598 141.032637 
L 117.476822 142.860032 
L 118.289271 145.083894 
L 119.10172 147.435471 
L 120.320393 151.924164 
L 120.726618 152.783848 
L 121.132842 153.197085 
L 121.945291 153.555748 
L 122.351515 153.916779 
L 123.570188 155.35534 
L 123.976413 155.398511 
L 124.382637 155.144213 
L 125.195086 154.337689 
L 125.60131 154.07815 
L 126.819984 153.741022 
L 127.226208 153.406944 
L 128.851106 151.396766 
L 131.288452 149.680518 
L 132.100901 149.139397 
L 132.91335 149.024122 
L 134.132023 148.927719 
L 134.944472 148.870809 
L 135.756921 149.117531 
L 138.600491 150.725909 
L 143.881409 154.879922 
L 145.912531 156.043034 
L 147.131204 156.540258 
L 149.162326 157.055724 
L 150.787224 157.211902 
L 153.22457 157.209415 
L 157.693038 157.073306 
L 160.536609 157.260441 
L 163.38018 157.718172 
L 173.942015 159.769892 
L 177.598034 160.087361 
L 190.190991 160.974506 
L 200.346601 161.867769 
L 211.31466 162.482905 
L 233.657002 163.628572 
L 260.467813 164.638142 
L 289.715971 165.471285 
L 324.651269 166.231479 
L 368.117281 166.947513 
L 423.3638 167.626158 
L 494.046847 168.262147 
L 498.109091 168.293063 
L 498.109091 168.293063 
" clip-path="url(#pea9f1ae056)" style="fill: none; stroke: #0000ff; stroke-width: 1.5; stroke-linecap: square"/>
   </g>
   <g id="patch_3">
    <path d="M 72 288.36 
L 72 38.88 
" style="fill: none; stroke: #000000; stroke-width: 0.8; stroke-linejoin: miter; stroke-linecap: square"/>
   </g>
   <g id="patch_4">
    <path d="M 518.4 288.36 
L 518.4 38.88 
" style="fill: none; stroke: #000000; stroke-width: 0.8; stroke-linejoin: miter; stroke-linecap: square"/>
   </g>
   <g id="patch_5">
    <path d="M 72 288.36 
L 518.4 288.36 
" style="fill: none; stroke: #000000; stroke-width: 0.8; stroke-linejoin: miter; stroke-linecap: square"/>
   </g>
   <g id="patch_6">
    <path d="M 72 38.88 
L 518.4 38.88 
" style="fill: none; stroke: #000000; stroke-width: 0.8; stroke-linejoin: miter; stroke-linecap: square"/>
   </g>
   <g id="text_14">
    <!-- Absorbing and Non-absorbing Spheres -->
    <g transform="translate(179.700938 32.88) scale(0.12 -0.12)">
     <defs>
      <path id="DejaVuSans-41" d="M 2188 4044 
L 1331 1722 
L 3047 1722 
L 2188 4044 
z
M 1831 4666 
L 2547 4666 
L 4325 0 
L 3669 0 
L 3244 1197 
L 1141 1197 
L 716 0 
L 50 0 
L 1831 4666 
z
" transform="scale(0.015625)"/>
      <path id="DejaVuSans-62" d="M 3116 1747 
Q 3116 2381 2855 2742 
Q 2594 3103 2138 3103 
Q 1681 3103 1420 2742 
Q 1159 2381 1159 1747 
Q 1159 1113 1420 752 
Q 1681 391 2138 391 
Q 2594 391 2855 752 
Q 3116 1113 3116 1747 
z
M 1159 2969 
Q 1341 3281 1617 3432 
Q 1894 3584 2278 3584 
Q 2916 3584 3314 3078 
Q 3713 2572 3713 1747 
Q 3713 922 3314 415 
Q 2916 -91 2278 -91 
Q 1894 -91 1617 61 
Q 1341 213 1159 525 
L 1159 0 
L 581 0 
L 581 4863 
L 1159 4863 
L 1159 2969 
z
" transform="scale(0.015625)"/>
      <path id="DejaVuSans-73" d="M 2834 3397 
L 2834 2853 
Q 2591 2978 2328 3040 
Q 2066 3103 1784 3103 
Q 1356 3103 1142 2972 
Q 928 2841 928 2578 
Q 928 2378 1081 2264 
Q 1234 2150 1697 2047 
L 1894 2003 
Q 2506 1872 2764 1633 
Q 3022 1394 3022 966 
Q 3022 478 2636 193 
Q 2250 -91 1575 -91 
Q 1294 -91 989 -36 
Q 684 19 347 128 
L 347 722 
Q 666 556 975 473 
Q 1284 391 1588 391 
Q 1994 391 2212 530 
Q 2431 669 2431 922 
Q 2431 1156 2273 1281 
Q 2116 1406 1581 1522 
L 1381 1569 
Q 847 1681 609 1914 
Q 372 2147 372 2553 
Q 372 3047 722 3315 
Q 1072 3584 1716 3584 
Q 2034 3584 2315 3537 
Q 2597 3491 2834 3397 
z
" transform="scale(0.015625)"/>
      <path id="DejaVuSans-67" d="M 2906 1791 
Q 2906 2416 2648 2759 
Q 2391 3103 1925 3103 
Q 1463 3103 1205 2759 
Q 947 2416 947 1791 
Q 947 1169 1205 825 
Q 1463 481 1925 481 
Q 2391 481 2648 825 
Q 2906 1169 2906 1791 
z
M 3481 434 
Q 3481 -459 3084 -895 
Q 2688 -1331 1869 -1331 
Q 1566 -1331 1297 -1286 
Q 1028 -1241 775 -1147 
L 775 -588 
Q 1028 -725 1275 -790 
Q 1522 -856 1778 -856 
Q 2344 -856 2625 -561 
Q 2906 -266 2906 331 
L 2906 616 
Q 2728 306 2450 153 
Q 2172 0 1784 0 
Q 1141 0 747 490 
Q 353 981 353 1791 
Q 353 2603 747 3093 
Q 1141 3584 1784 3584 
Q 2172 3584 2450 3431 
Q 2728 3278 2906 2969 
L 2906 3500 
L 3481 3500 
L 3481 434 
z
" transform="scale(0.015625)"/>
      <path id="DejaVuSans-64" d="M 2906 2969 
L 2906 4863 
L 3481 4863 
L 3481 0 
L 2906 0 
L 2906 525 
Q 2725 213 2448 61 
Q 2172 -91 1784 -91 
Q 1150 -91 751 415 
Q 353 922 353 1747 
Q 353 2572 751 3078 
Q 1150 3584 1784 3584 
Q 2172 3584 2448 3432 
Q 2725 3281 2906 2969 
z
M 947 1747 
Q 947 1113 1208 752 
Q 1469 391 1925 391 
Q 2381 391 2643 752 
Q 2906 1113 2906 1747 
Q 2906 2381 2643 2742 
Q 2381 3103 1925 3103 
Q 1469 3103 1208 2742 
Q 947 2381 947 1747 
z
" transform="scale(0.015625)"/>
      <path id="DejaVuSans-4e" d="M 628 4666 
L 1478 4666 
L 3547 763 
L 3547 4666 
L 4159 4666 
L 4159 0 
L 3309 0 
L 1241 3903 
L 1241 0 
L 628 0 
L 628 4666 
z
" transform="scale(0.015625)"/>
      <path id="DejaVuSans-2d" d="M 313 2009 
L 1997 2009 
L 1997 1497 
L 313 1497 
L 313 2009 
z
" transform="scale(0.015625)"/>
      <path id="DejaVuSans-70" d="M 1159 525 
L 1159 -1331 
L 581 -1331 
L 581 3500 
L 1159 3500 
L 1159 2969 
Q 1341 3281 1617 3432 
Q 1894 3584 2278 3584 
Q 2916 3584 3314 3078 
Q 3713 2572 3713 1747 
Q 3713 922 3314 415 
Q 2916 -91 2278 -91 
Q 1894 -91 1617 61 
Q 1341 213 1159 525 
z
M 3116 1747 
Q 3116 2381 2855 2742 
Q 2594 3103 2138 3103 
Q 1681 3103 1420 2742 
Q 1159 2381 1159 1747 
Q 1159 1113 1420 752 
Q 1681 391 2138 391 
Q 2594 391 2855 752 
Q 3116 1113 3116 1747 
z
" transform="scale(0.015625)"/>
      <path id="DejaVuSans-68" d="M 3513 2113 
L 3513 0 
L 2938 0 
L 2938 2094 
Q 2938 2591 2744 2837 
Q 2550 3084 2163 3084 
Q 1697 3084 1428 2787 
Q 1159 2491 1159 1978 
L 1159 0 
L 581 0 
L 581 4863 
L 1159 4863 
L 1159 2956 
Q 1366 3272 1645 3428 
Q 1925 3584 2291 3584 
Q 2894 3584 3203 3211 
Q 3513 2838 3513 2113 
z
" transform="scale(0.015625)"/>
     </defs>
     <use xlink:href="#DejaVuSans-41"/>
     <use xlink:href="#DejaVuSans-62" x="68.408203"/>
     <use xlink:href="#DejaVuSans-73" x="131.884766"/>
     <use xlink:href="#DejaVuSans-6f" x="183.984375"/>
     <use xlink:href="#DejaVuSans-72" x="245.166016"/>
     <use xlink:href="#DejaVuSans-62" x="286.279297"/>
     <use xlink:href="#DejaVuSans-69" x="349.755859"/>
     <use xlink:href="#DejaVuSans-6e" x="377.539062"/>
     <use xlink:href="#DejaVuSans-67" x="440.917969"/>
     <use xlink:href="#DejaVuSans-20" x="504.394531"/>
     <use xlink:href="#DejaVuSans-61" x="536.181641"/>
     <use xlink:href="#DejaVuSans-6e" x="597.460938"/>
     <use xlink:href="#DejaVuSans-64" x="660.839844"/>
     <use xlink:href="#DejaVuSans-20" x="724.316406"/>
     <use xlink:href="#DejaVuSans-4e" x="756.103516"/>
     <use xlink:href="#DejaVuSans-6f" x="830.908203"/>
     <use xlink:href="#DejaVuSans-6e" x="892.089844"/>
     <use xlink:href="#DejaVuSans-2d" x="955.46875"/>
     <use xlink:href="#DejaVuSans-61" x="991.552734"/>
     <use xlink:href="#DejaVuSans-62" x="1052.832031"/>
     <use xlink:href="#DejaVuSans-73" x="1116.308594"/>
     <use xlink:href="#DejaVuSans-6f" x="1168.408203"/>
     <use xlink:href="#DejaVuSans-72" x="1229.589844"/>
     <use xlink:href="#DejaVuSans-62" x="1270.703125"/>
     <use xlink:href="#DejaVuSans-69" x="1334.179688"/>
     <use xlink:href="#DejaVuSans-6e" x="1361.962891"/>
     <use xlink:href="#DejaVuSans-67" x="1425.341797"/>
     <use xlink:href="#DejaVuSans-20" x="1488.818359"/>
     <use xlink:href="#DejaVuSans-53" x="1520.605469"/>
     <use xlink:href="#DejaVuSans-70" x="1584.082031"/>
     <use xlink:href="#DejaVuSans-68" x="1647.558594"/>
     <use xlink:href="#DejaVuSans-65" x="1710.9375"/>
     <use xlink:href="#DejaVuSans-72" x="1772.460938"/>
     <use xlink:href="#DejaVuSans-65" x="1811.324219"/>
     <use xlink:href="#DejaVuSans-73" x="1872.847656"/>
    </g>
   </g>
   <g id="legend_1">
    <g id="patch_7">
     <path d="M 413.9 76.258125 
L 511.4 76.258125 
Q 513.4 76.258125 513.4 74.258125 
L 513.4 45.88 
Q 513.4 43.88 511.4 43.88 
L 413.9 43.88 
Q 411.9 43.88 411.9 45.88 
L 411.9 74.258125 
Q 411.9 76.258125 413.9 76.258125 
z
" style="fill: #ffffff; opacity: 0.8; stroke: #cccccc; stroke-linejoin: miter"/>
    </g>
    <g id="line2d_14">
     <path d="M 415.9 51.978437 
L 425.9 51.978437 
L 435.9 51.978437 
" style="fill: none; stroke: #ff0000; stroke-width: 1.5; stroke-linecap: square"/>
    </g>
    <g id="text_15">
     <!-- $n=1.5$ -->
     <g transform="translate(443.9 55.478437) scale(0.1 -0.1)">
      <defs>
       <path id="DejaVuSans-Oblique-6e" d="M 3566 2113 
L 3156 0 
L 2578 0 
L 2988 2091 
Q 3016 2238 3031 2350 
Q 3047 2463 3047 2528 
Q 3047 2791 2881 2937 
Q 2716 3084 2419 3084 
Q 1956 3084 1622 2776 
Q 1288 2469 1184 1941 
L 800 0 
L 225 0 
L 903 3500 
L 1478 3500 
L 1363 2950 
Q 1603 3253 1940 3418 
Q 2278 3584 2650 3584 
Q 3113 3584 3367 3334 
Q 3622 3084 3622 2631 
Q 3622 2519 3608 2391 
Q 3594 2263 3566 2113 
z
" transform="scale(0.015625)"/>
       <path id="DejaVuSans-3d" d="M 678 2906 
L 4684 2906 
L 4684 2381 
L 678 2381 
L 678 2906 
z
M 678 1631 
L 4684 1631 
L 4684 1100 
L 678 1100 
L 678 1631 
z
" transform="scale(0.015625)"/>
       <path id="DejaVuSans-2e" d="M 684 794 
L 1344 794 
L 1344 0 
L 684 0 
L 684 794 
z
" transform="scale(0.015625)"/>
       <path id="DejaVuSans-35" d="M 691 4666 
L 3169 4666 
L 3169 4134 
L 1269 4134 
L 1269 2991 
Q 1406 3038 1543 3061 
Q 1681 3084 1819 3084 
Q 2600 3084 3056 2656 
Q 3513 2228 3513 1497 
Q 3513 744 3044 326 
Q 2575 -91 1722 -91 
Q 1428 -91 1123 -41 
Q 819 9 494 109 
L 494 744 
Q 775 591 1075 516 
Q 1375 441 1709 441 
Q 2250 441 2565 725 
Q 2881 1009 2881 1497 
Q 2881 1984 2565 2268 
Q 2250 2553 1709 2553 
Q 1456 2553 1204 2497 
Q 953 2441 691 2322 
L 691 4666 
z
" transform="scale(0.015625)"/>
      </defs>
      <use xlink:href="#DejaVuSans-Oblique-6e" transform="translate(0 0.09375)"/>
      <use xlink:href="#DejaVuSans-3d" transform="translate(82.861328 0.09375)"/>
      <use xlink:href="#DejaVuSans-31" transform="translate(186.132812 0.09375)"/>
      <use xlink:href="#DejaVuSans-2e" transform="translate(249.755859 0.09375)"/>
      <use xlink:href="#DejaVuSans-35" transform="translate(281.542969 0.09375)"/>
     </g>
    </g>
    <g id="line2d_15">
     <path d="M 415.9 66.658125 
L 425.9 66.658125 
L 435.9 66.658125 
" style="fill: none; stroke: #0000ff; stroke-width: 1.5; stroke-linecap: square"/>
    </g>
    <g id="text_16">
     <!-- $n=1.5-0.1j$ -->
     <g transform="translate(443.9 70.158125) scale(0.1 -0.1)">
      <defs>
       <path id="DejaVuSans-2212" d="M 678 2272 
L 4684 2272 
L 4684 1741 
L 678 1741 
L 678 2272 
z
" transform="scale(0.015625)"/>
       <path id="DejaVuSans-Oblique-6a" d="M 928 3500 
L 1503 3500 
L 813 -63 
L 809 -78 
Q 694 -675 544 -897 
Q 403 -1106 132 -1218 
Q -138 -1331 -506 -1331 
L -722 -1331 
L -628 -844 
L -481 -844 
Q -144 -844 -1 -703 
Q 141 -563 238 -63 
L 928 3500 
z
M 1197 4863 
L 1772 4863 
L 1631 4134 
L 1056 4134 
L 1197 4863 
z
" transform="scale(0.015625)"/>
      </defs>
      <use xlink:href="#DejaVuSans-Oblique-6e" transform="translate(0 0.015625)"/>
      <use xlink:href="#DejaVuSans-3d" transform="translate(82.861328 0.015625)"/>
      <use xlink:href="#DejaVuSans-31" transform="translate(186.132812 0.015625)"/>
      <use xlink:href="#DejaVuSans-2e" transform="translate(249.755859 0.015625)"/>
      <use xlink:href="#DejaVuSans-35" transform="translate(281.542969 0.015625)"/>
      <use xlink:href="#DejaVuSans-2212" transform="translate(364.648438 0.015625)"/>
      <use xlink:href="#DejaVuSans-30" transform="translate(467.919922 0.015625)"/>
      <use xlink:href="#DejaVuSans-2e" transform="translate(531.542969 0.015625)"/>
      <use xlink:href="#DejaVuSans-31" transform="translate(563.330078 0.015625)"/>
      <use xlink:href="#DejaVuSans-Oblique-6a" transform="translate(626.953125 0.015625)"/>
     </g>
    </g>
   </g>
  </g>
 </g>
 <defs>
  <clipPath id="pea9f1ae056">
   <rect x="72" y="38.88" width="446.4" height="249.48"/>
  </clipPath>
 </defs>
</svg>
