<?xml version="1.0" encoding="utf-8" standalone="no"?>
<!DOCTYPE svg PUBLIC "-//W3C//DTD SVG 1.1//EN"
  "http://www.w3.org/Graphics/SVG/1.1/DTD/svg11.dtd">
<svg xmlns:xlink="http://www.w3.org/1999/xlink" width="576pt" height="324pt" viewBox="0 0 576 324" xmlns="http://www.w3.org/2000/svg" version="1.1">
 <metadata>
  <rdf:RDF xmlns:dc="http://purl.org/dc/elements/1.1/" xmlns:cc="http://creativecommons.org/ns#" xmlns:rdf="http://www.w3.org/1999/02/22-rdf-syntax-ns#">
   <cc:Work>
    <dc:type rdf:resource="http://purl.org/dc/dcmitype/StillImage"/>
    <dc:date>2024-05-05T16:16:51.477049</dc:date>
    <dc:format>image/svg+xml</dc:format>
    <dc:creator>
     <cc:Agent>
      <dc:title>Matplotlib v3.8.3, https://matplotlib.org/</dc:title>
     </cc:Agent>
    </dc:creator>
   </cc:Work>
  </rdf:RDF>
 </metadata>
 <defs>
  <style type="text/css">*{stroke-linejoin: round; stroke-linecap: butt}</style>
 </defs>
 <g id="figure_1">
  <g id="patch_1">
   <path d="M 0 324 
L 576 324 
L 576 0 
L 0 0 
z
" style="fill: #ffffff"/>
  </g>
  <g id="axes_1">
   <g id="patch_2">
    <path d="M 72 288.36 
L 518.4 288.36 
L 518.4 38.88 
L 72 38.88 
z
" style="fill: #ffffff"/>
   </g>
   <g id="matplotlib.axis_1">
    <g id="xtick_1">
     <g id="line2d_1">
      <defs>
       <path id="mf4b29350fe" d="M 0 0 
L 0 3.5 
" style="stroke: #000000; stroke-width: 0.8"/>
      </defs>
      <g>
       <use xlink:href="#mf4b29350fe" x="92.290909" y="288.36" style="stroke: #000000; stroke-width: 0.8"/>
      </g>
     </g>
     <g id="text_1">
      <!-- 200 -->
      <g transform="translate(82.747159 302.958438) scale(0.1 -0.1)">
       <defs>
        <path id="DejaVuSans-32" d="M 1228 531 
L 3431 531 
L 3431 0 
L 469 0 
L 469 531 
Q 828 903 1448 1529 
Q 2069 2156 2228 2338 
Q 2531 2678 2651 2914 
Q 2772 3150 2772 3378 
Q 2772 3750 2511 3984 
Q 2250 4219 1831 4219 
Q 1534 4219 1204 4116 
Q 875 4013 500 3803 
L 500 4441 
Q 881 4594 1212 4672 
Q 1544 4750 1819 4750 
Q 2544 4750 2975 4387 
Q 3406 4025 3406 3419 
Q 3406 3131 3298 2873 
Q 3191 2616 2906 2266 
Q 2828 2175 2409 1742 
Q 1991 1309 1228 531 
z
" transform="scale(0.015625)"/>
        <path id="DejaVuSans-30" d="M 2034 4250 
Q 1547 4250 1301 3770 
Q 1056 3291 1056 2328 
Q 1056 1369 1301 889 
Q 1547 409 2034 409 
Q 2525 409 2770 889 
Q 3016 1369 3016 2328 
Q 3016 3291 2770 3770 
Q 2525 4250 2034 4250 
z
M 2034 4750 
Q 2819 4750 3233 4129 
Q 3647 3509 3647 2328 
Q 3647 1150 3233 529 
Q 2819 -91 2034 -91 
Q 1250 -91 836 529 
Q 422 1150 422 2328 
Q 422 3509 836 4129 
Q 1250 4750 2034 4750 
z
" transform="scale(0.015625)"/>
       </defs>
       <use xlink:href="#DejaVuSans-32"/>
       <use xlink:href="#DejaVuSans-30" x="63.623047"/>
       <use xlink:href="#DejaVuSans-30" x="127.246094"/>
      </g>
     </g>
    </g>
    <g id="xtick_2">
     <g id="line2d_2">
      <g>
       <use xlink:href="#mf4b29350fe" x="173.454545" y="288.36" style="stroke: #000000; stroke-width: 0.8"/>
      </g>
     </g>
     <g id="text_2">
      <!-- 400 -->
      <g transform="translate(163.910795 302.958438) scale(0.1 -0.1)">
       <defs>
        <path id="DejaVuSans-34" d="M 2419 4116 
L 825 1625 
L 2419 1625 
L 2419 4116 
z
M 2253 4666 
L 3047 4666 
L 3047 1625 
L 3713 1625 
L 3713 1100 
L 3047 1100 
L 3047 0 
L 2419 0 
L 2419 1100 
L 313 1100 
L 313 1709 
L 2253 4666 
z
" transform="scale(0.015625)"/>
       </defs>
       <use xlink:href="#DejaVuSans-34"/>
       <use xlink:href="#DejaVuSans-30" x="63.623047"/>
       <use xlink:href="#DejaVuSans-30" x="127.246094"/>
      </g>
     </g>
    </g>
    <g id="xtick_3">
     <g id="line2d_3">
      <g>
       <use xlink:href="#mf4b29350fe" x="254.618182" y="288.36" style="stroke: #000000; stroke-width: 0.8"/>
      </g>
     </g>
     <g id="text_3">
      <!-- 600 -->
      <g transform="translate(245.074432 302.958438) scale(0.1 -0.1)">
       <defs>
        <path id="DejaVuSans-36" d="M 2113 2584 
Q 1688 2584 1439 2293 
Q 1191 2003 1191 1497 
Q 1191 994 1439 701 
Q 1688 409 2113 409 
Q 2538 409 2786 701 
Q 3034 994 3034 1497 
Q 3034 2003 2786 2293 
Q 2538 2584 2113 2584 
z
M 3366 4563 
L 3366 3988 
Q 3128 4100 2886 4159 
Q 2644 4219 2406 4219 
Q 1781 4219 1451 3797 
Q 1122 3375 1075 2522 
Q 1259 2794 1537 2939 
Q 1816 3084 2150 3084 
Q 2853 3084 3261 2657 
Q 3669 2231 3669 1497 
Q 3669 778 3244 343 
Q 2819 -91 2113 -91 
Q 1303 -91 875 529 
Q 447 1150 447 2328 
Q 447 3434 972 4092 
Q 1497 4750 2381 4750 
Q 2619 4750 2861 4703 
Q 3103 4656 3366 4563 
z
" transform="scale(0.015625)"/>
       </defs>
       <use xlink:href="#DejaVuSans-36"/>
       <use xlink:href="#DejaVuSans-30" x="63.623047"/>
       <use xlink:href="#DejaVuSans-30" x="127.246094"/>
      </g>
     </g>
    </g>
    <g id="xtick_4">
     <g id="line2d_4">
      <g>
       <use xlink:href="#mf4b29350fe" x="335.781818" y="288.36" style="stroke: #000000; stroke-width: 0.8"/>
      </g>
     </g>
     <g id="text_4">
      <!-- 800 -->
      <g transform="translate(326.238068 302.958438) scale(0.1 -0.1)">
       <defs>
        <path id="DejaVuSans-38" d="M 2034 2216 
Q 1584 2216 1326 1975 
Q 1069 1734 1069 1313 
Q 1069 891 1326 650 
Q 1584 409 2034 409 
Q 2484 409 2743 651 
Q 3003 894 3003 1313 
Q 3003 1734 2745 1975 
Q 2488 2216 2034 2216 
z
M 1403 2484 
Q 997 2584 770 2862 
Q 544 3141 544 3541 
Q 544 4100 942 4425 
Q 1341 4750 2034 4750 
Q 2731 4750 3128 4425 
Q 3525 4100 3525 3541 
Q 3525 3141 3298 2862 
Q 3072 2584 2669 2484 
Q 3125 2378 3379 2068 
Q 3634 1759 3634 1313 
Q 3634 634 3220 271 
Q 2806 -91 2034 -91 
Q 1263 -91 848 271 
Q 434 634 434 1313 
Q 434 1759 690 2068 
Q 947 2378 1403 2484 
z
M 1172 3481 
Q 1172 3119 1398 2916 
Q 1625 2713 2034 2713 
Q 2441 2713 2670 2916 
Q 2900 3119 2900 3481 
Q 2900 3844 2670 4047 
Q 2441 4250 2034 4250 
Q 1625 4250 1398 4047 
Q 1172 3844 1172 3481 
z
" transform="scale(0.015625)"/>
       </defs>
       <use xlink:href="#DejaVuSans-38"/>
       <use xlink:href="#DejaVuSans-30" x="63.623047"/>
       <use xlink:href="#DejaVuSans-30" x="127.246094"/>
      </g>
     </g>
    </g>
    <g id="xtick_5">
     <g id="line2d_5">
      <g>
       <use xlink:href="#mf4b29350fe" x="416.945455" y="288.36" style="stroke: #000000; stroke-width: 0.8"/>
      </g>
     </g>
     <g id="text_5">
      <!-- 1000 -->
      <g transform="translate(404.220455 302.958438) scale(0.1 -0.1)">
       <defs>
        <path id="DejaVuSans-31" d="M 794 531 
L 1825 531 
L 1825 4091 
L 703 3866 
L 703 4441 
L 1819 4666 
L 2450 4666 
L 2450 531 
L 3481 531 
L 3481 0 
L 794 0 
L 794 531 
z
" transform="scale(0.015625)"/>
       </defs>
       <use xlink:href="#DejaVuSans-31"/>
       <use xlink:href="#DejaVuSans-30" x="63.623047"/>
       <use xlink:href="#DejaVuSans-30" x="127.246094"/>
       <use xlink:href="#DejaVuSans-30" x="190.869141"/>
      </g>
     </g>
    </g>
    <g id="xtick_6">
     <g id="line2d_6">
      <g>
       <use xlink:href="#mf4b29350fe" x="498.109091" y="288.36" style="stroke: #000000; stroke-width: 0.8"/>
      </g>
     </g>
     <g id="text_6">
      <!-- 1200 -->
      <g transform="translate(485.384091 302.958438) scale(0.1 -0.1)">
       <use xlink:href="#DejaVuSans-31"/>
       <use xlink:href="#DejaVuSans-32" x="63.623047"/>
       <use xlink:href="#DejaVuSans-30" x="127.246094"/>
       <use xlink:href="#DejaVuSans-30" x="190.869141"/>
      </g>
     </g>
    </g>
    <g id="text_7">
     <!-- Wavelength [nm] -->
     <g transform="translate(252.007812 316.636563) scale(0.1 -0.1)">
      <defs>
       <path id="DejaVuSans-57" d="M 213 4666 
L 850 4666 
L 1831 722 
L 2809 4666 
L 3519 4666 
L 4500 722 
L 5478 4666 
L 6119 4666 
L 4947 0 
L 4153 0 
L 3169 4050 
L 2175 0 
L 1381 0 
L 213 4666 
z
" transform="scale(0.015625)"/>
       <path id="DejaVuSans-61" d="M 2194 1759 
Q 1497 1759 1228 1600 
Q 959 1441 959 1056 
Q 959 750 1161 570 
Q 1363 391 1709 391 
Q 2188 391 2477 730 
Q 2766 1069 2766 1631 
L 2766 1759 
L 2194 1759 
z
M 3341 1997 
L 3341 0 
L 2766 0 
L 2766 531 
Q 2569 213 2275 61 
Q 1981 -91 1556 -91 
Q 1019 -91 701 211 
Q 384 513 384 1019 
Q 384 1609 779 1909 
Q 1175 2209 1959 2209 
L 2766 2209 
L 2766 2266 
Q 2766 2663 2505 2880 
Q 2244 3097 1772 3097 
Q 1472 3097 1187 3025 
Q 903 2953 641 2809 
L 641 3341 
Q 956 3463 1253 3523 
Q 1550 3584 1831 3584 
Q 2591 3584 2966 3190 
Q 3341 2797 3341 1997 
z
" transform="scale(0.015625)"/>
       <path id="DejaVuSans-76" d="M 191 3500 
L 800 3500 
L 1894 563 
L 2988 3500 
L 3597 3500 
L 2284 0 
L 1503 0 
L 191 3500 
z
" transform="scale(0.015625)"/>
       <path id="DejaVuSans-65" d="M 3597 1894 
L 3597 1613 
L 953 1613 
Q 991 1019 1311 708 
Q 1631 397 2203 397 
Q 2534 397 2845 478 
Q 3156 559 3463 722 
L 3463 178 
Q 3153 47 2828 -22 
Q 2503 -91 2169 -91 
Q 1331 -91 842 396 
Q 353 884 353 1716 
Q 353 2575 817 3079 
Q 1281 3584 2069 3584 
Q 2775 3584 3186 3129 
Q 3597 2675 3597 1894 
z
M 3022 2063 
Q 3016 2534 2758 2815 
Q 2500 3097 2075 3097 
Q 1594 3097 1305 2825 
Q 1016 2553 972 2059 
L 3022 2063 
z
" transform="scale(0.015625)"/>
       <path id="DejaVuSans-6c" d="M 603 4863 
L 1178 4863 
L 1178 0 
L 603 0 
L 603 4863 
z
" transform="scale(0.015625)"/>
       <path id="DejaVuSans-6e" d="M 3513 2113 
L 3513 0 
L 2938 0 
L 2938 2094 
Q 2938 2591 2744 2837 
Q 2550 3084 2163 3084 
Q 1697 3084 1428 2787 
Q 1159 2491 1159 1978 
L 1159 0 
L 581 0 
L 581 3500 
L 1159 3500 
L 1159 2956 
Q 1366 3272 1645 3428 
Q 1925 3584 2291 3584 
Q 2894 3584 3203 3211 
Q 3513 2838 3513 2113 
z
" transform="scale(0.015625)"/>
       <path id="DejaVuSans-67" d="M 2906 1791 
Q 2906 2416 2648 2759 
Q 2391 3103 1925 3103 
Q 1463 3103 1205 2759 
Q 947 2416 947 1791 
Q 947 1169 1205 825 
Q 1463 481 1925 481 
Q 2391 481 2648 825 
Q 2906 1169 2906 1791 
z
M 3481 434 
Q 3481 -459 3084 -895 
Q 2688 -1331 1869 -1331 
Q 1566 -1331 1297 -1286 
Q 1028 -1241 775 -1147 
L 775 -588 
Q 1028 -725 1275 -790 
Q 1522 -856 1778 -856 
Q 2344 -856 2625 -561 
Q 2906 -266 2906 331 
L 2906 616 
Q 2728 306 2450 153 
Q 2172 0 1784 0 
Q 1141 0 747 490 
Q 353 981 353 1791 
Q 353 2603 747 3093 
Q 1141 3584 1784 3584 
Q 2172 3584 2450 3431 
Q 2728 3278 2906 2969 
L 2906 3500 
L 3481 3500 
L 3481 434 
z
" transform="scale(0.015625)"/>
       <path id="DejaVuSans-74" d="M 1172 4494 
L 1172 3500 
L 2356 3500 
L 2356 3053 
L 1172 3053 
L 1172 1153 
Q 1172 725 1289 603 
Q 1406 481 1766 481 
L 2356 481 
L 2356 0 
L 1766 0 
Q 1100 0 847 248 
Q 594 497 594 1153 
L 594 3053 
L 172 3053 
L 172 3500 
L 594 3500 
L 594 4494 
L 1172 4494 
z
" transform="scale(0.015625)"/>
       <path id="DejaVuSans-68" d="M 3513 2113 
L 3513 0 
L 2938 0 
L 2938 2094 
Q 2938 2591 2744 2837 
Q 2550 3084 2163 3084 
Q 1697 3084 1428 2787 
Q 1159 2491 1159 1978 
L 1159 0 
L 581 0 
L 581 4863 
L 1159 4863 
L 1159 2956 
Q 1366 3272 1645 3428 
Q 1925 3584 2291 3584 
Q 2894 3584 3203 3211 
Q 3513 2838 3513 2113 
z
" transform="scale(0.015625)"/>
       <path id="DejaVuSans-20" transform="scale(0.015625)"/>
       <path id="DejaVuSans-5b" d="M 550 4863 
L 1875 4863 
L 1875 4416 
L 1125 4416 
L 1125 -397 
L 1875 -397 
L 1875 -844 
L 550 -844 
L 550 4863 
z
" transform="scale(0.015625)"/>
       <path id="DejaVuSans-6d" d="M 3328 2828 
Q 3544 3216 3844 3400 
Q 4144 3584 4550 3584 
Q 5097 3584 5394 3201 
Q 5691 2819 5691 2113 
L 5691 0 
L 5113 0 
L 5113 2094 
Q 5113 2597 4934 2840 
Q 4756 3084 4391 3084 
Q 3944 3084 3684 2787 
Q 3425 2491 3425 1978 
L 3425 0 
L 2847 0 
L 2847 2094 
Q 2847 2600 2669 2842 
Q 2491 3084 2119 3084 
Q 1678 3084 1418 2786 
Q 1159 2488 1159 1978 
L 1159 0 
L 581 0 
L 581 3500 
L 1159 3500 
L 1159 2956 
Q 1356 3278 1631 3431 
Q 1906 3584 2284 3584 
Q 2666 3584 2933 3390 
Q 3200 3197 3328 2828 
z
" transform="scale(0.015625)"/>
       <path id="DejaVuSans-5d" d="M 1947 4863 
L 1947 -844 
L 622 -844 
L 622 -397 
L 1369 -397 
L 1369 4416 
L 622 4416 
L 622 4863 
L 1947 4863 
z
" transform="scale(0.015625)"/>
      </defs>
      <use xlink:href="#DejaVuSans-57"/>
      <use xlink:href="#DejaVuSans-61" x="92.501953"/>
      <use xlink:href="#DejaVuSans-76" x="153.78125"/>
      <use xlink:href="#DejaVuSans-65" x="212.960938"/>
      <use xlink:href="#DejaVuSans-6c" x="274.484375"/>
      <use xlink:href="#DejaVuSans-65" x="302.267578"/>
      <use xlink:href="#DejaVuSans-6e" x="363.791016"/>
      <use xlink:href="#DejaVuSans-67" x="427.169922"/>
      <use xlink:href="#DejaVuSans-74" x="490.646484"/>
      <use xlink:href="#DejaVuSans-68" x="529.855469"/>
      <use xlink:href="#DejaVuSans-20" x="593.234375"/>
      <use xlink:href="#DejaVuSans-5b" x="625.021484"/>
      <use xlink:href="#DejaVuSans-6e" x="664.035156"/>
      <use xlink:href="#DejaVuSans-6d" x="727.414062"/>
      <use xlink:href="#DejaVuSans-5d" x="824.826172"/>
     </g>
    </g>
   </g>
   <g id="matplotlib.axis_2">
    <g id="ytick_1">
     <g id="line2d_7">
      <defs>
       <path id="mdbef4930e3" d="M 0 0 
L -3.5 0 
" style="stroke: #000000; stroke-width: 0.8"/>
      </defs>
      <g>
       <use xlink:href="#mdbef4930e3" x="72" y="283.273492" style="stroke: #000000; stroke-width: 0.8"/>
      </g>
     </g>
     <g id="text_8">
      <!-- 1.8 -->
      <g transform="translate(49.096875 287.072711) scale(0.1 -0.1)">
       <defs>
        <path id="DejaVuSans-2e" d="M 684 794 
L 1344 794 
L 1344 0 
L 684 0 
L 684 794 
z
" transform="scale(0.015625)"/>
       </defs>
       <use xlink:href="#DejaVuSans-31"/>
       <use xlink:href="#DejaVuSans-2e" x="63.623047"/>
       <use xlink:href="#DejaVuSans-38" x="95.410156"/>
      </g>
     </g>
    </g>
    <g id="ytick_2">
     <g id="line2d_8">
      <g>
       <use xlink:href="#mdbef4930e3" x="72" y="248.820595" style="stroke: #000000; stroke-width: 0.8"/>
      </g>
     </g>
     <g id="text_9">
      <!-- 2.0 -->
      <g transform="translate(49.096875 252.619814) scale(0.1 -0.1)">
       <use xlink:href="#DejaVuSans-32"/>
       <use xlink:href="#DejaVuSans-2e" x="63.623047"/>
       <use xlink:href="#DejaVuSans-30" x="95.410156"/>
      </g>
     </g>
    </g>
    <g id="ytick_3">
     <g id="line2d_9">
      <g>
       <use xlink:href="#mdbef4930e3" x="72" y="214.367698" style="stroke: #000000; stroke-width: 0.8"/>
      </g>
     </g>
     <g id="text_10">
      <!-- 2.2 -->
      <g transform="translate(49.096875 218.166917) scale(0.1 -0.1)">
       <use xlink:href="#DejaVuSans-32"/>
       <use xlink:href="#DejaVuSans-2e" x="63.623047"/>
       <use xlink:href="#DejaVuSans-32" x="95.410156"/>
      </g>
     </g>
    </g>
    <g id="ytick_4">
     <g id="line2d_10">
      <g>
       <use xlink:href="#mdbef4930e3" x="72" y="179.914801" style="stroke: #000000; stroke-width: 0.8"/>
      </g>
     </g>
     <g id="text_11">
      <!-- 2.4 -->
      <g transform="translate(49.096875 183.71402) scale(0.1 -0.1)">
       <use xlink:href="#DejaVuSans-32"/>
       <use xlink:href="#DejaVuSans-2e" x="63.623047"/>
       <use xlink:href="#DejaVuSans-34" x="95.410156"/>
      </g>
     </g>
    </g>
    <g id="ytick_5">
     <g id="line2d_11">
      <g>
       <use xlink:href="#mdbef4930e3" x="72" y="145.461904" style="stroke: #000000; stroke-width: 0.8"/>
      </g>
     </g>
     <g id="text_12">
      <!-- 2.6 -->
      <g transform="translate(49.096875 149.261122) scale(0.1 -0.1)">
       <use xlink:href="#DejaVuSans-32"/>
       <use xlink:href="#DejaVuSans-2e" x="63.623047"/>
       <use xlink:href="#DejaVuSans-36" x="95.410156"/>
      </g>
     </g>
    </g>
    <g id="ytick_6">
     <g id="line2d_12">
      <g>
       <use xlink:href="#mdbef4930e3" x="72" y="111.009006" style="stroke: #000000; stroke-width: 0.8"/>
      </g>
     </g>
     <g id="text_13">
      <!-- 2.8 -->
      <g transform="translate(49.096875 114.808225) scale(0.1 -0.1)">
       <use xlink:href="#DejaVuSans-32"/>
       <use xlink:href="#DejaVuSans-2e" x="63.623047"/>
       <use xlink:href="#DejaVuSans-38" x="95.410156"/>
      </g>
     </g>
    </g>
    <g id="ytick_7">
     <g id="line2d_13">
      <g>
       <use xlink:href="#mdbef4930e3" x="72" y="76.556109" style="stroke: #000000; stroke-width: 0.8"/>
      </g>
     </g>
     <g id="text_14">
      <!-- 3.0 -->
      <g transform="translate(49.096875 80.355328) scale(0.1 -0.1)">
       <defs>
        <path id="DejaVuSans-33" d="M 2597 2516 
Q 3050 2419 3304 2112 
Q 3559 1806 3559 1356 
Q 3559 666 3084 287 
Q 2609 -91 1734 -91 
Q 1441 -91 1130 -33 
Q 819 25 488 141 
L 488 750 
Q 750 597 1062 519 
Q 1375 441 1716 441 
Q 2309 441 2620 675 
Q 2931 909 2931 1356 
Q 2931 1769 2642 2001 
Q 2353 2234 1838 2234 
L 1294 2234 
L 1294 2753 
L 1863 2753 
Q 2328 2753 2575 2939 
Q 2822 3125 2822 3475 
Q 2822 3834 2567 4026 
Q 2313 4219 1838 4219 
Q 1578 4219 1281 4162 
Q 984 4106 628 3988 
L 628 4550 
Q 988 4650 1302 4700 
Q 1616 4750 1894 4750 
Q 2613 4750 3031 4423 
Q 3450 4097 3450 3541 
Q 3450 3153 3228 2886 
Q 3006 2619 2597 2516 
z
" transform="scale(0.015625)"/>
       </defs>
       <use xlink:href="#DejaVuSans-33"/>
       <use xlink:href="#DejaVuSans-2e" x="63.623047"/>
       <use xlink:href="#DejaVuSans-30" x="95.410156"/>
      </g>
     </g>
    </g>
    <g id="ytick_8">
     <g id="line2d_14">
      <g>
       <use xlink:href="#mdbef4930e3" x="72" y="42.103212" style="stroke: #000000; stroke-width: 0.8"/>
      </g>
     </g>
     <g id="text_15">
      <!-- 3.2 -->
      <g transform="translate(49.096875 45.902431) scale(0.1 -0.1)">
       <use xlink:href="#DejaVuSans-33"/>
       <use xlink:href="#DejaVuSans-2e" x="63.623047"/>
       <use xlink:href="#DejaVuSans-32" x="95.410156"/>
      </g>
     </g>
    </g>
    <g id="text_16">
     <!-- Scattering Efficiency [–] -->
     <g transform="translate(43.017187 223.1325) rotate(-90) scale(0.1 -0.1)">
      <defs>
       <path id="DejaVuSans-53" d="M 3425 4513 
L 3425 3897 
Q 3066 4069 2747 4153 
Q 2428 4238 2131 4238 
Q 1616 4238 1336 4038 
Q 1056 3838 1056 3469 
Q 1056 3159 1242 3001 
Q 1428 2844 1947 2747 
L 2328 2669 
Q 3034 2534 3370 2195 
Q 3706 1856 3706 1288 
Q 3706 609 3251 259 
Q 2797 -91 1919 -91 
Q 1588 -91 1214 -16 
Q 841 59 441 206 
L 441 856 
Q 825 641 1194 531 
Q 1563 422 1919 422 
Q 2459 422 2753 634 
Q 3047 847 3047 1241 
Q 3047 1584 2836 1778 
Q 2625 1972 2144 2069 
L 1759 2144 
Q 1053 2284 737 2584 
Q 422 2884 422 3419 
Q 422 4038 858 4394 
Q 1294 4750 2059 4750 
Q 2388 4750 2728 4690 
Q 3069 4631 3425 4513 
z
" transform="scale(0.015625)"/>
       <path id="DejaVuSans-63" d="M 3122 3366 
L 3122 2828 
Q 2878 2963 2633 3030 
Q 2388 3097 2138 3097 
Q 1578 3097 1268 2742 
Q 959 2388 959 1747 
Q 959 1106 1268 751 
Q 1578 397 2138 397 
Q 2388 397 2633 464 
Q 2878 531 3122 666 
L 3122 134 
Q 2881 22 2623 -34 
Q 2366 -91 2075 -91 
Q 1284 -91 818 406 
Q 353 903 353 1747 
Q 353 2603 823 3093 
Q 1294 3584 2113 3584 
Q 2378 3584 2631 3529 
Q 2884 3475 3122 3366 
z
" transform="scale(0.015625)"/>
       <path id="DejaVuSans-72" d="M 2631 2963 
Q 2534 3019 2420 3045 
Q 2306 3072 2169 3072 
Q 1681 3072 1420 2755 
Q 1159 2438 1159 1844 
L 1159 0 
L 581 0 
L 581 3500 
L 1159 3500 
L 1159 2956 
Q 1341 3275 1631 3429 
Q 1922 3584 2338 3584 
Q 2397 3584 2469 3576 
Q 2541 3569 2628 3553 
L 2631 2963 
z
" transform="scale(0.015625)"/>
       <path id="DejaVuSans-69" d="M 603 3500 
L 1178 3500 
L 1178 0 
L 603 0 
L 603 3500 
z
M 603 4863 
L 1178 4863 
L 1178 4134 
L 603 4134 
L 603 4863 
z
" transform="scale(0.015625)"/>
       <path id="DejaVuSans-45" d="M 628 4666 
L 3578 4666 
L 3578 4134 
L 1259 4134 
L 1259 2753 
L 3481 2753 
L 3481 2222 
L 1259 2222 
L 1259 531 
L 3634 531 
L 3634 0 
L 628 0 
L 628 4666 
z
" transform="scale(0.015625)"/>
       <path id="DejaVuSans-66" d="M 2375 4863 
L 2375 4384 
L 1825 4384 
Q 1516 4384 1395 4259 
Q 1275 4134 1275 3809 
L 1275 3500 
L 2222 3500 
L 2222 3053 
L 1275 3053 
L 1275 0 
L 697 0 
L 697 3053 
L 147 3053 
L 147 3500 
L 697 3500 
L 697 3744 
Q 697 4328 969 4595 
Q 1241 4863 1831 4863 
L 2375 4863 
z
" transform="scale(0.015625)"/>
       <path id="DejaVuSans-79" d="M 2059 -325 
Q 1816 -950 1584 -1140 
Q 1353 -1331 966 -1331 
L 506 -1331 
L 506 -850 
L 844 -850 
Q 1081 -850 1212 -737 
Q 1344 -625 1503 -206 
L 1606 56 
L 191 3500 
L 800 3500 
L 1894 763 
L 2988 3500 
L 3597 3500 
L 2059 -325 
z
" transform="scale(0.015625)"/>
       <path id="DejaVuSans-2013" d="M 313 1978 
L 2888 1978 
L 2888 1528 
L 313 1528 
L 313 1978 
z
" transform="scale(0.015625)"/>
      </defs>
      <use xlink:href="#DejaVuSans-53"/>
      <use xlink:href="#DejaVuSans-63" x="63.476562"/>
      <use xlink:href="#DejaVuSans-61" x="118.457031"/>
      <use xlink:href="#DejaVuSans-74" x="179.736328"/>
      <use xlink:href="#DejaVuSans-74" x="218.945312"/>
      <use xlink:href="#DejaVuSans-65" x="258.154297"/>
      <use xlink:href="#DejaVuSans-72" x="319.677734"/>
      <use xlink:href="#DejaVuSans-69" x="360.791016"/>
      <use xlink:href="#DejaVuSans-6e" x="388.574219"/>
      <use xlink:href="#DejaVuSans-67" x="451.953125"/>
      <use xlink:href="#DejaVuSans-20" x="515.429688"/>
      <use xlink:href="#DejaVuSans-45" x="547.216797"/>
      <use xlink:href="#DejaVuSans-66" x="610.400391"/>
      <use xlink:href="#DejaVuSans-66" x="645.605469"/>
      <use xlink:href="#DejaVuSans-69" x="680.810547"/>
      <use xlink:href="#DejaVuSans-63" x="708.59375"/>
      <use xlink:href="#DejaVuSans-69" x="763.574219"/>
      <use xlink:href="#DejaVuSans-65" x="791.357422"/>
      <use xlink:href="#DejaVuSans-6e" x="852.880859"/>
      <use xlink:href="#DejaVuSans-63" x="916.259766"/>
      <use xlink:href="#DejaVuSans-79" x="971.240234"/>
      <use xlink:href="#DejaVuSans-20" x="1030.419922"/>
      <use xlink:href="#DejaVuSans-5b" x="1062.207031"/>
      <use xlink:href="#DejaVuSans-2013" x="1101.220703"/>
      <use xlink:href="#DejaVuSans-5d" x="1151.220703"/>
     </g>
    </g>
   </g>
   <g id="line2d_15">
    <path d="M 92.290909 219.956826 
L 92.697133 214.754755 
L 93.103358 218.783232 
L 93.509582 225.183723 
L 93.915807 235.259716 
L 94.322031 232.080095 
L 95.13448 230.791141 
L 95.540704 218.12684 
L 95.946929 216.575203 
L 96.353153 209.874192 
L 96.759378 206.376991 
L 97.165602 210.16585 
L 97.571826 218.528182 
L 97.978051 224.29352 
L 98.384275 237.155075 
L 98.7905 238.733352 
L 99.196724 247.484568 
L 99.602948 241.677931 
L 100.009173 233.367724 
L 100.415397 231.923858 
L 100.821622 217.592496 
L 101.227846 218.217027 
L 101.63407 211.921565 
L 102.040295 212.685049 
L 102.446519 213.70264 
L 102.852744 212.345583 
L 103.665192 229.241391 
L 104.071417 231.8121 
L 104.477641 240.648181 
L 104.883866 239.972345 
L 105.29009 241.896563 
L 105.696314 245.32193 
L 106.102539 221.937535 
L 106.508763 226.319503 
L 106.914988 229.053689 
L 107.727437 208.469701 
L 108.133661 214.045288 
L 108.539885 210.271684 
L 108.94611 204.614136 
L 109.352334 214.730908 
L 109.758559 217.367524 
L 110.164783 215.379125 
L 110.571007 229.242202 
L 110.977232 234.163086 
L 111.383456 231.060385 
L 111.789681 242.278028 
L 112.195905 244.919585 
L 112.602129 239.374426 
L 113.008354 239.458505 
L 113.414578 231.176854 
L 113.820803 235.709154 
L 114.227027 227.845036 
L 114.633251 228.495938 
L 115.4457 213.805535 
L 115.851925 211.931468 
L 116.258149 208.094776 
L 117.070598 203.870924 
L 117.476822 206.494911 
L 117.883047 207.472121 
L 118.695495 212.667565 
L 119.10172 213.476531 
L 119.507944 226.673033 
L 120.320393 231.698069 
L 120.726618 232.961924 
L 121.132842 243.491509 
L 121.539066 243.673069 
L 122.351515 239.185244 
L 122.75774 246.061059 
L 123.163964 242.569118 
L 123.976413 228.149133 
L 124.382637 231.560338 
L 124.788862 228.710851 
L 125.195086 220.818874 
L 125.60131 209.327956 
L 126.007535 202.109367 
L 126.413759 213.552149 
L 127.226208 199.339772 
L 127.632432 199.193523 
L 128.038657 206.210597 
L 128.444881 201.810261 
L 128.851106 204.795279 
L 129.25733 200.849362 
L 129.663554 199.919217 
L 130.069779 217.507164 
L 130.476003 214.806372 
L 130.882228 218.813782 
L 131.694676 223.06637 
L 132.100901 235.688531 
L 132.507125 237.987906 
L 132.91335 226.583108 
L 133.319574 238.727128 
L 133.725799 238.848524 
L 134.132023 245.915794 
L 134.538247 246.922811 
L 134.944472 242.330781 
L 135.350696 242.151953 
L 135.756921 237.344724 
L 136.163145 241.303511 
L 136.569369 236.398587 
L 136.975594 216.275558 
L 137.381818 229.92388 
L 137.788043 224.115349 
L 138.194267 223.148735 
L 138.600491 210.672369 
L 139.006716 217.938825 
L 139.41294 211.871473 
L 139.819165 208.62712 
L 140.225389 201.058783 
L 140.631613 199.520135 
L 141.037838 200.468543 
L 141.444062 196.286715 
L 141.850287 198.877707 
L 142.256511 197.384824 
L 142.662735 194.5985 
L 143.06896 190.675498 
L 143.475184 200.843 
L 143.881409 202.391254 
L 144.287633 204.652485 
L 144.693857 205.287445 
L 145.100082 204.562493 
L 145.506306 202.67359 
L 145.912531 214.89113 
L 146.72498 224.298425 
L 147.131204 225.849024 
L 147.943653 223.29059 
L 148.349877 230.810732 
L 148.756102 224.234438 
L 149.162326 244.241859 
L 149.56855 245.390487 
L 149.974775 232.035286 
L 150.380999 237.950538 
L 150.787224 237.041992 
L 151.193448 243.94015 
L 151.599672 248.669089 
L 152.005897 251.991922 
L 152.412121 247.826947 
L 153.22457 236.022367 
L 153.630794 233.623343 
L 154.037019 228.306008 
L 154.443243 239.12578 
L 154.849468 240.060011 
L 155.255692 230.938643 
L 155.661916 226.733032 
L 156.068141 218.803181 
L 156.474365 214.214578 
L 156.88059 211.741134 
L 157.286814 212.545454 
L 157.693038 218.212992 
L 158.505487 203.703201 
L 158.911712 200.445814 
L 159.317936 194.336831 
L 159.724161 186.364768 
L 160.130385 183.827742 
L 160.536609 198.480459 
L 160.942834 199.165667 
L 161.349058 178.976975 
L 161.755283 192.203809 
L 162.161507 188.383696 
L 162.567731 186.605561 
L 162.973956 187.04207 
L 163.38018 181.83445 
L 163.786405 196.651414 
L 164.192629 198.343835 
L 164.598853 177.885395 
L 165.005078 198.190183 
L 165.411302 197.650233 
L 165.817527 197.994575 
L 166.223751 200.526126 
L 166.629975 197.368358 
L 167.0362 208.986203 
L 167.442424 215.623469 
L 167.848649 202.518463 
L 168.254873 216.256547 
L 168.661097 220.440568 
L 169.067322 220.873233 
L 169.473546 223.501335 
L 169.879771 223.923567 
L 170.285995 224.522897 
L 170.692219 235.033689 
L 171.098444 235.509254 
L 171.504668 224.541573 
L 171.910893 240.809802 
L 172.317117 242.541122 
L 172.723342 222.923512 
L 173.129566 243.418726 
L 173.942015 241.246921 
L 174.348239 246.944009 
L 174.754464 237.93737 
L 175.160688 235.262327 
L 175.566912 248.050577 
L 175.973137 250.009459 
L 176.379361 229.335331 
L 176.785586 246.168613 
L 177.19181 243.987466 
L 177.598034 239.89156 
L 178.004259 238.853362 
L 178.410483 238.260876 
L 178.816708 230.564649 
L 179.222932 229.49104 
L 179.629156 238.002711 
L 180.035381 235.78487 
L 180.441605 231.995843 
L 180.84783 229.379923 
L 181.254054 225.21991 
L 181.660278 219.860799 
L 182.066503 216.124962 
L 182.472727 207.15326 
L 182.878952 205.196973 
L 183.285176 203.947451 
L 183.6914 212.356358 
L 184.097625 210.873932 
L 184.503849 207.582175 
L 184.910074 205.591855 
L 185.316298 201.864011 
L 186.128747 191.908685 
L 186.534971 171.603411 
L 186.941196 182.763472 
L 187.34742 177.497763 
L 188.159869 190.515852 
L 188.566093 165.704182 
L 188.972318 189.652137 
L 189.378542 188.343985 
L 189.784767 186.058931 
L 190.190991 182.777188 
L 190.597215 178.564809 
L 191.00344 169.73355 
L 191.409664 171.524794 
L 191.815889 168.775126 
L 192.222113 174.927669 
L 192.628337 183.843732 
L 193.034562 169.781245 
L 193.440786 189.151059 
L 193.847011 191.389632 
L 194.253235 191.57784 
L 194.659459 190.811678 
L 195.065684 188.717437 
L 195.471908 167.07493 
L 195.878133 183.865723 
L 196.284357 182.017497 
L 196.690581 183.116318 
L 197.50303 198.733772 
L 197.909255 180.61297 
L 198.315479 209.156231 
L 198.721704 213.009303 
L 199.127928 214.592853 
L 199.534152 215.069517 
L 199.940377 213.806147 
L 200.346601 186.682426 
L 200.752826 210.644546 
L 201.15905 209.667738 
L 201.565274 209.767099 
L 201.971499 214.838278 
L 202.377723 222.407382 
L 202.783948 215.924109 
L 203.596396 238.989804 
L 204.002621 241.847562 
L 204.408845 242.864554 
L 204.81507 242.475618 
L 205.221294 238.228817 
L 205.627518 224.998849 
L 206.033743 237.153101 
L 206.439967 235.633534 
L 206.846192 235.023614 
L 207.252416 237.789291 
L 207.65864 242.349289 
L 208.064865 237.59532 
L 208.471089 234.895791 
L 208.877314 254.540785 
L 209.283538 258.336681 
L 209.689762 258.641123 
L 210.095987 257.233858 
L 210.502211 253.272619 
L 210.908436 227.733708 
L 211.31466 245.949197 
L 211.720885 246.012031 
L 212.127109 243.27034 
L 212.533333 241.69528 
L 213.345782 243.307567 
L 213.752007 235.540413 
L 214.158231 229.912778 
L 214.564455 248.59425 
L 214.97068 253.192532 
L 215.376904 252.613427 
L 215.783129 249.833471 
L 216.189353 244.365755 
L 216.595577 225.756213 
L 217.001802 226.913312 
L 217.408026 233.181806 
L 218.626699 224.269115 
L 219.032924 223.257874 
L 219.439148 220.748842 
L 219.845373 210.727648 
L 220.251597 206.712283 
L 220.657821 221.744986 
L 221.064046 227.299054 
L 221.47027 226.805311 
L 221.876495 223.44387 
L 222.282719 216.967532 
L 222.688943 200.002743 
L 223.095168 189.838252 
L 223.501392 203.706337 
L 223.907617 202.196327 
L 224.720066 195.244018 
L 225.532514 190.867381 
L 225.938739 186.494093 
L 226.344963 177.330916 
L 226.751188 175.353902 
L 227.157412 187.26059 
L 227.563636 194.319074 
L 227.969861 195.452593 
L 228.376085 192.977625 
L 228.78231 186.891838 
L 229.594758 156.470153 
L 230.000983 173.545292 
L 230.407207 176.399046 
L 230.813432 174.466472 
L 231.219656 171.819145 
L 231.62588 167.529687 
L 232.032105 167.791874 
L 232.438329 165.701759 
L 232.844554 161.590254 
L 233.250778 155.300778 
L 233.657002 154.406759 
L 234.469451 172.507347 
L 234.875676 176.44264 
L 235.2819 176.31087 
L 235.688124 172.228481 
L 236.094349 161.349706 
L 236.500573 145.403432 
L 237.313022 167.52466 
L 237.719247 169.373322 
L 238.125471 168.783803 
L 238.93792 166.754812 
L 239.344144 165.90744 
L 239.750369 164.606796 
L 240.156593 162.046105 
L 240.562817 158.538024 
L 240.969042 134.030169 
L 241.375266 163.790202 
L 242.187715 179.581904 
L 242.593939 182.565372 
L 243.000164 181.617907 
L 243.406388 175.559236 
L 243.812613 163.668286 
L 244.218837 162.820786 
L 244.625061 177.664311 
L 245.031286 185.98957 
L 245.43751 188.94453 
L 245.843735 189.863037 
L 246.249959 190.108443 
L 246.656183 190.115618 
L 247.062408 189.984631 
L 247.468632 189.486789 
L 247.874857 188.283505 
L 248.281081 186.058397 
L 248.687305 185.497097 
L 249.09353 187.786179 
L 250.312203 206.283918 
L 250.718428 208.594686 
L 251.124652 207.06651 
L 251.530876 200.967191 
L 251.937101 193.134246 
L 252.343325 196.601 
L 252.74955 209.751851 
L 253.155774 218.869825 
L 253.561998 223.332652 
L 253.968223 225.50196 
L 254.374447 226.446459 
L 254.780672 226.83451 
L 255.186896 226.885031 
L 255.59312 226.595142 
L 255.999345 225.794988 
L 256.405569 207.783534 
L 256.811794 223.374989 
L 257.218018 222.8583 
L 257.624242 224.084381 
L 258.030467 227.41171 
L 258.842916 235.513281 
L 259.24914 237.180891 
L 259.655364 235.904432 
L 260.061589 231.358681 
L 260.467813 225.44748 
L 260.874038 225.13317 
L 261.280262 234.004106 
L 261.686486 224.343504 
L 262.092711 250.752947 
L 262.498935 254.137846 
L 262.90516 255.609949 
L 263.311384 256.021566 
L 263.717609 255.80947 
L 264.123833 255.160818 
L 264.530057 254.008818 
L 264.936282 210.858578 
L 265.342506 251.09984 
L 266.154955 247.868914 
L 266.561179 246.851466 
L 266.967404 246.824032 
L 267.373628 247.718604 
L 267.779853 248.917012 
L 268.186077 249.496379 
L 268.592301 248.582889 
L 268.998526 245.625512 
L 269.810975 236.310145 
L 270.217199 236.095889 
L 270.623423 234.261891 
L 271.029648 250.088863 
L 271.435872 256.133039 
L 271.842097 259.456725 
L 272.248321 260.762018 
L 272.654545 260.760087 
L 273.06077 259.919249 
L 273.466994 258.458765 
L 273.873219 255.749139 
L 274.279443 248.763316 
L 274.685667 252.401192 
L 275.498116 247.641387 
L 276.71679 240.630925 
L 278.341687 233.739325 
L 278.747912 230.52056 
L 279.966585 217.371114 
L 280.372809 217.655311 
L 281.591482 233.133377 
L 281.997707 235.892426 
L 282.403931 236.895291 
L 282.810156 236.567975 
L 283.21638 235.249535 
L 283.622604 232.811743 
L 284.028829 213.418531 
L 284.435053 227.017895 
L 284.841278 226.154669 
L 285.653726 220.753827 
L 289.309746 193.499599 
L 290.122195 184.869738 
L 290.528419 141.68115 
L 290.934644 179.163453 
L 291.340868 180.18945 
L 291.747093 183.243014 
L 292.559541 191.397469 
L 292.965766 194.170691 
L 293.37199 195.54902 
L 293.778215 195.619839 
L 294.184439 194.339978 
L 294.590663 189.031728 
L 294.996888 163.817027 
L 295.403112 188.12906 
L 295.809337 187.226999 
L 296.621785 182.558145 
L 299.059132 166.066289 
L 300.684029 154.162377 
L 301.090254 150.651777 
L 301.496478 145.266665 
L 301.902703 129.291556 
L 302.308927 141.790296 
L 302.715152 141.302705 
L 303.121376 142.038874 
L 303.5276 144.425566 
L 305.152498 158.036266 
L 305.558722 159.364446 
L 305.964947 158.68168 
L 306.371171 148.44753 
L 306.777396 132.381484 
L 307.18362 156.638923 
L 307.589844 158.050843 
L 307.996069 157.312086 
L 308.808518 154.416742 
L 310.433415 147.095976 
L 312.464537 136.849829 
L 313.276986 131.840458 
L 313.68321 126.479367 
L 314.089435 86.074542 
L 314.495659 124.700008 
L 314.901884 125.267823 
L 315.308108 125.190292 
L 315.714333 125.913314 
L 316.120557 127.767895 
L 316.933006 134.527175 
L 317.745455 142.531292 
L 318.151679 145.622669 
L 318.557903 146.98762 
L 318.964128 142.799004 
L 319.370352 108.676308 
L 319.776577 138.436911 
L 320.182801 152.363488 
L 320.589025 155.486784 
L 320.99525 156.483173 
L 321.401474 156.710989 
L 321.807699 156.543287 
L 322.213923 156.1297 
L 323.026372 154.837664 
L 324.245045 152.180759 
L 325.463718 148.848125 
L 326.276167 145.900389 
L 326.682391 143.346424 
L 327.088616 134.334055 
L 327.49484 101.358542 
L 327.901065 138.267456 
L 328.307289 140.93938 
L 329.119738 142.027481 
L 329.525962 143.100786 
L 329.932187 144.885958 
L 330.744636 150.710122 
L 331.963309 161.853646 
L 332.369533 164.03622 
L 332.775758 162.3101 
L 333.588206 129.767419 
L 333.994431 164.92703 
L 334.400655 177.968822 
L 334.80688 183.118934 
L 335.213104 185.893479 
L 335.619328 187.64683 
L 336.025553 188.828896 
L 336.431777 189.633251 
L 336.838002 190.160865 
L 337.244226 190.471846 
L 337.65045 190.604931 
L 338.056675 190.585894 
L 338.462899 190.43143 
L 339.275348 189.744724 
L 340.087797 188.490782 
L 340.494021 187.514633 
L 340.900246 185.989448 
L 341.30647 182.800702 
L 341.712695 170.984012 
L 342.118919 131.290491 
L 342.525143 174.55814 
L 342.931368 182.187236 
L 343.337592 183.873504 
L 344.556265 186.092002 
L 344.96249 187.343841 
L 345.774939 191.210209 
L 347.399836 201.244458 
L 347.806061 201.372088 
L 348.212285 196.533841 
L 349.024734 167.701065 
L 349.430958 195.096568 
L 349.837183 214.501298 
L 350.243407 223.697875 
L 350.649631 228.816907 
L 351.055856 232.132029 
L 351.868305 236.226711 
L 352.680753 238.536668 
L 353.493202 239.766719 
L 353.899427 240.071302 
L 354.305651 240.194094 
L 354.711876 240.142701 
L 355.1181 239.914885 
L 355.524324 239.494046 
L 355.930549 238.837247 
L 356.336773 237.843612 
L 356.742998 236.261476 
L 357.149222 233.362085 
L 357.555446 226.469271 
L 358.367895 184.240146 
L 358.77412 219.69386 
L 359.180344 229.50942 
L 359.586568 232.132213 
L 359.992793 232.945173 
L 360.805242 233.380169 
L 361.211466 233.604628 
L 361.61769 233.989244 
L 362.023915 234.581977 
L 362.836364 236.382699 
L 363.648812 238.41501 
L 364.055037 238.904144 
L 364.461261 238.25788 
L 364.867486 235.191636 
L 365.27371 227.34485 
L 365.679934 212.823866 
L 366.086159 203.251102 
L 366.492383 218.4536 
L 366.898608 239.278586 
L 367.304832 252.628481 
L 367.711057 260.492694 
L 368.117281 265.419861 
L 368.523505 268.725386 
L 368.92973 271.047649 
L 369.335954 272.714151 
L 369.742179 273.906349 
L 370.148403 274.732442 
L 370.554627 275.260884 
L 370.960852 275.53657 
L 371.367076 275.588916 
L 371.773301 275.435735 
L 372.179525 275.084492 
L 372.585749 274.531268 
L 372.991974 273.75662 
L 373.398198 272.715688 
L 373.804423 271.315559 
L 374.210647 269.360501 
L 374.616871 266.405719 
L 375.023096 261.315652 
L 375.42932 250.80577 
L 376.241769 208.75977 
L 376.647993 237.04674 
L 377.054218 253.133903 
L 377.460442 258.587547 
L 377.866667 260.330468 
L 378.272891 260.662162 
L 378.679115 260.393036 
L 379.491564 259.219946 
L 381.116462 256.741146 
L 381.928911 255.409318 
L 382.335135 254.398195 
L 382.74136 252.830198 
L 383.147584 250.263131 
L 383.553808 246.000491 
L 383.960033 239.07553 
L 384.772482 217.292135 
L 385.178706 212.928327 
L 385.58493 222.111056 
L 386.397379 250.815429 
L 386.803604 260.070392 
L 387.209828 266.225063 
L 387.616052 270.321676 
L 388.022277 273.065972 
L 388.428501 274.890034 
L 388.834726 276.057117 
L 389.24095 276.731713 
L 389.647174 277.02 
L 390.053399 276.992426 
L 390.459623 276.696281 
L 390.865848 276.162589 
L 391.678296 274.443763 
L 392.490745 271.831935 
L 393.303194 268.018169 
L 393.709419 265.374106 
L 394.115643 261.862009 
L 394.521867 256.833522 
L 394.928092 248.91478 
L 395.334316 235.319529 
L 395.740541 213.465712 
L 396.146765 198.82197 
L 397.365438 243.643941 
L 397.771663 247.74982 
L 398.177887 249.193428 
L 398.584111 249.321929 
L 398.990336 248.754116 
L 399.802785 246.5995 
L 401.021458 242.301959 
L 402.240131 237.184115 
L 403.05258 232.792699 
L 403.865029 226.457821 
L 404.271253 221.967242 
L 405.083702 208.766159 
L 405.896151 191.118333 
L 406.302375 185.285063 
L 406.7086 185.808294 
L 407.114824 192.914697 
L 408.333497 221.789145 
L 408.739722 228.048538 
L 409.145946 232.548501 
L 409.55217 235.684748 
L 409.958395 237.789868 
L 410.364619 239.111642 
L 410.770844 239.827257 
L 411.177068 240.062071 
L 411.583292 239.904768 
L 411.989517 239.417971 
L 412.395741 238.645173 
L 413.20819 236.342973 
L 414.020639 233.073208 
L 414.833088 228.669668 
L 415.645536 222.519954 
L 416.051761 218.329505 
L 416.457985 212.87709 
L 416.86421 205.432978 
L 417.270434 194.862834 
L 418.489107 152.919708 
L 418.895332 160.705528 
L 419.707781 188.297052 
L 420.114005 195.454256 
L 420.520229 199.184388 
L 420.926454 200.845184 
L 421.332678 201.267207 
L 421.738903 200.925744 
L 422.145127 200.094079 
L 422.957576 197.53755 
L 424.176249 192.398849 
L 425.394922 185.996854 
L 426.207371 180.721651 
L 427.01982 174.084922 
L 427.832269 165.323121 
L 428.644717 153.72326 
L 429.863391 134.049081 
L 430.269615 130.005785 
L 430.675839 129.116965 
L 431.082064 131.760817 
L 431.488288 137.270646 
L 433.113186 164.024881 
L 433.925635 172.195074 
L 434.331859 174.87576 
L 434.738084 176.800412 
L 435.144308 178.091283 
L 435.550532 178.849648 
L 435.956757 179.155991 
L 436.362981 179.072413 
L 436.769206 178.645336 
L 437.17543 177.907718 
L 437.987879 175.573232 
L 438.800328 172.095629 
L 439.612776 167.274187 
L 440.425225 160.536454 
L 441.237674 150.594 
L 442.050123 134.911208 
L 443.67502 92.468284 
L 444.081245 95.043254 
L 445.706143 131.641721 
L 446.112367 135.907546 
L 446.518591 138.478274 
L 446.924816 139.85618 
L 447.33104 140.4002 
L 447.737265 140.354296 
L 448.143489 139.881856 
L 448.549713 139.091977 
L 449.362162 136.825382 
L 450.174611 133.877544 
L 451.393284 128.364598 
L 452.611957 121.326415 
L 453.424406 115.474763 
L 454.236855 108.406161 
L 455.455528 95.325006 
L 456.674201 81.407726 
L 457.080426 77.817175 
L 457.48665 75.434166 
L 457.892875 74.621116 
L 458.299099 75.561064 
L 458.705324 78.186706 
L 459.517772 87.121544 
L 461.14267 107.627124 
L 461.955119 115.175519 
L 462.767568 120.423379 
L 463.580016 123.659867 
L 463.986241 124.630134 
L 464.392465 125.216823 
L 464.79869 125.447963 
L 465.204914 125.34419 
L 465.611138 124.918373 
L 466.017363 124.175166 
L 466.423587 123.110299 
L 467.236036 119.946721 
L 468.048485 115.159156 
L 468.860934 108.206773 
L 469.673382 98.195381 
L 470.485831 84.083589 
L 471.704505 57.966989 
L 472.110729 51.998137 
L 472.516953 50.22 
L 472.923178 53.221041 
L 473.735627 68.262635 
L 474.548075 83.674222 
L 475.360524 93.819585 
L 475.766749 97.057981 
L 476.172973 99.361141 
L 476.579197 100.926042 
L 476.985422 101.912257 
L 477.391646 102.443462 
L 477.797871 102.613357 
L 478.204095 102.492021 
L 478.610319 102.131357 
L 479.422768 100.833476 
L 480.235217 98.909966 
L 481.047666 96.444123 
L 482.266339 91.750394 
L 483.485012 85.757916 
L 484.703686 78.342988 
L 487.953481 56.535132 
L 488.359705 55.067715 
L 488.76593 54.303801 
L 489.172154 54.344206 
L 489.578378 55.242552 
L 489.984603 56.99412 
L 490.797052 62.744749 
L 492.015725 74.807726 
L 493.640622 91.024604 
L 494.453071 97.545032 
L 495.26552 102.677533 
L 496.077969 106.413576 
L 496.890418 108.803297 
L 497.296642 109.508545 
L 497.702867 109.891103 
L 498.109091 109.949401 
L 498.109091 109.949401 
" clip-path="url(#p6345897a1d)" style="fill: none; stroke: #1f77b4; stroke-width: 1.5; stroke-linecap: square"/>
   </g>
   <g id="patch_3">
    <path d="M 72 288.36 
L 72 38.88 
" style="fill: none; stroke: #000000; stroke-width: 0.8; stroke-linejoin: miter; stroke-linecap: square"/>
   </g>
   <g id="patch_4">
    <path d="M 518.4 288.36 
L 518.4 38.88 
" style="fill: none; stroke: #000000; stroke-width: 0.8; stroke-linejoin: miter; stroke-linecap: square"/>
   </g>
   <g id="patch_5">
    <path d="M 72 288.36 
L 518.4 288.36 
" style="fill: none; stroke: #000000; stroke-width: 0.8; stroke-linejoin: miter; stroke-linecap: square"/>
   </g>
   <g id="patch_6">
    <path d="M 72 38.88 
L 518.4 38.88 
" style="fill: none; stroke: #000000; stroke-width: 0.8; stroke-linejoin: miter; stroke-linecap: square"/>
   </g>
   <g id="text_17">
    <!-- 4µm diameter BK7 glass spheres -->
    <g transform="translate(196.0425 32.88) scale(0.12 -0.12)">
     <defs>
      <path id="DejaVuSans-b5" d="M 544 -1331 
L 544 3500 
L 1119 3500 
L 1119 1325 
Q 1119 872 1334 640 
Q 1550 409 1972 409 
Q 2434 409 2667 671 
Q 2900 934 2900 1459 
L 2900 3500 
L 3475 3500 
L 3475 806 
Q 3475 619 3529 530 
Q 3584 441 3700 441 
Q 3728 441 3778 458 
Q 3828 475 3916 513 
L 3916 50 
Q 3788 -22 3673 -56 
Q 3559 -91 3450 -91 
Q 3234 -91 3106 31 
Q 2978 153 2931 403 
Q 2775 156 2548 32 
Q 2322 -91 2016 -91 
Q 1697 -91 1473 31 
Q 1250 153 1119 397 
L 1119 -1331 
L 544 -1331 
z
" transform="scale(0.015625)"/>
      <path id="DejaVuSans-64" d="M 2906 2969 
L 2906 4863 
L 3481 4863 
L 3481 0 
L 2906 0 
L 2906 525 
Q 2725 213 2448 61 
Q 2172 -91 1784 -91 
Q 1150 -91 751 415 
Q 353 922 353 1747 
Q 353 2572 751 3078 
Q 1150 3584 1784 3584 
Q 2172 3584 2448 3432 
Q 2725 3281 2906 2969 
z
M 947 1747 
Q 947 1113 1208 752 
Q 1469 391 1925 391 
Q 2381 391 2643 752 
Q 2906 1113 2906 1747 
Q 2906 2381 2643 2742 
Q 2381 3103 1925 3103 
Q 1469 3103 1208 2742 
Q 947 2381 947 1747 
z
" transform="scale(0.015625)"/>
      <path id="DejaVuSans-42" d="M 1259 2228 
L 1259 519 
L 2272 519 
Q 2781 519 3026 730 
Q 3272 941 3272 1375 
Q 3272 1813 3026 2020 
Q 2781 2228 2272 2228 
L 1259 2228 
z
M 1259 4147 
L 1259 2741 
L 2194 2741 
Q 2656 2741 2882 2914 
Q 3109 3088 3109 3444 
Q 3109 3797 2882 3972 
Q 2656 4147 2194 4147 
L 1259 4147 
z
M 628 4666 
L 2241 4666 
Q 2963 4666 3353 4366 
Q 3744 4066 3744 3513 
Q 3744 3084 3544 2831 
Q 3344 2578 2956 2516 
Q 3422 2416 3680 2098 
Q 3938 1781 3938 1306 
Q 3938 681 3513 340 
Q 3088 0 2303 0 
L 628 0 
L 628 4666 
z
" transform="scale(0.015625)"/>
      <path id="DejaVuSans-4b" d="M 628 4666 
L 1259 4666 
L 1259 2694 
L 3353 4666 
L 4166 4666 
L 1850 2491 
L 4331 0 
L 3500 0 
L 1259 2247 
L 1259 0 
L 628 0 
L 628 4666 
z
" transform="scale(0.015625)"/>
      <path id="DejaVuSans-37" d="M 525 4666 
L 3525 4666 
L 3525 4397 
L 1831 0 
L 1172 0 
L 2766 4134 
L 525 4134 
L 525 4666 
z
" transform="scale(0.015625)"/>
      <path id="DejaVuSans-73" d="M 2834 3397 
L 2834 2853 
Q 2591 2978 2328 3040 
Q 2066 3103 1784 3103 
Q 1356 3103 1142 2972 
Q 928 2841 928 2578 
Q 928 2378 1081 2264 
Q 1234 2150 1697 2047 
L 1894 2003 
Q 2506 1872 2764 1633 
Q 3022 1394 3022 966 
Q 3022 478 2636 193 
Q 2250 -91 1575 -91 
Q 1294 -91 989 -36 
Q 684 19 347 128 
L 347 722 
Q 666 556 975 473 
Q 1284 391 1588 391 
Q 1994 391 2212 530 
Q 2431 669 2431 922 
Q 2431 1156 2273 1281 
Q 2116 1406 1581 1522 
L 1381 1569 
Q 847 1681 609 1914 
Q 372 2147 372 2553 
Q 372 3047 722 3315 
Q 1072 3584 1716 3584 
Q 2034 3584 2315 3537 
Q 2597 3491 2834 3397 
z
" transform="scale(0.015625)"/>
      <path id="DejaVuSans-70" d="M 1159 525 
L 1159 -1331 
L 581 -1331 
L 581 3500 
L 1159 3500 
L 1159 2969 
Q 1341 3281 1617 3432 
Q 1894 3584 2278 3584 
Q 2916 3584 3314 3078 
Q 3713 2572 3713 1747 
Q 3713 922 3314 415 
Q 2916 -91 2278 -91 
Q 1894 -91 1617 61 
Q 1341 213 1159 525 
z
M 3116 1747 
Q 3116 2381 2855 2742 
Q 2594 3103 2138 3103 
Q 1681 3103 1420 2742 
Q 1159 2381 1159 1747 
Q 1159 1113 1420 752 
Q 1681 391 2138 391 
Q 2594 391 2855 752 
Q 3116 1113 3116 1747 
z
" transform="scale(0.015625)"/>
     </defs>
     <use xlink:href="#DejaVuSans-34"/>
     <use xlink:href="#DejaVuSans-b5" x="63.623047"/>
     <use xlink:href="#DejaVuSans-6d" x="127.246094"/>
     <use xlink:href="#DejaVuSans-20" x="224.658203"/>
     <use xlink:href="#DejaVuSans-64" x="256.445312"/>
     <use xlink:href="#DejaVuSans-69" x="319.921875"/>
     <use xlink:href="#DejaVuSans-61" x="347.705078"/>
     <use xlink:href="#DejaVuSans-6d" x="408.984375"/>
     <use xlink:href="#DejaVuSans-65" x="506.396484"/>
     <use xlink:href="#DejaVuSans-74" x="567.919922"/>
     <use xlink:href="#DejaVuSans-65" x="607.128906"/>
     <use xlink:href="#DejaVuSans-72" x="668.652344"/>
     <use xlink:href="#DejaVuSans-20" x="709.765625"/>
     <use xlink:href="#DejaVuSans-42" x="741.552734"/>
     <use xlink:href="#DejaVuSans-4b" x="810.15625"/>
     <use xlink:href="#DejaVuSans-37" x="875.732422"/>
     <use xlink:href="#DejaVuSans-20" x="939.355469"/>
     <use xlink:href="#DejaVuSans-67" x="971.142578"/>
     <use xlink:href="#DejaVuSans-6c" x="1034.619141"/>
     <use xlink:href="#DejaVuSans-61" x="1062.402344"/>
     <use xlink:href="#DejaVuSans-73" x="1123.681641"/>
     <use xlink:href="#DejaVuSans-73" x="1175.78125"/>
     <use xlink:href="#DejaVuSans-20" x="1227.880859"/>
     <use xlink:href="#DejaVuSans-73" x="1259.667969"/>
     <use xlink:href="#DejaVuSans-70" x="1311.767578"/>
     <use xlink:href="#DejaVuSans-68" x="1375.244141"/>
     <use xlink:href="#DejaVuSans-65" x="1438.623047"/>
     <use xlink:href="#DejaVuSans-72" x="1500.146484"/>
     <use xlink:href="#DejaVuSans-65" x="1539.009766"/>
     <use xlink:href="#DejaVuSans-73" x="1600.533203"/>
    </g>
   </g>
  </g>
 </g>
 <defs>
  <clipPath id="p6345897a1d">
   <rect x="72" y="38.88" width="446.4" height="249.48"/>
  </clipPath>
 </defs>
</svg>
